<?xml version="1.0" encoding="utf-8"?>
<!-- Generator: Adobe Illustrator 22.0.1, SVG Export Plug-In . SVG Version: 6.00 Build 0)  -->
<svg version="1.1" id="Laag_1" xmlns="http://www.w3.org/2000/svg" xmlns:xlink="http://www.w3.org/1999/xlink" x="0px" y="0px"
	 viewBox="0 0 617.5 617.9" style="enable-background:new 0 0 617.5 617.9;" xml:space="preserve">
<style type="text/css">
	.st0{fill:#27BADD;}
	.st1{fill:#25ADCF;}
	.st2{fill:#4192C3;}
	.st3{fill:#3D88B5;}
	.st4{fill:#77C19F;}
	.st5{fill:#6EB393;}
	.st6{fill:#56BCB5;}
	.st7{fill:#51AEA9;}
	.st8{opacity:0.15;fill:#1D1D1B;}
</style>
<g>
	<path class="st0" d="M214.6,603.4c61,19.4,126.8,19.4,187.8,0l-93.9-93.9L214.6,603.4z"/>
	<path class="st1" d="M97.9,535.1c28.2,26.3,60.2,46.3,94.1,60.1l116.6-116.6l-77.1-77.1L97.9,535.1z"/>
	<path class="st0" d="M231.5,401.5l77.1,77.1l116.6,116.6c33.9-13.8,65.9-33.8,94.1-60.1L308.6,324.4L231.5,401.5z"/>
	<path class="st2" d="M14.2,215c-19.4,61-19.4,126.8,0,187.8l93.9-93.9L14.2,215z"/>
	<path class="st3" d="M82.5,98.3c-26.3,28.2-46.3,60.2-60.1,94.1L138.9,309l77.1-77.1L82.5,98.3z"/>
	<path class="st2" d="M216,231.9L138.9,309L22.4,425.5c13.8,33.9,33.8,65.9,60.1,94.1L293.1,309L216,231.9z"/>
	<path class="st4" d="M402.5,14.6c-61-19.4-126.8-19.4-187.8,0l93.9,93.9L402.5,14.6z"/>
	<path class="st5" d="M519.2,82.9C491,56.5,459,36.6,425.1,22.8L308.6,139.3l77.1,77.1L519.2,82.9z"/>
	<path class="st4" d="M385.7,216.4l-77.1-77.1L192,22.8c-33.9,13.8-65.9,33.8-94.1,60.1l210.7,210.7L385.7,216.4z"/>
	<path class="st6" d="M603,402.9c19.4-61,19.4-126.8,0-187.8L509.1,309L603,402.9z"/>
	<path class="st7" d="M534.7,519.6c26.3-28.2,46.3-60.2,60.1-94.1L478.2,309l-77.1,77.1L534.7,519.6z"/>
	<path class="st6" d="M401.1,386.1l77.1-77.1l116.6-116.6c-13.8-33.9-33.8-65.9-60.1-94.1L324,309L401.1,386.1z"/>
	<g>
		
			<rect x="343.9" y="115.6" transform="matrix(0.7071 -0.7071 0.7071 0.7071 -16.4002 300.755)" class="st8" width="21.8" height="109"/>
	</g>
	<g>
		
			<rect x="251.4" y="393.2" transform="matrix(0.7071 -0.7071 0.7071 0.7071 -239.7914 316.632)" class="st8" width="21.8" height="109"/>
	</g>
	<g>
		
			<rect x="392.8" y="344.3" transform="matrix(0.7071 -0.7071 0.7071 0.7071 -120.1574 420.3849)" class="st8" width="109" height="21.8"/>
	</g>
	<g>
		
			<rect x="115.3" y="251.8" transform="matrix(0.7071 -0.7071 0.7071 0.7071 -136.0336 196.9954)" class="st8" width="109" height="21.8"/>
	</g>
</g>
</svg>
