<svg id="Layer_1" data-name="Layer 1" xmlns="http://www.w3.org/2000/svg" xmlns:xlink="http://www.w3.org/1999/xlink" viewBox="0 0 141.73 141.73">
  <defs>
    <style>
      .cls-1 {
        fill: none;
      }

      .cls-2 {
        clip-path: url(#clip-path);
      }

      .cls-3 {
        fill: #6cb292;
      }

      .cls-4 {
        fill: #70706f;
      }
    </style>
    <clipPath id="clip-path">
      <rect class="cls-1" width="141.73" height="141.73"/>
    </clipPath>
  </defs>
  <title>icon</title>
  <g class="cls-2">
    <g class="cls-2">
      <path class="cls-3" d="M93.07,48.86H89.46l-.2.24a9.75,9.75,0,0,1-15,0l-.2-.24H68.62l-.21.24a9.75,9.75,0,0,1-14.95,0l-.2-.24H49.65v6H51V50.21h1.63a11.09,11.09,0,0,0,16.61,0h4.24a11.09,11.09,0,0,0,16.61,0h1.63v41.5a29.35,29.35,0,0,1-40.72,0V66.56H49.65a1.2,1.2,0,0,0-1.13,1.2v18.9a1.19,1.19,0,0,0,1.13,1.19v4.43l.2.2a30.71,30.71,0,0,0,43,0l.21-.21Z"/>
      <path class="cls-4" d="M59.42,61.09H57.91V88.44l.23.22a19.28,19.28,0,0,0,26.74,0l.24-.23V62.82h0V61.16H83.6V87.79a17.76,17.76,0,0,1-24.18,0v-25h0Z"/>
      <path class="cls-4" d="M104.92,33.23H99.8l-.2.22a16.92,16.92,0,0,1-24.33,0l-.2-.22H66.75l-.2.22a16.92,16.92,0,0,1-24.33,0l-.2-.22H36.9V58.86h1.32V34.43h3.19a18.36,18.36,0,0,0,26,0h7.1a18.36,18.36,0,0,0,26,0h3.19v47.3h1.32Z"/>
      <path class="cls-3" d="M109.56,70.46h-1.5v30.6a53.38,53.38,0,0,1-73.85.45h-2v.19l.23.22a54.88,54.88,0,0,0,76.87,0l.23-.23,0-1V95.8a1.21,1.21,0,0,0,1.06-1.19V75.71a1.19,1.19,0,0,0-1.06-1.19Z"/>
      <path class="cls-4" d="M103.75,24.11l-.23.26a18,18,0,0,1-27.66,0l-.22-.26H66.18l-.23.26a18,18,0,0,1-27.65,0l-.23-.26H32.25v7.05a1.19,1.19,0,0,0-1.13,1.2v18.9a1.19,1.19,0,0,0,1.13,1.19V84.86h1.5V25.61h3.63a19.53,19.53,0,0,0,29.5,0h8.06a19.53,19.53,0,0,0,29.5,0h3.62v30.6h1.5V24.11Z"/>
      <path class="cls-4" d="M36.9,97.63V93.19h0V74.47h0V70.89h1.32V97.82a46.93,46.93,0,0,0,65,.39h1.73v.16l-.19.2a48.27,48.27,0,0,1-67.63,0l-.19-.19Z"/>
    </g>
  </g>
</svg>
