<svg id="Layer_1" data-name="Layer 1" xmlns="http://www.w3.org/2000/svg" xmlns:xlink="http://www.w3.org/1999/xlink" viewBox="0 0 141.73 141.73">
  <defs>
    <style>
      .cls-1 {
        fill: none;
      }

      .cls-2 {
        clip-path: url(#clip-path);
      }
    </style>
    <clipPath id="clip-path">
      <rect class="cls-1" width="141.73" height="141.73"/>
    </clipPath>
  </defs>
  <title>icon</title>
  <g class="cls-2">
    <g class="cls-2">
      <path d="M70.73,20a50.94,50.94,0,0,0-35.92,86.93A50.94,50.94,0,1,0,70.87,20Zm.14,104.77A53.84,53.84,0,1,1,108.94,109a53.92,53.92,0,0,1-38.07,15.76"/>
      <path d="M70.87,52.28A18.59,18.59,0,1,0,89.45,70.87,18.61,18.61,0,0,0,70.87,52.28m0,40.12A21.54,21.54,0,1,1,92.4,70.87,21.56,21.56,0,0,1,70.87,92.4"/>
    </g>
  </g>
</svg>
