<svg id="Layer_1" data-name="Layer 1" xmlns="http://www.w3.org/2000/svg" xmlns:xlink="http://www.w3.org/1999/xlink" viewBox="0 0 141.73 141.73">
  <defs>
    <style>
      .cls-1 {
        fill: none;
      }

      .cls-2 {
        clip-path: url(#clip-path);
      }
    </style>
    <clipPath id="clip-path">
      <rect class="cls-1" width="141.73" height="141.73"/>
    </clipPath>
  </defs>
  <title>icon</title>
  <g class="cls-2">
    <g class="cls-2">
      <path d="M73.09,32.27v9.42l11-4.37-11-5M70.92,67,48.7,89.16a34.71,34.71,0,0,1,3.68,1.89c1.46,1,2.52.67,3.79-.39,2.08-1.73,4.32-3.26,6.54-4.91l8.16,6.07c2.33-1.74,4.66-3.4,6.89-5.18a1.68,1.68,0,0,1,2.53,0c1.93,1.57,3.95,3,6,4.48a2.36,2.36,0,0,0,1.78.5c1.75-.74,3.42-1.7,5-2.51L70.92,67m51,46.67c-1.5,1.47-2.77,1.23-4.22-.24-6.58-6.68-13.26-13.25-19.84-19.93-1-1.07-1.84-1.41-3.25-.63-2.43,1.34-5.08,3.55-7.46,3.35s-4.61-2.85-6.82-4.53a1.73,1.73,0,0,0-2.53,0c-2.24,1.78-4.58,3.45-6.9,5.19l-4-3L62.7,90.75c-2.18,1.63-4.38,3.2-6.49,4.88a2.37,2.37,0,0,1-3.05.3c-1.9-1.07-3.94-1.9-5.82-3-1.4-.83-2.28-.68-3.45.52-6.56,6.7-13.26,13.26-19.83,19.94-1.46,1.48-2.73,1.69-4.22.23V111.8L46.91,84.29l-7.16-7.16C34.64,82.27,29.3,87.58,24,93c-1.44,1.49-2.71,1.68-4.2.22V91.39c5-5,10.05-10,15.11-15,6.21-6.09,4.38-6.07,10.68.08,1.57,1.53,3.1,3.09,5.09,5.08,1.77-1.95,3.41-3.88,5.19-5.69,3.8-3.88,7.73-7.65,11.48-11.59A5.33,5.33,0,0,0,68.76,61c.11-10.2.06-20.4.07-30.6,0-3.38,1-4,4.13-2.63,5.34,2.45,10.71,4.84,16,7.38.88.43,2.13,1.61,2,2.23a3.89,3.89,0,0,1-2.21,2.3c-4.71,2-9.49,3.85-14.27,5.67a2.06,2.06,0,0,0-1.62,2.27c.09,4.69,0,9.37.07,14.05a3.14,3.14,0,0,0,.74,2c5.78,5.87,11.61,11.68,17.83,17.91,1.69-1.86,3.22-3.71,4.92-5.39,5.84-5.79,4.25-5.77,10.19.07,5.11,5,10.18,10.08,15.27,15.11v1.82c-1.5,1.47-2.78,1.25-4.22-.24-3.57-3.7-7.27-7.26-10.87-10.93-1.73-1.76-3.35-3.64-4.73-5.15-2.82,2.77-5.23,5.12-7.39,7.23l27.21,27.68Z"/>
    </g>
  </g>
</svg>
