<svg id="Layer_1" data-name="Layer 1" xmlns="http://www.w3.org/2000/svg" xmlns:xlink="http://www.w3.org/1999/xlink" viewBox="0 0 141.73 141.73">
  <defs>
    <style>
      .cls-1 {
        fill: none;
      }

      .cls-2 {
        clip-path: url(#clip-path);
      }

      .cls-3 {
        fill: #74c29f;
      }

      .cls-4 {
        fill: #70706f;
      }

      .cls-5 {
        fill: #9c9c9c;
      }
    </style>
    <clipPath id="clip-path">
      <rect class="cls-1" width="141.73" height="141.73"/>
    </clipPath>
  </defs>
  <title>icon</title>
  <g class="cls-2">
    <g class="cls-2">
      <path class="cls-3" d="M109.62,33.42a3.75,3.75,0,0,1-3.12,3.9,4.18,4.18,0,0,1-.61,0,3.74,3.74,0,0,1-3.59-2.74,16.52,16.52,0,0,0-2.07,1,50.12,50.12,0,0,1,11,27.65h.17A3.75,3.75,0,0,1,115,66,16.78,16.78,0,0,0,119.93,63a3.73,3.73,0,0,1,2.48-6.52,3.8,3.8,0,0,1,1.84.48,17,17,0,0,0,1.32-5.63h-.21a3.73,3.73,0,0,1-1-7.33,16.78,16.78,0,0,0-3.06-4.91,3.74,3.74,0,0,1-2.8,1.25,3.7,3.7,0,0,1-2.16-.69,3.75,3.75,0,0,1-1.07-4.88,16.84,16.84,0,0,0-5.64-1.31"/>
      <path class="cls-3" d="M34,30.28a3.74,3.74,0,0,1-3.11,3.9,3.24,3.24,0,0,1-.62,0,3.75,3.75,0,0,1-3.59-2.74,17,17,0,0,0-4.91,3.06,3.73,3.73,0,0,1-2.48,6.52,3.8,3.8,0,0,1-1.84-.48,16.68,16.68,0,0,0-1.31,5.63h.2a3.73,3.73,0,0,1,1,7.33,16.83,16.83,0,0,0,3.06,4.91,3.78,3.78,0,0,1,2.8-1.25,3.73,3.73,0,0,1,3.23,5.57,17.55,17.55,0,0,0,2.18.75A50.13,50.13,0,0,1,40.4,36.18a3.74,3.74,0,0,1-.73-4.59A16.92,16.92,0,0,0,34,30.28"/>
      <path class="cls-4" d="M95.59,88.78a33.71,33.71,0,0,0,9-21.88,1.19,1.19,0,0,0-.83-1.17c0-.3,0-.6,0-.89v0A33.77,33.77,0,0,0,94,41c-.21.35-.43.7-.67,1a32.54,32.54,0,0,1,9.27,22.79v0A32.5,32.5,0,0,1,93,88l.84.84h0a1.19,1.19,0,0,0,1.71,0"/>
      <path class="cls-4" d="M67.88,29.39h0A33.66,33.66,0,0,0,46,38.46a1.19,1.19,0,0,0-.25,1.42l-.64.62h0a33.83,33.83,0,0,0-7.9,12.4l1.13.42a32.56,32.56,0,0,1,7.62-12h0a32.5,32.5,0,0,1,23.13-9.59V30.57h0a1.18,1.18,0,0,0-1.18-1.18m0,0v1l.13.05,0,.13v.2a33.5,33.5,0,0,0-21.47,8.58l.06-.16a32.83,32.83,0,0,1,21.22-8.8Z"/>
      <path class="cls-4" d="M68.77,98A32.55,32.55,0,0,1,46.1,88.39h0a32.59,32.59,0,0,1-7.46-11.5l-2.1,1a33.56,33.56,0,0,0,6.67,10.5,1.19,1.19,0,0,0,1.42.25l.62.64h0A33.75,33.75,0,0,0,69,99.17c-.11-.4-.19-.8-.26-1.21"/>
      <path class="cls-4" d="M109.92,36.11a3.06,3.06,0,0,1-2.54,3.19,2.89,2.89,0,0,1-.5,0,3.08,3.08,0,0,1-2.94-2.24,13.8,13.8,0,0,0-1.68.83,41,41,0,0,1,9,22.56h.14a3.06,3.06,0,0,1,2.93,2.23,13.79,13.79,0,0,0,4-2.49,3,3,0,0,1,2-5.32,3.15,3.15,0,0,1,1.51.39,13.74,13.74,0,0,0,1.07-4.6h-.17a3,3,0,0,1-.82-6,14,14,0,0,0-2.5-4,3.07,3.07,0,0,1-2.29,1,3,3,0,0,1-1.76-.57,3.06,3.06,0,0,1-.88-4,13.74,13.74,0,0,0-4.6-1.07m.9,1.09a13.48,13.48,0,0,1,2.42.56,4,4,0,0,0,3.92,5,4.17,4.17,0,0,0,2.16-.61,13,13,0,0,1,1.31,2.1,4,4,0,0,0,1.22,7.38,13.18,13.18,0,0,1-.56,2.41,4.2,4.2,0,0,0-.93-.1,4,4,0,0,0-3.43,6.18,11.71,11.71,0,0,1-2.1,1.31,4.08,4.08,0,0,0-2.65-1.83,41.79,41.79,0,0,0-7.25-19.74,4,4,0,0,0,1.95.51,3.68,3.68,0,0,0,.66-.06,4,4,0,0,0,3.28-3.08"/>
      <path class="cls-4" d="M33.23,33.34a3,3,0,0,1-2.55,3.18,2.74,2.74,0,0,1-.5,0,3,3,0,0,1-2.93-2.23,13.68,13.68,0,0,0-4,2.5,3,3,0,0,1-3.53,4.92,13.82,13.82,0,0,0-1.07,4.6h.17a3,3,0,0,1,.82,6,13.68,13.68,0,0,0,2.5,4,3.1,3.1,0,0,1,2.28-1,3,3,0,0,1,2.65,4.55,12.77,12.77,0,0,0,1.77.61,41,41,0,0,1,9.59-22.32,3.07,3.07,0,0,1-.59-3.75,13.77,13.77,0,0,0-4.6-1.07m.9,1.09a12.41,12.41,0,0,1,2.41.56,4,4,0,0,0,.58,3.17,41.79,41.79,0,0,0-8.83,19.07,4,4,0,0,0-1.53-2.15,4,4,0,0,0-2.35-.76,4.07,4.07,0,0,0-2.15.62A13,13,0,0,1,21,52.83a4,4,0,0,0-1.22-7.38A13.18,13.18,0,0,1,20.29,43a4,4,0,0,0,4.22-1.58,4,4,0,0,0,.13-4.5,12.79,12.79,0,0,1,2.11-1.31,4.07,4.07,0,0,0,3.43,1.91,3.78,3.78,0,0,0,.67-.05,4,4,0,0,0,3.28-3.08"/>
      <path class="cls-3" d="M56.13,103.23c-.06.22-.12.44-.17.67a3.19,3.19,0,0,1,0,6.35,14.32,14.32,0,0,0,1.9,4.57,3.23,3.23,0,0,1,2-.71,3.13,3.13,0,0,1,2.25.94,3.19,3.19,0,0,1,.23,4.26,14.17,14.17,0,0,0,4.57,1.89,3.21,3.21,0,0,1,3.18-2.86h0a3.21,3.21,0,0,1,3.18,2.86,14.51,14.51,0,0,0,4.57-1.9,3.19,3.19,0,0,1,.22-4.26,3.15,3.15,0,0,1,2.25-.94,3.2,3.2,0,0,1,2,.71,14.47,14.47,0,0,0,1.9-4.58,3.19,3.19,0,0,1,0-6.35c0-.18-.09-.37-.13-.55a47.31,47.31,0,0,1-13.8,2.06h0a47.24,47.24,0,0,1-14.14-2.16"/>
      <path class="cls-4" d="M57.9,103.92l-.15.58a2.79,2.79,0,0,1,0,5.55,12.36,12.36,0,0,0,1.66,4,2.8,2.8,0,0,1,1.76-.62,2.73,2.73,0,0,1,2,.82,2.79,2.79,0,0,1,.2,3.72,12.73,12.73,0,0,0,4,1.66,2.78,2.78,0,0,1,2.77-2.5h0a2.79,2.79,0,0,1,2.77,2.49,12.5,12.5,0,0,0,4-1.66A2.79,2.79,0,0,1,79,113.41a2.84,2.84,0,0,1,1.76.62,12.71,12.71,0,0,0,1.65-4,2.78,2.78,0,0,1,0-5.54l-.12-.49a41,41,0,0,1-12,1.8h0a41.31,41.31,0,0,1-12.35-1.88m3,1.85a42.7,42.7,0,0,0,18.28.08,3.85,3.85,0,0,0-.27,1.41,3.79,3.79,0,0,0,2.28,3.47,11.36,11.36,0,0,1-.81,1.94,3.84,3.84,0,0,0-1.38-.26,3.78,3.78,0,0,0-3.52,5.18,12.18,12.18,0,0,1-1.94.8,3.78,3.78,0,0,0-6.94,0,11.36,11.36,0,0,1-1.94-.81,3.79,3.79,0,0,0-3.52-5.17,4,4,0,0,0-1.4.27,12.18,12.18,0,0,1-.8-1.94,3.8,3.8,0,0,0,2-5"/>
      <path class="cls-4" d="M57.87,78a16.86,16.86,0,0,0,11,4.54.59.59,0,0,0,.59-.41h.46a16.92,16.92,0,0,0,12-4.91,5.8,5.8,0,0,1-.52-.34,16.28,16.28,0,0,1-11.43,4.65h0a16.29,16.29,0,0,1-11.6-4.8l-.43.42h0a.6.6,0,0,0,0,.85"/>
      <path class="cls-4" d="M75.86,48.67l-.21.56a16.36,16.36,0,0,1,6,3.83h0a16.34,16.34,0,0,1,4.81,11.6h.59a.58.58,0,0,0,.59-.61,16.86,16.86,0,0,0-4.54-11,.63.63,0,0,0-.44-.19.52.52,0,0,0-.27.07l-.32-.32h0a16.73,16.73,0,0,0-6.21-4"/>
      <path class="cls-4" d="M53.27,64.52a16.33,16.33,0,0,1,4.79-11.37h0a16.31,16.31,0,0,1,5.77-3.74l-.49-1.06a16.93,16.93,0,0,0-5.26,3.35.59.59,0,0,0-.12.71l-.32.31h0a16.9,16.9,0,0,0-5,11.92,6,6,0,0,1,.61-.12"/>
      <path class="cls-4" d="M100.19,31.83a42,42,0,0,0-27.3-11.3,1.48,1.48,0,0,0-1.47,1l-1.12,0h0A42.12,42.12,0,0,0,40.52,33.78q.66.39,1.29.84A40.68,40.68,0,0,1,70.28,23.05h0A40.62,40.62,0,0,1,99.19,35l1-1a1.48,1.48,0,0,0,0-2.13"/>
      <path class="cls-4" d="M27.52,65a1.47,1.47,0,0,0-1.47,1.53,42,42,0,0,0,11.32,27.3,1.49,1.49,0,0,0,1.08.47,1.41,1.41,0,0,0,.69-.17c.25.27.51.54.78.8l0,0a42.07,42.07,0,0,0,15.48,9.87l.51-1.41A40.68,40.68,0,0,1,41,93.84l0,0A40.58,40.58,0,0,1,29,65Zm.5,1A41.54,41.54,0,0,0,38.89,93.08l-.22.12-.22,0a.47.47,0,0,1-.35-.15,41.25,41.25,0,0,1-11-26.66.46.46,0,0,1,.13-.35.47.47,0,0,1,.31-.14H28Z"/>
      <path class="cls-4" d="M113.17,65c-.5.13-1,.24-1.51.32a40.63,40.63,0,0,1-12,28.31l0,0A40.68,40.68,0,0,1,85.34,103l1.21,2.62a42.2,42.2,0,0,0,13.1-8.33,1.49,1.49,0,0,0,.31-1.77l.8-.78,0,0A42.15,42.15,0,0,0,113.17,65M99,95.73l.11.22a.48.48,0,0,1-.1.57,41,41,0,0,1-11.92,7.77l-.36-.79A41.63,41.63,0,0,0,99,95.73"/>
      <path class="cls-3" d="M69.61,35.76h0a27.3,27.3,0,0,0,0,54.59h0a27.3,27.3,0,0,0,0-54.59m0,49.54a22.07,22.07,0,0,1,0-44.14h0a22.07,22.07,0,0,1,0,44.14h0"/>
      <path class="cls-5" d="M69.61,54.22h0a8.84,8.84,0,1,0,0,17.67h0a8.84,8.84,0,0,0,0-17.67m0,16A7.14,7.14,0,1,1,69.6,56h0a7.14,7.14,0,0,1,0,14.28h0"/>
    </g>
  </g>
</svg>
