<svg id="Layer_1" data-name="Layer 1" xmlns="http://www.w3.org/2000/svg" xmlns:xlink="http://www.w3.org/1999/xlink" viewBox="0 0 141.73 141.73">
  <defs>
    <style>
      .cls-1, .cls-4, .cls-6 {
        fill: none;
      }

      .cls-2 {
        clip-path: url(#clip-path);
      }

      .cls-3 {
        fill: #fff;
      }

      .cls-4, .cls-6 {
        stroke: #000;
        stroke-width: 5px;
      }

      .cls-4 {
        stroke-linejoin: round;
      }

      .cls-5 {
        fill: #53bcb5;
      }
    </style>
    <clipPath id="clip-path">
      <rect class="cls-1" width="141.73" height="141.73"/>
    </clipPath>
  </defs>
  <title>icon</title>
  <g class="cls-2">
    <g class="cls-2">
      <path class="cls-3" d="M85.62,87.27a6.21,6.21,0,0,0,5.23,2.63h23.53a6.22,6.22,0,0,0,5.23-2.63,11.81,11.81,0,0,0,2-7.2c0-1.34,0-2.65-.09-3.92s-.19-2.66-.38-4.14-.42-2.85-.71-4.12a24,24,0,0,0-1.16-3.7,13.64,13.64,0,0,0-1.67-3.07,7.19,7.19,0,0,0-2.3-2,6,6,0,0,0-3-.76c-.17,0-.54-1.32-1.14-.78s-1.26,1.15-2,1.82-1.72.75-2.91,1.29a8.29,8.29,0,0,1-7.19,0c-1.2-.54-2.17-.62-2.91-1.29l-2-1.82c-.59-.54-1,.78-1.13.78a6,6,0,0,0-3,.76,7.09,7.09,0,0,0-2.3,2A13.64,13.64,0,0,0,86,64.19a24,24,0,0,0-1.16,3.7A40.42,40.42,0,0,0,84.13,72c-.19,1.48-.32,2.86-.38,4.14s-.1,2.58-.1,3.92a11.81,11.81,0,0,0,2,7.2"/>
      <path class="cls-4" d="M85.62,87.27a6.21,6.21,0,0,0,5.23,2.63h23.53a6.22,6.22,0,0,0,5.23-2.63,11.81,11.81,0,0,0,2-7.2c0-1.34,0-2.65-.09-3.92s-.19-2.66-.38-4.14-.42-2.85-.71-4.12a24,24,0,0,0-1.16-3.7,13.64,13.64,0,0,0-1.67-3.07,7.19,7.19,0,0,0-2.3-2,6,6,0,0,0-3-.76c-.17,0-.54-1.32-1.14-.78s-1.26,1.15-2,1.82-1.72.75-2.91,1.29a8.29,8.29,0,0,1-7.19,0c-1.2-.54-2.17-.62-2.91-1.29l-2-1.82c-.59-.54-1,.78-1.13.78a6,6,0,0,0-3,.76,7.09,7.09,0,0,0-2.3,2A13.64,13.64,0,0,0,86,64.19a24,24,0,0,0-1.16,3.7A40.42,40.42,0,0,0,84.13,72c-.19,1.48-.32,2.86-.38,4.14s-.1,2.58-.1,3.92A11.81,11.81,0,0,0,85.62,87.27Z"/>
      <path class="cls-3" d="M102.61,62.65a11.51,11.51,0,0,0,11.51-11.51,11.51,11.51,0,1,0-19.64,8.14,11.12,11.12,0,0,0,8.13,3.37"/>
      <path class="cls-4" d="M102.61,62.65a11.51,11.51,0,0,0,11.51-11.51,11.51,11.51,0,1,0-19.64,8.14A11.12,11.12,0,0,0,102.61,62.65Z"/>
      <path class="cls-3" d="M22.12,87.27a6.22,6.22,0,0,0,5.23,2.63H50.89a6.21,6.21,0,0,0,5.22-2.63,11.81,11.81,0,0,0,2-7.2c0-1.34,0-2.65-.1-3.92s-.19-2.66-.37-4.14-.43-2.85-.72-4.12a24,24,0,0,0-1.16-3.7,13.64,13.64,0,0,0-1.67-3.07,7,7,0,0,0-2.3-2,6,6,0,0,0-3-.76c-.16,0-.54-1.32-1.13-.78s-1.26,1.15-2,1.82-1.71.75-2.91,1.29a8.29,8.29,0,0,1-7.19,0c-1.19-.54-2.16-.62-2.91-1.29s-1.41-1.27-2-1.82-1,.78-1.13.78a6,6,0,0,0-3,.76,7.19,7.19,0,0,0-2.3,2,14,14,0,0,0-1.67,3.07,25.19,25.19,0,0,0-1.16,3.7c-.28,1.27-.52,2.64-.71,4.12s-.31,2.86-.38,4.14-.09,2.58-.09,3.92a11.81,11.81,0,0,0,2,7.2"/>
      <path class="cls-4" d="M22.12,87.27a6.22,6.22,0,0,0,5.23,2.63H50.89a6.21,6.21,0,0,0,5.22-2.63,11.81,11.81,0,0,0,2-7.2c0-1.34,0-2.65-.1-3.92s-.19-2.66-.37-4.14-.43-2.85-.72-4.12a24,24,0,0,0-1.16-3.7,13.64,13.64,0,0,0-1.67-3.07,7,7,0,0,0-2.3-2,6,6,0,0,0-3-.76c-.16,0-.54-1.32-1.13-.78s-1.26,1.15-2,1.82-1.71.75-2.91,1.29a8.29,8.29,0,0,1-7.19,0c-1.19-.54-2.16-.62-2.91-1.29s-1.41-1.27-2-1.82-1,.78-1.13.78a6,6,0,0,0-3,.76,7.19,7.19,0,0,0-2.3,2,14,14,0,0,0-1.67,3.07,25.19,25.19,0,0,0-1.16,3.7c-.28,1.27-.52,2.64-.71,4.12s-.31,2.86-.38,4.14-.09,2.58-.09,3.92A11.81,11.81,0,0,0,22.12,87.27Z"/>
      <path class="cls-3" d="M39.12,62.65a11.51,11.51,0,0,0,11.5-11.51,11.51,11.51,0,0,0-11.5-11.5,11.52,11.52,0,0,0-11.51,11.5A11.52,11.52,0,0,0,39.12,62.65"/>
      <path class="cls-4" d="M39.12,62.65a11.51,11.51,0,0,0,11.5-11.51,11.51,11.51,0,0,0-11.5-11.5,11.52,11.52,0,0,0-11.51,11.5A11.52,11.52,0,0,0,39.12,62.65Z"/>
      <path class="cls-3" d="M48.21,100.86a8.28,8.28,0,0,0,7,3.52H86.56a8.27,8.27,0,0,0,7-3.52q2.63-3.52,2.63-9.59c0-1.79-.05-3.53-.13-5.24s-.25-3.54-.5-5.51-.57-3.8-1-5.49A32.9,32.9,0,0,0,93,70.09,18.48,18.48,0,0,0,90.8,66a9.7,9.7,0,0,0-3.07-2.71,8,8,0,0,0-4-1c-.21,0-.72-1.77-1.51-1l-2.67,2.43c-1,.89-2.29,1-3.88,1.72a11.09,11.09,0,0,1-9.59,0c-1.59-.73-2.88-.83-3.88-1.72l-2.67-2.43c-.79-.73-1.29,1-1.51,1a8,8,0,0,0-4,1A9.59,9.59,0,0,0,50.94,66a18.49,18.49,0,0,0-2.23,4.09A31.75,31.75,0,0,0,47.17,75a55.18,55.18,0,0,0-1,5.49c-.26,2-.42,3.81-.51,5.51s-.12,3.45-.12,5.24q0,6.08,2.62,9.59"/>
      <path class="cls-4" d="M48.21,100.86a8.28,8.28,0,0,0,7,3.52H86.56a8.27,8.27,0,0,0,7-3.52q2.63-3.52,2.63-9.59c0-1.79-.05-3.53-.13-5.24s-.25-3.54-.5-5.51-.57-3.8-1-5.49A32.9,32.9,0,0,0,93,70.09,18.48,18.48,0,0,0,90.8,66a9.7,9.7,0,0,0-3.07-2.71,8,8,0,0,0-4-1c-.21,0-.72-1.77-1.51-1l-2.67,2.43c-1,.89-2.29,1-3.88,1.72a11.09,11.09,0,0,1-9.59,0c-1.59-.73-2.88-.83-3.88-1.72l-2.67-2.43c-.79-.73-1.29,1-1.51,1a8,8,0,0,0-4,1A9.59,9.59,0,0,0,50.94,66a18.49,18.49,0,0,0-2.23,4.09A31.75,31.75,0,0,0,47.17,75a55.18,55.18,0,0,0-1,5.49c-.26,2-.42,3.81-.51,5.51s-.12,3.45-.12,5.24Q45.59,97.35,48.21,100.86Z"/>
      <path class="cls-5" d="M70.87,68A15.33,15.33,0,0,0,86.2,52.69,15.33,15.33,0,0,0,70.87,37.36,15.33,15.33,0,0,0,55.53,52.69,15.33,15.33,0,0,0,70.87,68"/>
      <path class="cls-6" d="M70.87,68A15.33,15.33,0,0,0,86.2,52.69,15.33,15.33,0,0,0,70.87,37.36,15.33,15.33,0,0,0,55.53,52.69,15.33,15.33,0,0,0,70.87,68Z"/>
    </g>
  </g>
</svg>
