<svg id="Layer_1" data-name="Layer 1" xmlns="http://www.w3.org/2000/svg" xmlns:xlink="http://www.w3.org/1999/xlink" viewBox="0 0 141.73 141.73">
  <defs>
    <style>
      .cls-1 {
        fill: none;
      }

      .cls-2 {
        clip-path: url(#clip-path);
      }

      .cls-3 {
        fill: #74c29f;
      }
    </style>
    <clipPath id="clip-path">
      <rect class="cls-1" width="141.73" height="141.73"/>
    </clipPath>
  </defs>
  <title>icon</title>
  <g class="cls-2">
    <polygon class="cls-3" points="63.21 79.09 60.38 82.2 65.2 89.29 69.45 86.17 63.21 79.09"/>
    <polygon class="cls-3" points="71.43 84.19 79.65 79.09 81.35 83.05 76.82 89.29 74.55 89.29 71.43 84.19"/>
    <g class="cls-2">
      <path d="M97.7,80.53a6.6,6.6,0,0,1-5.48-6.27,14.43,14.43,0,0,0-.91-5.09,4.79,4.79,0,0,1,4-6.53c3.35-.26,6.73-.12,10.09-.17.74,0,1,.32,1,1s0,1.55,0,2.32c-.32,3.53-1.16,7-1.75,10.47-.48,2.89-3.85,4.65-6.89,4.26m1.39,5.52c-.58.68-1,.12-1.35-.25-.55-.58-1.53-1-1.39-1.93.11-.74.91-.34,1.41-.36,1,0,2.07,0,3.41,0-.48,1.27-1.43,1.79-2.08,2.55M76.16,87c-.85.79-1.34-.75-2-1.2s-.77-.86-.08-1.34c1.33-.91,2.63-1.86,4-2.72.86-.53,1.07.14,1.25,1A26,26,0,0,1,76.16,87m-4.3-4.74a1.44,1.44,0,0,1-1.9.07C68.37,81.15,66.76,80,65.12,79a1.38,1.38,0,0,1-.71-1.39c0-.48.38-.5.44-.49a28,28,0,0,0,3.7,1.06,13,13,0,0,0,7.21-.69c.52-.23,1.14-.62,1.47,0s-.1,1.15-.7,1.54c-1.58,1-3.13,2.11-4.67,3.19m-6.12,5.21c-1-1.46-1.94-2.91-2.89-4.36-.28-.43-.44-.87,0-1.33s.88,0,1.25.24c.6.36,1.15.81,1.73,1.2,2.93,2,2.93,2-.1,4.25M59.37,64.69c-.16-4.43-1.79-8.62-1.55-13.09.26-4.75,3.5-8.45,8.21-8.77,2.87-.19,5.75,0,8.63,0v-.11c2.53,0,5.06.06,7.58,0,1.23,0,1.77.18,1.69,1.57-.31,5.15.58,10.36-1.06,15.45-.53,1.62-.27,3.48-.44,5.22A11.32,11.32,0,0,1,70.91,75.18c-6.1-.06-11.32-4.57-11.54-10.49M48,82.52c-.3.06-.71-.12-.55-.34a19.7,19.7,0,0,1,2.46-2.92c.28-.26.57.43.61.82.07.7-1.66,2.35-2.52,2.44m-.64-5.08a6.63,6.63,0,0,1-6.87,3,6.79,6.79,0,0,1-4.95-5.18,4.27,4.27,0,0,0-1.16-2.53c-1.13-1.18-.21-2.81.07-4.19a7.71,7.71,0,0,1,8.64-6c3.67.58,6.77,4.8,6.27,8.78a15.89,15.89,0,0,0-7.64-3.78C39,67.07,37,68,35.8,70.41a1.34,1.34,0,0,0,.3,1.88,1.88,1.88,0,0,0,2.16-.19c.87-.55,1.18-1.91,2.73-1.48,2.39.65,4.78,1.13,6.37,3.3a2.92,2.92,0,0,1,0,3.52m-5.53,9.48c-1.22,0-2.59-.61-2.6-2.16,0-2.08,1.68-1,2.65-1.3.81.49,2.41-1,2.51,1.06a2.25,2.25,0,0,1-2.56,2.4M33.56,79l2.95,3.26c-2.92-.41-3.67-1.36-2.95-3.26m79.79,15.32c0-7.69-.32-8.12-7.58-10.31-2-.61-2.28-1.38-.82-2.82a9.53,9.53,0,0,0,3-7.15,4.87,4.87,0,0,1,.22-2.07c1.63-3.24,1.18-6.71,1.26-10.14,0-1.68-.67-2.41-2.4-2.39-3.86.07-7.73,0-11.59,0S88.22,63.05,88,66.94c-.14,2,1.06,3.64,1.16,5.47.19,3.48.78,6.66,3.64,9,.72.58,1,1.6,0,2.12s-2.21,1.21-3.39.78c-2.88-1.06-6-1.58-8-4.49-1.38-2-1.65-4.21,0-6A13.21,13.21,0,0,0,85.2,67c.57-3.36.55-6.77,1.34-10.16,1.16-4.95.34-10.08.45-15.13,0-1.63-1.11-2-2.59-2-6,.05-12,0-17.92,0a10.86,10.86,0,0,0-7,2.55c-4.6,3.71-6.12,10.12-4,16.52A8.56,8.56,0,0,1,56.22,62a15.41,15.41,0,0,0,4.43,12,4,4,0,0,1,.45,4.7c-2,3.81-5.69,4.86-9.86,5.64C52.32,82.8,54.38,82,53.69,80c-1-3.06-1-6.2-1.14-9.36-.17-5.9-4.41-10.81-9.5-11.1-6.39-.37-10.84,3.43-11.86,9.93-.49,3.13.13,6.4-1,9.39-.82,2.26.1,3.61,1.63,4.9.63.53,1.33,1,2.26,1.67-3.34,1.14-5.64,2.8-5.7,6.32-.05,2.74-.05,5.48,0,8.22,0,1.06.34,2.13,1.56,2.14s1.41-1.1,1.4-2.16c0-2.46,0-4.92,0-7.38A4.12,4.12,0,0,1,34,88.62c1.58-.8,2.85-1.24,4.5.18,2.22,1.9,4.33,1.69,6.71,0,.4-.28.75-.63,1.15-.91a.74.74,0,0,1,1,0,1,1,0,0,1,.08.77c-1,3.81-.2,7.69-.44,11.52-.07,1,.29,1.89,1.42,1.94s1.48-.93,1.52-1.87c.08-1.61.05-3.23,0-4.85-.06-7.23-.39-6.57,6.5-9.23,3.71-1.43,3.75-1.35,6,2,.24.35.43.73.68,1.07,1.37,1.87,3.06,2.08,4.88.65.36-.28.55-.86,1.21-.74.37.64.14,1.34.15,2,0,3,0,6,0,9.07,0,1,.37,1.9,1.55,1.87s1.45-.92,1.42-2c0-.63,0-1.26,0-1.89V88.74c.54.38.76.51,1,.68,2.24,2,3.84,1.78,5.53-.69a32.35,32.35,0,0,0,1.86-2.8,1.47,1.47,0,0,1,2.09-.73c2.09.8,4.18,1.6,6.28,2.38a3.78,3.78,0,0,1,2.7,4c-.05,2.74,0,5.48,0,8.22,0,1.11.22,2.26,1.65,2.21s1.38-1.18,1.31-2.21c-.3-4.4.87-8.9-.9-13.27,1.7,1.31,3.52,2.34,3.29,5a79,79,0,0,0,0,8.43c0,1,.29,2.12,1.6,2,1.11-.08,1.37-1,1.36-2,0-2.88,0-5.76,0-8.64,0-3.31,2.15-5,5.32-4.2.68.17,1.35.38,2,.51a3.31,3.31,0,0,1,3,3.69c0,2.89,0,5.77,0,8.65,0,1.14.3,2,1.55,2s1.37-1.09,1.4-2c.06-1.89,0-3.79,0-5.69"/>
      <path d="M107.9,96.77c0,1.26,0,2.52,0,3.77,0,.89-.43,1.52-1.35,1.53s-1.36-.58-1.37-1.49c0-2.59,0-5.17,0-7.76,0-.88.35-1.46,1.35-1.47s1.39.56,1.41,1.44c0,1.33,0,2.65,0,4h0"/>
      <path d="M83.94,97.83c0-.84-.06-1.68,0-2.51A1.32,1.32,0,0,1,85.28,94a1.41,1.41,0,0,1,1.64,1.27,44.55,44.55,0,0,1,0,5.42,1.43,1.43,0,0,1-1.55,1.4,1.47,1.47,0,0,1-1.44-1.52c-.06-.9,0-1.81,0-2.71h0"/>
      <path d="M54.74,97.85a17.37,17.37,0,0,1,0-2.5A1.47,1.47,0,0,1,56.33,94a1.36,1.36,0,0,1,1.46,1.45c.06,1.67,0,3.34,0,5a1.48,1.48,0,0,1-1.32,1.63,1.54,1.54,0,0,1-1.7-1.49,20.54,20.54,0,0,1,0-2.72h0"/>
      <path d="M36.54,97.59v3.13A1.18,1.18,0,0,1,35.26,102a1.21,1.21,0,0,1-1.39-1.22c0-2.22,0-4.45,0-6.67a1.35,1.35,0,0,1,2.69.1c0,1.11,0,2.23,0,3.34h0"/>
      <path d="M68.86,51.23c3.36-.2,6.74-.29,9.8,1.45a11.79,11.79,0,0,1,2.2,1.58,1.57,1.57,0,0,1,.38,2.25,1.55,1.55,0,0,1-2.25.15c-4.59-3.3-9.71-3-14.91-2.37-.82.1-1.09.34-1,1.13A7.88,7.88,0,0,1,63,57.3a1.37,1.37,0,0,1-1.35,1.13,1.47,1.47,0,0,1-1.35-.84,4.22,4.22,0,0,1,3.33-6.34c1.74-.11,3.5,0,5.25,0"/>
      <path d="M96.68,66.23a15.44,15.44,0,0,1,5.74,1c1,.35,1.91.85,1.5,2.06s-1.36,1.31-2.42.87c-2-.81-4.08-.85-6.15-1.17-1-.16-2.25-.15-2-1.73.22-1.34,1.28-1.25,2.29-1.15l1,.11"/>
    </g>
  </g>
</svg>
