<svg id="Layer_1" data-name="Layer 1" xmlns="http://www.w3.org/2000/svg" xmlns:xlink="http://www.w3.org/1999/xlink" viewBox="0 0 141.73 141.73">
  <defs>
    <style>
      .cls-1 {
        fill: none;
      }

      .cls-2 {
        clip-path: url(#clip-path);
      }

      .cls-3 {
        fill: #fff;
      }

      .cls-4 {
        fill: #030303;
      }

      .cls-5 {
        fill: #fefeff;
      }

      .cls-6 {
        fill: #f7f7f7;
      }

      .cls-7 {
        fill: #c2c2c1;
      }

      .cls-8 {
        fill: #d9d9d8;
      }

      .cls-9 {
        fill: #f2f3f3;
      }

      .cls-10 {
        fill: #0b0b0b;
      }

      .cls-11 {
        fill: #4091c3;
      }
    </style>
    <clipPath id="clip-path">
      <rect class="cls-1" width="141.73" height="141.73"/>
    </clipPath>
  </defs>
  <title>icon</title>
  <g class="cls-2">
    <g class="cls-2">
      <path class="cls-3" d="M14.06,70.87c0-19.88,0-39.76-.05-59.64,0-1.77.36-2.12,2.12-2.12q57.57.09,115.14,0c1.76,0,2.12.35,2.12,2.12q-.09,59.64,0,119.27c0,1.77-.36,2.12-2.12,2.12q-57.57-.09-115.14,0c-1.76,0-2.12-.35-2.12-2.12.08-19.87.05-39.75.05-59.63"/>
      <path class="cls-4" d="M42.17,111.13c-3.05,0-6.1,0-9.15,0-1.7,0-2.4-.49-2.47-2.35-.2-4.94,1.45-8.87,5.71-11.5,1-.59,1.27-.89.55-2-1.62-2.38-1.34-5.11-.84-7.7a5.7,5.7,0,0,1,5-4.72,6.16,6.16,0,0,1,6.74,3.15c1.36,2.28,3.57,2.58,5.55.75s3.88-2,5.93-.09,4.12,1.68,5.71-.85A7.71,7.71,0,0,1,68,83.23c1.81-1,1.55-2.44.23-3.46s-2.6-2.08-2.85-3.89a.77.77,0,0,0-.75-.75c-2.27-.09-2-1.74-2-3.2,0-1.17,0-2.2-1.63-2-.79.1-1-.48-1-1.14s0-1.44,1-1.41c2.07,0,1.59-1.29,1.24-2.4-.67-2.12-2.19-3.64-3.73-5.19a16.41,16.41,0,0,1-2.48-20.32C60,33,68,29.75,74.92,31.84a16.75,16.75,0,0,1,12.29,17A16.39,16.39,0,0,1,82,60.1,10.31,10.31,0,0,0,79,64c-.5,1.45-2,3.25,1.21,3.45.67,0,.61.66.6,1.13s.12,1.22-.73,1.36c-.56.08-1.11.22-1.67.34.71,2.89-1.52,4.36-2.92,6.3a10.63,10.63,0,0,1-2.38,2.89c-1.89,1.32-1.84,2.83.12,3.93A7.45,7.45,0,0,1,76,85.94c1.56,2.48,3.57,2.76,5.73.75,1.91-1.78,3.81-1.8,5.74,0,2.22,2,4.23,1.81,5.72-.63a6.26,6.26,0,0,1,7.07-3,6,6,0,0,1,4.86,5.59c.15,1.55.52,3.5-.21,4.63-1.91,3-.09,4.13,1.87,5.78,3.21,2.7,3.77,6.49,3.55,10.48-.07,1.33-.81,1.66-1.92,1.66-6.39,0-12.78,0-19.18,0-1.51,0-2-.67-2-2.16-.26-4.92,1.26-8.94,5.56-11.56,1.31-.8,1.3-1.34.48-2.44a5.69,5.69,0,0,1-.71-2.21,2.71,2.71,0,0,0-4.59-1.56c-3,2.53-3.54,2.53-6.64,0-1.79-1.47-3.66-.46-4.63,1.63-1.38,3-.56,4.48,1.94,6.38,3.33,2.53,3.64,6.53,3.36,10.5-.1,1.42-1.12,1.42-2.12,1.42-6.29,0-12.59,0-18.88,0-1.49,0-2-.62-2.07-2.13-.28-4.91,1.22-8.94,5.51-11.58,1.28-.79,1.38-1.29.5-2.42a9.05,9.05,0,0,1-.76-2.2c-.3-.73.38-2.08-.94-2.13s-2.58-.54-3.82.74c-2.24,2.32-3.93,2.31-6.22,0-1.24-1.27-2.57-.76-3.82-.71s-.55,1.45-1,2.15c-1.58,2.76-.73,4.42,1.84,6.33,3.32,2.47,3.72,6.49,3.44,10.47-.12,1.61-1.29,1.48-2.36,1.49-3,0-6.1,0-9.15,0"/>
      <path class="cls-5" d="M70.41,67.37a8,8,0,0,0-1.47,0c-2.62.51-3.82-.51-4.24-3.19-.39-2.49-2.24-4.26-4-6a13.91,13.91,0,0,1-3.1-15.94A14.17,14.17,0,0,1,71.87,34,13.77,13.77,0,0,1,84,44a13.55,13.55,0,0,1-3.84,14.25c-1.78,1.73-3.64,3.49-4,6-.39,2.75-1.72,3.59-4.27,3.11a8,8,0,0,0-1.47,0"/>
      <path class="cls-5" d="M51.15,107c0,.69.09,1.44-.94,1.45-.78,0-1.69.16-1.64-1,0-1-.33-1.4-1.36-1.36-.86,0-1.3.33-1.21,1.2.13,1.15-.55,1.25-1.44,1.23-1.57,0-3.14,0-4.7,0-1,0-1.76-.06-1.62-1.37.11-1-.59-1-1.33-1.07s-1.26.33-1.19,1.2c.09,1.12-.62,1.24-1.5,1.23s-1.11-.44-1.15-1.28c-.23-4.38,4.13-8.79,8.83-8.87,4.94-.08,9.38,4.08,9.25,8.68"/>
      <path class="cls-5" d="M98.78,98.28a9.18,9.18,0,0,1,9.06,8.63c0,.68.15,1.47-.88,1.49-.73,0-1.71.28-1.71-1,0-.9-.16-1.46-1.28-1.44s-1.38.47-1.31,1.42-.65,1-1.36,1c-1.66,0-3.33,0-5,0-1,0-1.5-.21-1.38-1.29S94.49,106,93.66,106s-1.34.17-1.25,1.12c.12,1.35-.79,1.37-1.73,1.29-1.24-.11-.9-1.07-.87-1.79a9,9,0,0,1,9-8.34"/>
      <path class="cls-5" d="M79.48,106.89c0,.67.19,1.47-.84,1.51-.74,0-1.7.27-1.7-1,0-.9-.18-1.46-1.29-1.43s-1.41.43-1.33,1.41-.62,1-1.34,1c-1.66,0-3.33,0-5,0-.93,0-1.53-.17-1.42-1.28.09-.9-.41-1.17-1.25-1.16s-1.37.13-1.28,1.1c.11,1.32-.74,1.41-1.7,1.31-1.24-.12-.91-1-.86-1.78a9,9,0,0,1,18,.26"/>
      <path class="cls-5" d="M46,90.63c0,3.41-1.29,5-4,4.91s-3.77-1.7-3.76-5.14c0-3.17,1.54-5.06,4-5S46,87.25,46,90.63"/>
      <path class="cls-5" d="M66.58,90.38c0-3.19,1.54-5.06,4-5s3.75,1.9,3.73,5.25-1.32,5-4,4.88-3.76-1.7-3.74-5.16"/>
      <path class="cls-5" d="M102.66,90.58c0,3.36-1.3,5-3.93,5s-3.81-1.62-3.8-5.09c0-3.26,1.43-5.09,3.93-5s3.81,1.93,3.8,5.18"/>
      <path class="cls-6" d="M70.61,70c1.18,0,2.36,0,3.54,0,1,0,1.42.25,1.4,1.31s-.46,1.15-1.26,1.15c-2.56,0-5.11,0-7.67,0-.81,0-1.23-.22-1.25-1.16s.45-1.34,1.41-1.31c1.28.06,2.56,0,3.83,0"/>
      <path class="cls-7" d="M73,75.67a2.53,2.53,0,0,1-2.68,2c-1.2-.06-2.35-.77-2.22-1.83.22-1.69,1.85-.66,2.83-.83.7-.12,1.74-.38,2.07.67"/>
      <path class="cls-8" d="M57.59,89.23c-.14.74-.59,1.32-1.32,1.29a1.23,1.23,0,0,1-1.19-1.37,1.1,1.1,0,0,1,1.13-1.1,1.25,1.25,0,0,1,1.38,1.18"/>
      <path class="cls-9" d="M84.55,88.08a1.16,1.16,0,0,1,1.26,1,1.2,1.2,0,1,1-2.37.15c0-.69.49-1,1.11-1.11"/>
      <path class="cls-4" d="M77.69,42.5a10.2,10.2,0,0,0-1,1.14c-1,1.62-.69,2.81,1.28,3.1,1,.14,1.64.23,1.59,1.48s-.85,1-1.61,1.14c-2,.34-2.4,1.48-1.21,3.06.56.75,1.18,1.23.16,2.13-.8.7-1.21.47-1.93-.13-1.61-1.32-2.82-.89-3.11,1.19-.13,1-.32,1.38-1.35,1.41-1.23,0-1.32-.57-1.48-1.59-.3-2-1.44-2.46-3-1.08-.64.55-1,1.06-1.91.26s-.67-1.28,0-2.14c1.25-1.63.8-2.87-1.33-3.1-1-.11-1.4-.32-1.4-1.37s.71-1.1,1.53-1.25c2.15-.4,2.43-1.69,1.16-3.27-.57-.72-.92-1.13-.11-1.87s1.14-.75,2-.06c1.63,1.39,2.89,1.05,3.15-1.21.11-1,.37-1.43,1.38-1.43s1.33.39,1.43,1.39c.22,2.25,1.44,2.56,3.14,1.29.59-.45,1-.93,1.7-.2.33.35.64.71,1,1.11"/>
      <path class="cls-10" d="M70.49,64.83c-.84-.49-2.54.84-2.62-1.29s1.59-1.34,2.52-1.31S73,61.3,73.06,63.4s-1.61,1.05-2.57,1.43"/>
      <path class="cls-11" d="M74.31,48a3.73,3.73,0,0,1-4,3.74A3.52,3.52,0,0,1,66.66,48c0-2.25,1.46-3.58,3.68-3.81a3.94,3.94,0,0,1,4,3.85"/>
    </g>
  </g>
</svg>
