<svg id="Layer_1" data-name="Layer 1" xmlns="http://www.w3.org/2000/svg" xmlns:xlink="http://www.w3.org/1999/xlink" viewBox="0 0 141.73 141.73">
  <defs>
    <style>
      .cls-1 {
        fill: none;
      }

      .cls-2 {
        clip-path: url(#clip-path);
      }

      .cls-3 {
        fill: #74c29f;
      }

      .cls-4 {
        fill: #fff;
      }

      .cls-5 {
        fill: #141310;
      }
    </style>
    <clipPath id="clip-path">
      <rect class="cls-1" width="141.73" height="141.73"/>
    </clipPath>
  </defs>
  <title>icon</title>
  <g class="cls-2">
    <polygon class="cls-3" points="47.98 27.98 47.98 37.19 38.77 37.19 47.98 27.98"/>
    <g class="cls-2">
      <path class="cls-4" d="M64.13,69.83a1.56,1.56,0,0,0-1.55-1.56H45.39a1.56,1.56,0,1,0,0,3.11H62.58a1.55,1.55,0,0,0,1.55-1.55m0-8.29A1.55,1.55,0,0,0,62.58,60H45.39a1.55,1.55,0,1,0,0,3.1H62.58a1.55,1.55,0,0,0,1.55-1.55m0,41.45V92.63a1.56,1.56,0,1,0-3.11,0v8.81H46.94V88H62.58a1.56,1.56,0,0,0,0-3.11H45.39a1.55,1.55,0,0,0-1.56,1.55V103a1.56,1.56,0,0,0,1.56,1.56H62.58A1.56,1.56,0,0,0,64.13,103m15.12,0a1.55,1.55,0,0,0-1.56-1.55H70.87a1.56,1.56,0,1,0,0,3.11h6.82A1.56,1.56,0,0,0,79.25,103M89.61,94.7a1.55,1.55,0,0,0-1.55-1.55H70.87a1.55,1.55,0,1,0,0,3.1H88.06a1.55,1.55,0,0,0,1.55-1.55m0-8.29a1.55,1.55,0,0,0-1.55-1.55H70.87a1.56,1.56,0,1,0,0,3.11H88.06a1.56,1.56,0,0,0,1.55-1.56m0-8.29a1.56,1.56,0,0,0-1.55-1.56H45.39a1.56,1.56,0,1,0,0,3.11H88.06a1.55,1.55,0,0,0,1.55-1.55m0-8.29a1.56,1.56,0,0,0-1.55-1.56H70.87a1.56,1.56,0,1,0,0,3.11H88.06a1.55,1.55,0,0,0,1.55-1.55m0-8.29A1.55,1.55,0,0,0,88.06,60H70.87a1.55,1.55,0,1,0,0,3.1H88.06a1.55,1.55,0,0,0,1.55-1.55m0-8.29a1.56,1.56,0,0,0-1.55-1.56H45.39a1.56,1.56,0,1,0,0,3.11H88.06a1.55,1.55,0,0,0,1.55-1.55m0-14.51a1.55,1.55,0,0,0-1.55-1.55H55.75a1.55,1.55,0,1,0,0,3.1H88.06a1.55,1.55,0,0,0,1.55-1.55m7.26-13V116H36.58V40.29h13a1.54,1.54,0,0,0,1.55-1.55v-13Z"/>
      <path class="cls-5" d="M108.26,24.23V117.5a1.54,1.54,0,0,1-1.55,1.55h-2.07a1.55,1.55,0,1,1,0-3.1h.52V25.79h-.52a1.56,1.56,0,1,1,0-3.11h2.07a1.54,1.54,0,0,1,1.55,1.55"/>
      <path class="cls-5" d="M48,37.19V28l-9.21,9.21ZM96.87,116V25.79H51.08v13a1.54,1.54,0,0,1-1.55,1.55h-13V116ZM100,24.23V117.5a1.54,1.54,0,0,1-1.55,1.55H35a1.54,1.54,0,0,1-1.55-1.55V38.74a.92.92,0,0,1,0-.16s0-.07,0-.11,0,0,0,0l0-.13h0a1.12,1.12,0,0,0,0-.13v0a.54.54,0,0,1,0-.11v0l.06-.09,0,0,.07-.08s0,0,0,0l.09-.1h0L48.43,23.13h0l.1-.09,0,0,.1-.07,0,0,.11-.06h0l.11-.05h0l.13,0a0,0,0,0,1,0,0,.7.7,0,0,1,.14,0h0l.12,0h49A1.54,1.54,0,0,1,100,24.23"/>
      <path class="cls-5" d="M88.06,37.19a1.55,1.55,0,0,1,0,3.1H55.75a1.55,1.55,0,1,1,0-3.1Z"/>
      <path class="cls-5" d="M88.06,51.69a1.56,1.56,0,0,1,0,3.11H45.39a1.56,1.56,0,1,1,0-3.11Z"/>
      <path class="cls-5" d="M88.06,60a1.55,1.55,0,0,1,0,3.1H70.87a1.55,1.55,0,1,1,0-3.1Z"/>
      <path class="cls-5" d="M88.06,68.27a1.56,1.56,0,0,1,0,3.11H70.87a1.56,1.56,0,1,1,0-3.11Z"/>
      <path class="cls-5" d="M88.06,76.57a1.56,1.56,0,0,1,0,3.11H45.39a1.56,1.56,0,1,1,0-3.11Z"/>
      <path class="cls-5" d="M88.06,84.86a1.56,1.56,0,0,1,0,3.11H70.87a1.56,1.56,0,1,1,0-3.11Z"/>
      <path class="cls-5" d="M88.06,93.15a1.56,1.56,0,0,1,0,3.11H70.87a1.56,1.56,0,1,1,0-3.11Z"/>
      <path class="cls-5" d="M77.69,101.44a1.56,1.56,0,1,1,0,3.11H70.87a1.56,1.56,0,1,1,0-3.11Z"/>
      <path class="cls-5" d="M64.13,92.63V103a1.56,1.56,0,0,1-1.55,1.56H45.39A1.56,1.56,0,0,1,43.83,103V86.41a1.55,1.55,0,0,1,1.56-1.55H62.58a1.56,1.56,0,0,1,0,3.11H46.94v13.47H61V92.63a1.56,1.56,0,1,1,3.11,0"/>
      <path class="cls-5" d="M62.58,60a1.55,1.55,0,0,1,0,3.1H45.39a1.55,1.55,0,1,1,0-3.1Z"/>
      <path class="cls-5" d="M62.58,68.27a1.56,1.56,0,0,1,0,3.11H45.39a1.56,1.56,0,1,1,0-3.11Z"/>
    </g>
  </g>
</svg>
