<svg id="Layer_1" data-name="Layer 1" xmlns="http://www.w3.org/2000/svg" xmlns:xlink="http://www.w3.org/1999/xlink" viewBox="0 0 141.73 141.73">
  <defs>
    <style>
      .cls-1, .cls-6 {
        fill: none;
      }

      .cls-2 {
        clip-path: url(#clip-path);
      }

      .cls-3 {
        fill: #fff;
      }

      .cls-4 {
        fill: #53bcb5;
      }

      .cls-5 {
        fill: #4091c3;
      }

      .cls-6 {
        stroke: #000;
        stroke-miterlimit: 10;
        stroke-width: 1.1px;
      }
    </style>
    <clipPath id="clip-path">
      <rect class="cls-1" width="141.73" height="141.73"/>
    </clipPath>
  </defs>
  <title>icon</title>
  <g class="cls-2">
    <g class="cls-2">
      <path d="M60.56,89.64l9,5.74c.64.42,1.28.84,1.93,1.23A2.05,2.05,0,0,0,74.32,96q2.12-2.7,4.22-5.42l3.8-4.92a.58.58,0,0,1,.61-.22l16.68,2.18a2.27,2.27,0,0,0,1.72-.31,2,2,0,0,0,.81-2.09q-.91-6-1.85-12c-.37-2.32-.73-4.65-1.1-7a.67.67,0,0,1,.19-.6c1.57-1.7,3.15-3.41,4.71-5.12l5.12-5.64a22.09,22.09,0,0,0,2.08-2.36,1.83,1.83,0,0,0,.08-1.89,1.79,1.79,0,0,0-1.64-1,11,11,0,0,0-2.41.35c-3.76.67-7.52,1.37-11.27,2l-11.65,2.1-10.93,2-11.3,2-11.27,2-10.85,2-11.3,2a3.94,3.94,0,0,0-2,.68,1.7,1.7,0,0,0-.63,1.64c.15,1.11.95,1.59,1.76,2.11l10.52,6.75,10.1,6.48,9.11,5.86.32.21c.89.56,1.77,1.13,2.65,1.7"/>
      <path class="cls-3" d="M38.58,70.89l5.17,3.34,9.17,5.89q4.76,3,9.5,6.1l9.14,5.87c.54.35.54.36.93-.14l5.22-6.71,5.7-7.3c.18-.23.34-.46.51-.69s.49-.61.7-.93.11-.3-.15-.33c-1.17-.14-2.34-.32-3.51-.47-1.38-.17-2.75-.36-4.13-.54l-3.28-.45c-1.39-.19-2.78-.39-4.17-.55-.7-.08-1.39-.19-2.09-.29l-3.51-.47c-.71-.08-1.41-.19-2.12-.29l-3.47-.46c-.74-.09-1.47-.21-2.2-.3-1.14-.15-2.27-.32-3.4-.45l-2.05-.28L47,71l-3.24-.45c-1.07-.14-2.13-.29-3.2-.42-.71-.09-1.42-.18-2.13-.3-.41-.07-.83-.06-1.23-.17-.08,0-.19-.07-.24.06s.06.17.13.22.34.24.52.34c.36.2.68.44,1,.65"/>
      <path class="cls-3" d="M61.78,63.85l22.34-.34c3.87-.06,7.73-.14,11.6-.15.67,0,.9-.46,1.23-.81,1.35-1.43,2.66-2.89,4-4.34l3.1-3.4c0-.05.14-.11.08-.19s-.18-.06-.29,0l-3.45.63-11.3,2L77.74,59.32l-10.92,2L55.51,63.35,53,63.8c-.09,0-.21,0-.26.19l5.57-.08c1.15,0,2.3,0,3.45-.06"/>
      <path class="cls-4" d="M86.1,67.47l-14.88.22-6.89.1c-1.33,0-2.67,0-4,.07l-.28,0c-.56.06-1.12,0-1.68,0s-.88,0-1.32,0l-.31,0c-.08,0-.21,0-.22.11s.12.12.2.14c.54.12,1.08.16,1.62.24l3.29.44c1.14.14,2.27.3,3.41.45l3.17.43,3.36.45,3.13.42c1.42.19,2.83.39,4.25.57.73.09,1.47.19,2.2.3,1.13.16,2.27.31,3.4.45.71.09,1.42.18,2.12.29.54.09,1.08.15,1.63.21a3.14,3.14,0,0,1,1.95.88c1.13,1.14,2.33,2.21,3.48,3.34.92.9,1.86,1.8,2.82,2.67a4.34,4.34,0,0,0,.54.51c.07,0,.13.16.22.09s0-.16,0-.25l-.48-3.08c-.46-3-.94-5.91-1.38-8.88,0-.28-.16-.41-.47-.36a5.23,5.23,0,0,1-1,0c-1.3,0-2.61,0-3.91,0s-2.68,0-4,.07"/>
      <path class="cls-5" d="M94.54,83c-.13-.33-.44-.49-.65-.7-1.16-1.15-2.35-2.27-3.52-3.4-.45-.42-.89-.84-1.32-1.29-.19-.19-.32-.2-.48,0-1,1.31-2,2.63-3,3.94-.19.24-.08.29.14.32l8.72,1.15s.07,0,.14,0"/>
      <path class="cls-6" d="M94.54,83c-.13-.33-.44-.49-.65-.7-1.16-1.15-2.35-2.27-3.52-3.4-.45-.42-.89-.84-1.32-1.29-.19-.19-.32-.2-.48,0-1,1.31-2,2.63-3,3.94-.19.24-.08.29.14.32l8.72,1.15S94.47,83.05,94.54,83Z"/>
    </g>
  </g>
</svg>
