<svg id="Layer_1" data-name="Layer 1" xmlns="http://www.w3.org/2000/svg" xmlns:xlink="http://www.w3.org/1999/xlink" viewBox="0 0 141.73 141.73">
  <defs>
    <style>
      .cls-1 {
        fill: none;
      }

      .cls-2 {
        clip-path: url(#clip-path);
      }

      .cls-3 {
        fill: #26bade;
      }
    </style>
    <clipPath id="clip-path">
      <rect class="cls-1" width="141.73" height="141.73"/>
    </clipPath>
  </defs>
  <title>icon</title>
  <g class="cls-2">
    <polygon class="cls-3" points="106.87 55.27 106.87 60.38 70.87 74.27 34.02 59.81 34.87 55.27 72 68.88 106.87 55.27"/>
    <g class="cls-2">
      <path d="M104.9,59.65Q98.56,62,92.2,64.37c-.47.17-1.13.76-1.39,0a1.39,1.39,0,0,1,.85-2c3.15-1.13,6.27-2.34,9.4-3.52,1.27-.47,2.55-.93,3.82-1.42.76-.29,1.22-.21,1.16.77.16.87-.48,1.17-1.14,1.42m-11,20.23c0,2.83-.07,2.93-3.16,4.35,0-5.23,0-10.26,0-15.29,0-1.77,1.57-1.73,2.52-1.83,1.12-.12.61,1.13.62,1.74.06,3.68,0,7.35,0,11M91.22,97.47A1.53,1.53,0,0,1,89.64,99a1.6,1.6,0,0,1-1.73-1.74,1.51,1.51,0,0,1,1.58-1.68c1.08,0,1.72.57,1.73,1.9M86.64,66.59c-4.33,1.53-8.6,3.22-12.9,4.83-.47.18-1.12.79-1.42,0A1.24,1.24,0,0,1,73,69.62c5-1.88,10-3.8,15-5.73.48,1.6,0,2.23-1.32,2.7m-18.7,4.82-28-10.63-3.32-1.22a1.29,1.29,0,0,1-.86-1.79c.34-1,1.05-.3,1.53-.11q15.41,5.84,30.8,11.72c.64.25,1.56.29,1.42,1.38.09,1.63-.83.92-1.53.65m40.71-15a2.91,2.91,0,0,0-2.17-3.18C99.3,50.62,92.16,47.85,85,45.14a6.41,6.41,0,0,0-1.44-.33,1,1,0,0,0-1.16.72A1.13,1.13,0,0,0,82.8,47a7.18,7.18,0,0,0,1.5.73q7,2.67,13.94,5.34c1.53.59,3,1.22,4.61,1.86a2.85,2.85,0,0,1-1.76,1c-3.19,1.24-6.41,2.4-9.58,3.68a4.27,4.27,0,0,1-3.72-.12c-5.12-2.41-10.3-4.7-15.46-7-.93-.42-2-.92-2.61.28s.51,1.75,1.41,2.17c3,1.39,6,2.7,9,4.12a37.8,37.8,0,0,1,5.62,2.75c-4.8,1.84-9.45,3.59-14.07,5.39a2.54,2.54,0,0,1-2-.14L44.23,57.38c-1.78-.68-3.54-1.4-5.3-2.1.28-.75.85-.72,1.3-.89,7.83-3,15.68-6,23.5-9.06,7.06-2.77,7-2.81,14.16,0a2.63,2.63,0,0,1,.35.15c.93.41,1.9.64,2.38-.53s-.48-1.64-1.38-2c-2.2-.86-4.43-1.64-6.61-2.56a4.48,4.48,0,0,0-3.57,0c-10.57,4.06-21.18,8-31.73,12.12-4.61,1.79-4.23.6-4.25,6.2,0,.18,0,.37,0,.56a2.27,2.27,0,0,0,1.75,2.5c2.59.89,5.08,2.09,7.7,2.85,2.14.62,3.16,1.63,2.78,3.93-.15.91-.1,2.07,1.21,2.09s1.34-1.14,1.27-2.08c-.13-1.69.53-1.67,1.86-1.15C56.26,70,62.9,72.45,69.52,75a3.42,3.42,0,0,0,2.68,0c4.8-1.89,9.64-3.69,14.45-5.56,1.07-.42,1.53-.44,1.51,1-.08,4.81-.06,9.63,0,14.44a1.55,1.55,0,0,1-1.1,1.66,40.34,40.34,0,0,1-9.19,3c-10.56,2-20.12-.34-28.92-6.32a2.45,2.45,0,0,1-1.15-2.35c.06-2.06,0-4.12,0-6.18,0-.94.05-2.06-1.33-2-1.23,0-1.19,1.05-1.19,2,0,2.5.06,5,0,7.49a3,3,0,0,0,1.39,2.82c12,8.52,24.94,10.36,38.8,5.25,2.85-1,3.07-.88,2.71,2.15-.11.91-.79,1-1.3,1.41a4.45,4.45,0,0,0-1.54,5,4.81,4.81,0,0,0,4.37,3,4.63,4.63,0,0,0,4.17-3.48A4,4,0,0,0,92,93.58c-1-.54-1.11-1.2-1.25-2.2-.39-2.68.43-4.55,3-5.57.39-.15.68-.55,1.06-.76a3.14,3.14,0,0,0,1.67-3.23c-.08-4.81,0-9.62-.06-14.43A2,2,0,0,1,98,65.08c2.18-.73,4.32-1.6,6.47-2.43,4.25-1.64,4.2-1.64,4.2-6.22"/>
    </g>
  </g>
</svg>
