<svg id="Layer_1" data-name="Layer 1" xmlns="http://www.w3.org/2000/svg" xmlns:xlink="http://www.w3.org/1999/xlink" viewBox="0 0 141.73 141.73">
  <defs>
    <style>
      .cls-1, .cls-13, .cls-14 {
        fill: none;
      }

      .cls-2 {
        clip-path: url(#clip-path);
      }

      .cls-3 {
        fill: #fefeff;
      }

      .cls-4 {
        fill: #fafbfb;
      }

      .cls-5 {
        fill: #f7f7f7;
      }

      .cls-6 {
        fill: #e6e6e5;
      }

      .cls-7 {
        fill: #161516;
      }

      .cls-8 {
        fill: #e8e8e8;
      }

      .cls-9 {
        fill: #191919;
      }

      .cls-10 {
        fill: #74c29f;
      }

      .cls-11 {
        fill: #171717;
      }

      .cls-12 {
        fill: #fff;
      }

      .cls-13, .cls-14 {
        stroke: #000;
      }

      .cls-13 {
        stroke-miterlimit: 10;
        stroke-width: 3px;
      }

      .cls-14 {
        stroke-linejoin: round;
      }
    </style>
    <clipPath id="clip-path">
      <rect class="cls-1" width="141.73" height="141.73"/>
    </clipPath>
  </defs>
  <title>icon</title>
  <g class="cls-2">
    <g class="cls-2">
      <path d="M43.83,86.71c2.86.36,5.56.37,8,1.84a12.5,12.5,0,0,1,5.94,11.81c-.26,2.2-1.42,3.5-3.71,3.5q-13.1,0-26.21,0c-2.57,0-3.69-1.39-3.77-4-.24-7.47,4.51-12.61,12-12.91l2.34-.12c-4.71-2.3-6.46-5.78-6-10.35.13-1.23-1.09-1.46-1.39-2.27a7.81,7.81,0,0,1,.27-5.57c1.63-4.32,6.2-6.17,12.58-5.24,3.88.56,7.83,4.12,6.83,8-1.34,5.28.07,12.22-6.93,15.21"/>
      <path class="cls-3" d="M33.34,100.47H30.5c-3.25,0-3.38-.19-2.85-3.34a7.88,7.88,0,0,1,2.43-4.39c3-2.95,4.5-2.66,6.13,1.14.71,1.64,1.39,3.31,2.16,4.93.57,1.2.39,1.74-1,1.67s-2.65,0-4,0"/>
      <path class="cls-3" d="M35.83,77.74c0-3.25,1-4,4.08-2.86a6.79,6.79,0,0,0,3.35.37c2.06-.25,2.88.35,2.71,2.6-.26,3.48-2,5.7-5,5.74s-5.12-2.3-5.15-5.85"/>
      <path class="cls-4" d="M42.75,100.47c1.42-3.27,2.68-6,3.77-8.79.51-1.3,1.27-1.15,2.24-.82A8.92,8.92,0,0,1,54.4,99c0,1.09-.38,1.6-1.49,1.48-.28,0-.57,0-.85,0H42.75"/>
      <path class="cls-5" d="M34.76,71.91a1.15,1.15,0,0,1-.43-1.44c.77-2.15,2.19-3.59,4.54-3.63,2.94,0,6.22-.84,8.08,2.52.79,1.43,1.09,2.79-1.39,2.53-1.58-.16-3.25.41-4.74-.42-2.17-1.21-4.26-2-6.06.44"/>
      <path class="cls-6" d="M40.87,95.76a19,19,0,0,1-2.21-5.23h4.5a19.49,19.49,0,0,1-2.29,5.23"/>
      <path class="cls-7" d="M49.26,98.81c-1.46.3-1.67-.49-1.7-1.74s.45-1.74,1.78-1.73,1.75.49,1.76,1.8-.52,1.89-1.84,1.67"/>
      <path d="M104.81,86.8c5.79.11,10,1.69,12.58,6.17a12.75,12.75,0,0,1,1.42,8,3,3,0,0,1-3.24,2.92q-13.38,0-26.77,0c-2.52,0-3.44-1.62-3.58-3.88A12,12,0,0,1,95.56,87.12c1-.15,2-.25,3.55-.45-4.36-2.36-5.76-5.83-5.46-10.15a2,2,0,0,0-.17-1.1c-2.92-5.42-.35-11,5.72-11.89,3.46-.5,7-.69,10,1.84a7.38,7.38,0,0,1,1.66,9.94,2.8,2.8,0,0,0-.31,1.6c.29,4.17-1.23,7.38-5.77,9.89"/>
      <path class="cls-3" d="M94.32,100.47h-2c-4.11,0-4.49-.56-3.13-4.53a8.1,8.1,0,0,1,2-3.08c3.11-3.1,4.74-2.79,6.35,1.21L98,95.12c2.27,5.35,2.27,5.35-3.63,5.35"/>
      <path class="cls-3" d="M107.16,77.61c.16,2.58-.72,4.55-2.94,5.5a4.88,4.88,0,0,1-5.54-.88c-1.92-1.79-1.85-4.15-1.47-6.34a1.91,1.91,0,0,1,3-1.4,6.7,6.7,0,0,0,4.39.66c2.08-.19,3.09.41,2.59,2.46"/>
      <path class="cls-4" d="M109.68,100.47c-5.86,0-5.86,0-3.51-5.28.23-.51.5-1,.72-1.53,1.51-3.55,2.64-3.83,5.61-1.24a9.84,9.84,0,0,1,2,2.37c2.3,3.92,1.32,5.68-3.1,5.68h-1.71"/>
      <path class="cls-4" d="M95.38,72.2c.43-3.56,2-5.24,4.83-5.37S106,66.11,108,69c.48.72,1,1.54.67,2.36s-1.34.39-2,.42c-2.27.09-4.55.22-6.56-1.22-1.81-1.3-2.84.67-4.67,1.61"/>
      <path class="cls-8" d="M102.29,95.7c-1.2-1-1.27-2.31-1.85-3.34-.89-1.59-.65-2.13,1.37-2.19,2.52-.06,3,.66,1.77,2.76-.45.81-.79,1.69-1.29,2.77"/>
      <path class="cls-9" d="M110.34,98.81c-1.58.29-1.49-.75-1.55-1.87-.07-1.47.67-1.63,1.89-1.66,1.54,0,1.56.82,1.62,2,.09,1.54-.76,1.69-2,1.57"/>
      <path d="M68.67,83.28c-5.37-3-7.21-6.87-6.86-11.94a3.36,3.36,0,0,0-.38-1.94A9.12,9.12,0,0,1,65.48,56,16.25,16.25,0,0,1,78.62,56c5.4,2.28,6.93,8.05,4,13.58a3.71,3.71,0,0,0-.2,1.35c-.86,7.83-.86,7.83-6.13,12.4,2.72.34,5.34.49,7.79,1.56A14.87,14.87,0,0,1,92.6,100.1c-.37,2.45-1.64,4-4.32,4H56.09c-2.85,0-4.16-1.54-4.4-4.25-.76-8.42,4.57-15.1,13-16.24,1-.14,2-.2,4-.37"/>
      <path class="cls-3" d="M62.6,100H60.18c-4.68,0-5.54-1.21-3.74-5.63a11.7,11.7,0,0,1,2.49-3.67c3.62-3.66,5.52-3.28,7.49,1.3.86,2,1.67,4,2.61,6,.7,1.47.47,2.1-1.26,2s-3.45,0-5.17,0"/>
      <path class="cls-3" d="M78.21,72c.12,3.34-.81,5.81-3.57,6.94a6,6,0,0,1-6.74-1.09c-2.31-2.18-2.3-5-1.78-7.7.23-1.17,1.64-3,3.61-1.74,1.7,1.09,3.52,1,5.33.85,2.39-.14,4,.29,3.15,2.74"/>
      <path class="cls-4" d="M74.39,100c1.66-3.87,3.13-7.09,4.43-10.38.62-1.57,1.41-1.73,2.9-1.2a10.65,10.65,0,0,1,6.83,9.88c0,1.44-.65,1.78-1.88,1.7-.57,0-1.15,0-1.73,0H74.39"/>
      <path class="cls-10" d="M76.51,65.08c-2.57.25-4.53,0-6.37-1.19-1.44-1-3-1.13-4.27.48-.34.45-.83,1-1.43.62-.77-.45-.41-1.2-.16-1.82a7.4,7.4,0,0,1,.79-1.5c2.5-3.53,10.69-3.86,13.64-.6.89,1,1.78,2.36,1.3,3.36-.75,1.59-2.64.34-3.5.65"/>
      <path class="cls-10" d="M72.16,94.65c-.86-1.82-1.37-3-2-4.17-1.26-2.35-.62-3.1,2-3,2.06.1,3.44.11,1.95,2.67a47,47,0,0,0-2,4.46"/>
      <path class="cls-11" d="M82.29,98c-1.72.34-2.09-.52-2.09-2.1s.47-2.22,2.16-2.19,2.15.61,2.17,2.22-.59,2.33-2.24,2.07"/>
      <path class="cls-12" d="M119,29.22c0-.76-.24-.95-1-1a23.79,23.79,0,0,0-4.13.23c-4.2.57-7.88,2.14-10.65,5.48a.49.49,0,0,1-.63.16,4.22,4.22,0,0,0-4.4.84c-1.51,1.4-2.94,2.88-4.4,4.33a1.25,1.25,0,0,0-.31,1.14,2.17,2.17,0,0,0,1.39,1.79c1.15.47,2.27,1,3.5,1.51-1.21,1.22-2.36,2.38-3.52,3.51a1.16,1.16,0,0,0-.36,1.11,5.55,5.55,0,0,0,4.4,4.35,1.13,1.13,0,0,0,1-.38c.85-.86,1.71-1.7,2.56-2.55l1-1c.6,1.37,1.15,2.65,1.73,3.92a1.74,1.74,0,0,0,3,.55q2.07-2,4.08-4.08a3.82,3.82,0,0,0,.91-4.49c-.13-.29,0-.44.18-.62a13.83,13.83,0,0,0,3-3.38A20.11,20.11,0,0,0,119,29.22"/>
      <path class="cls-13" d="M119,29.22c0-.76-.24-.95-1-1a23.79,23.79,0,0,0-4.13.23c-4.2.57-7.88,2.14-10.65,5.48a.49.49,0,0,1-.63.16,4.22,4.22,0,0,0-4.4.84c-1.51,1.4-2.94,2.88-4.4,4.33a1.25,1.25,0,0,0-.31,1.14,2.17,2.17,0,0,0,1.39,1.79c1.15.47,2.27,1,3.5,1.51-1.21,1.22-2.36,2.38-3.52,3.51a1.16,1.16,0,0,0-.36,1.11,5.55,5.55,0,0,0,4.4,4.35,1.13,1.13,0,0,0,1-.38c.85-.86,1.71-1.7,2.56-2.55l1-1c.6,1.37,1.15,2.65,1.73,3.92a1.74,1.74,0,0,0,3,.55q2.07-2,4.08-4.08a3.82,3.82,0,0,0,.91-4.49c-.13-.29,0-.44.18-.62a13.83,13.83,0,0,0,3-3.38A20.11,20.11,0,0,0,119,29.22Z"/>
      <path d="M94.41,54a.93.93,0,0,1-.31.68l-3.42,3.4c-.34.34-.72.48-1.12.12s-.26-.66.16-1.09l3.4-3.43A.74.74,0,0,1,94,53.4a.67.67,0,0,1,.41.57"/>
      <path class="cls-14" d="M94.41,54a.93.93,0,0,1-.31.68l-3.42,3.4c-.34.34-.72.48-1.12.12s-.26-.66.16-1.09l3.4-3.43A.74.74,0,0,1,94,53.4.67.67,0,0,1,94.41,54Z"/>
      <path d="M96.72,55.93a.75.75,0,0,1-.27.56c-.53.54-1.06,1.08-1.6,1.61a.7.7,0,0,1-1.08.06c-.34-.33-.24-.7.08-1,.54-.55,1.1-1.09,1.64-1.64a.74.74,0,0,1,.86-.18.63.63,0,0,1,.37.61"/>
      <path class="cls-14" d="M96.72,55.93a.75.75,0,0,1-.27.56c-.53.54-1.06,1.08-1.6,1.61a.7.7,0,0,1-1.08.06c-.34-.33-.24-.7.08-1,.54-.55,1.1-1.09,1.64-1.64a.74.74,0,0,1,.86-.18A.63.63,0,0,1,96.72,55.93Z"/>
      <path d="M91.7,50.62a.63.63,0,0,1,.73.34.56.56,0,0,1-.06.7c-.56.58-1.13,1.17-1.72,1.72a.6.6,0,0,1-.88-.06.54.54,0,0,1-.1-.78c.58-.64,1.21-1.24,1.83-1.85a.29.29,0,0,1,.2-.07"/>
      <path class="cls-14" d="M91.7,50.62a.63.63,0,0,1,.73.34.56.56,0,0,1-.06.7c-.56.58-1.13,1.17-1.72,1.72a.6.6,0,0,1-.88-.06.54.54,0,0,1-.1-.78c.58-.64,1.21-1.24,1.83-1.85A.29.29,0,0,1,91.7,50.62Z"/>
      <path class="cls-10" d="M111.62,37.91a2.51,2.51,0,1,0-2.51-2.51,2.51,2.51,0,0,0,2.51,2.51"/>
      <path class="cls-13" d="M111.62,37.91a2.51,2.51,0,1,0-2.51-2.51A2.51,2.51,0,0,0,111.62,37.91Z"/>
    </g>
  </g>
</svg>
