<svg id="Layer_1" data-name="Layer 1" xmlns="http://www.w3.org/2000/svg" xmlns:xlink="http://www.w3.org/1999/xlink" viewBox="0 0 141.73 141.73">
  <defs>
    <style>
      .cls-1, .cls-4, .cls-6, .cls-7 {
        fill: none;
      }

      .cls-2 {
        clip-path: url(#clip-path);
      }

      .cls-3 {
        fill: #fff;
      }

      .cls-4, .cls-6, .cls-7 {
        stroke: #000;
        stroke-width: 5px;
      }

      .cls-5 {
        fill: #74c29f;
      }

      .cls-6 {
        stroke-miterlimit: 10;
      }

      .cls-7 {
        stroke-linecap: round;
      }
    </style>
    <clipPath id="clip-path">
      <rect class="cls-1" width="141.73" height="141.73"/>
    </clipPath>
  </defs>
  <title>icon</title>
  <g class="cls-2">
    <g class="cls-2">
      <path class="cls-3" d="M45.05,115.4a50.31,50.31,0,0,0,25.82,6.89,50.27,50.27,0,0,0,25.81-6.89A51.24,51.24,0,0,0,115.4,96.68a50.37,50.37,0,0,0,6.89-25.81,50.4,50.4,0,0,0-6.89-25.82A51.24,51.24,0,0,0,96.68,26.33a50.37,50.37,0,0,0-25.81-6.89,50.4,50.4,0,0,0-25.82,6.89A51.24,51.24,0,0,0,26.33,45.05a50.4,50.4,0,0,0-6.89,25.82,50.37,50.37,0,0,0,6.89,25.81A51.24,51.24,0,0,0,45.05,115.4"/>
      <path class="cls-4" d="M110.31,54.23,45.05,115.4a50.31,50.31,0,0,0,25.82,6.89,50.27,50.27,0,0,0,25.81-6.89A51.24,51.24,0,0,0,115.4,96.68a50.37,50.37,0,0,0,6.89-25.81,50.4,50.4,0,0,0-6.89-25.82A51.24,51.24,0,0,0,96.68,26.33a50.37,50.37,0,0,0-25.81-6.89,50.4,50.4,0,0,0-25.82,6.89A51.24,51.24,0,0,0,26.33,45.05a50.4,50.4,0,0,0-6.89,25.82,50.37,50.37,0,0,0,6.89,25.81A51.24,51.24,0,0,0,45.05,115.4Z"/>
      <path class="cls-5" d="M53.57,63.64a5.11,5.11,0,1,0-5.1-5.1,5.11,5.11,0,0,0,5.1,5.1"/>
      <path class="cls-6" d="M53.57,63.64a5.11,5.11,0,1,0-5.1-5.1A5.11,5.11,0,0,0,53.57,63.64Z"/>
      <path class="cls-5" d="M87.87,63.64a5.11,5.11,0,1,0-5.1-5.1,5.11,5.11,0,0,0,5.1,5.1"/>
      <path class="cls-6" d="M87.87,63.64a5.11,5.11,0,1,0-5.1-5.1A5.11,5.11,0,0,0,87.87,63.64Z"/>
      <path class="cls-7" d="M43.6,80.89a33.93,33.93,0,0,0,11.46,13,28.42,28.42,0,0,0,31.61,0,33.93,33.93,0,0,0,11.46-13"/>
    </g>
  </g>
</svg>
