<svg id="Layer_1" data-name="Layer 1" xmlns="http://www.w3.org/2000/svg" xmlns:xlink="http://www.w3.org/1999/xlink" viewBox="0 0 141.73 141.73">
  <defs>
    <style>
      .cls-1 {
        fill: none;
      }

      .cls-2 {
        clip-path: url(#clip-path);
      }

      .cls-3 {
        fill: #fff;
      }

      .cls-4 {
        fill: #141310;
      }
    </style>
    <clipPath id="clip-path">
      <rect class="cls-1" width="141.73" height="141.73"/>
    </clipPath>
  </defs>
  <title>icon</title>
  <g class="cls-2">
    <g class="cls-2">
      <path class="cls-3" d="M105,58.82V93A22.12,22.12,0,0,1,82.91,115a26.9,26.9,0,0,1-19.14-7.93l-26-26a3.67,3.67,0,0,1,2.59-6.26,8.17,8.17,0,0,1,3.59.85l13.94,7a2,2,0,0,0,2.91-1.8V30.71a4,4,0,1,1,8,0V68.86a2,2,0,1,0,4,0V50.79a4,4,0,0,1,8,0V68.86a2,2,0,1,0,4,0V54.8a4,4,0,0,1,8,0V68.86a2,2,0,0,0,4,0v-10a4,4,0,1,1,8,0"/>
      <path class="cls-4" d="M105,93V58.82a4,4,0,1,0-8,0v10a2,2,0,0,1-4,0V54.8a4,4,0,0,0-8,0V68.86a2,2,0,1,1-4,0V50.79a4,4,0,0,0-8,0V68.86a2,2,0,1,1-4,0V30.71a4,4,0,1,0-8,0V80.9a2,2,0,0,1-2.91,1.8L44,75.73a8.17,8.17,0,0,0-3.59-.85,3.67,3.67,0,0,0-2.59,6.26l26,26A26.9,26.9,0,0,0,82.91,115,22.12,22.12,0,0,0,105,93m4-34.13V93a26.13,26.13,0,0,1-26.11,26.1,30.88,30.88,0,0,1-22-9.1L35,84a7.55,7.55,0,0,1-2.25-5.42,7.68,7.68,0,0,1,7.67-7.69,12.08,12.08,0,0,1,5.38,1.26l11,5.53V30.71a8,8,0,0,1,16.06,0V43.84a8,8,0,0,1,4-1.08,8,8,0,0,1,7.58,5.37,8,8,0,0,1,12,4A8,8,0,0,1,109,58.82"/>
    </g>
  </g>
</svg>
