<svg id="Layer_1" data-name="Layer 1" xmlns="http://www.w3.org/2000/svg" xmlns:xlink="http://www.w3.org/1999/xlink" viewBox="0 0 141.73 141.73">
  <defs>
    <style>
      .cls-1 {
        fill: none;
      }

      .cls-2 {
        clip-path: url(#clip-path);
      }

      .cls-3 {
        fill: #2cbadd;
      }

      .cls-4 {
        fill: #22adcf;
      }

      .cls-5 {
        fill: #4191c3;
      }

      .cls-6 {
        fill: #3f88b6;
      }

      .cls-7 {
        fill: #76c29f;
      }

      .cls-8 {
        fill: #6cb292;
      }

      .cls-9 {
        fill: #56bdb5;
      }

      .cls-10 {
        fill: #50afa9;
      }

      .cls-11 {
        fill: #5c967a;
      }

      .cls-12 {
        fill: #d4d1d2;
      }

      .cls-13 {
        fill: #2392aa;
      }

      .cls-14 {
        fill: #229cb6;
      }

      .cls-15 {
        fill: #43938c;
      }

      .cls-16 {
        fill: #489e96;
      }

      .cls-17 {
        fill: #387396;
      }

      .cls-18 {
        fill: #3b7aa0;
      }
    </style>
    <clipPath id="clip-path">
      <rect class="cls-1" width="141.73" height="141.73"/>
    </clipPath>
  </defs>
  <title>icon</title>
  <g class="cls-2">
    <g class="cls-2">
      <path class="cls-3" d="M51.44,131.75a64.24,64.24,0,0,0,38.85,0L70.87,112.33Z"/>
      <path class="cls-4" d="M27.3,117.62a63.52,63.52,0,0,0,19.46,12.43L70.87,106l-16-16Z"/>
      <path class="cls-3" d="M54.92,90l16,16L95,130.05a63.52,63.52,0,0,0,19.46-12.43L70.87,74.06Z"/>
      <path class="cls-5" d="M10,51.44a64.24,64.24,0,0,0,0,38.85L29.41,70.87Z"/>
      <path class="cls-6" d="M24.11,27.3A63.52,63.52,0,0,0,11.68,46.76l24.1,24.11,15.95-16Z"/>
      <path class="cls-5" d="M51.73,54.92l-15.94,16L11.68,95a63.52,63.52,0,0,0,12.43,19.46L67.68,70.87Z"/>
      <path class="cls-7" d="M90.29,10a64.24,64.24,0,0,0-38.85,0L70.87,29.41Z"/>
      <path class="cls-8" d="M114.43,24.11A63.4,63.4,0,0,0,95,11.68l-24.1,24.1L86.81,51.73Z"/>
      <path class="cls-7" d="M86.81,51.73,70.87,35.78,46.76,11.68A63.52,63.52,0,0,0,27.3,24.11L70.87,67.68Z"/>
      <path class="cls-9" d="M131.75,90.29a64.24,64.24,0,0,0,0-38.85L112.33,70.87Z"/>
      <path class="cls-10" d="M117.62,114.43A63.52,63.52,0,0,0,130.05,95L106,70.87,90,86.81Z"/>
      <path class="cls-9" d="M90,86.81l16-15.94,24.1-24.11A63.52,63.52,0,0,0,117.62,27.3L74.06,70.87Z"/>
    </g>
    <polygon class="cls-11" points="74.06 32.6 71.84 34.81 70.87 35.78 86.81 51.73 90 48.54 74.06 32.6"/>
    <path class="cls-12" d="M54.92,90h0l6,6-6-6m-2.81,2.81-.38.38ZM70.87,106h0"/>
    <polyline class="cls-13" points="54.92 90 52.11 92.81 51.73 93.19 67.68 109.14 70.87 105.95 70.87 105.95 62.89 97.97 60.9 95.98 54.92 90"/>
    <polygon class="cls-14" points="54.92 90 54.92 90 60.9 95.98 62.89 97.97 54.92 90"/>
    <path class="cls-12" d="M100.63,76.18,90,86.81h0ZM92.51,89.32l.68.68Z"/>
    <polygon class="cls-15" points="105.95 70.87 102.76 74.06 100.63 76.18 90 86.81 92.51 89.32 93.19 90 109.14 74.06 105.95 70.87"/>
    <polygon class="cls-16" points="102.76 74.06 90 86.81 100.63 76.18 102.76 74.06"/>
    <polygon class="cls-12" points="48.54 51.73 48.54 51.73 51.73 54.92 51.73 54.92 48.54 51.73"/>
    <polyline class="cls-17" points="48.54 51.73 32.6 67.68 35.78 70.87 39.77 66.88 51.73 54.92 48.54 51.73"/>
    <path class="cls-18" d="M39.77,66.88l-4,4Z"/>
  </g>
</svg>
