<svg id="Layer_1" data-name="Layer 1" xmlns="http://www.w3.org/2000/svg" xmlns:xlink="http://www.w3.org/1999/xlink" viewBox="0 0 141.73 141.73">
  <defs>
    <style>
      .cls-1, .cls-4 {
        fill: none;
      }

      .cls-2 {
        clip-path: url(#clip-path);
      }

      .cls-3 {
        fill: #fff;
      }

      .cls-4 {
        stroke: #000;
        stroke-miterlimit: 10;
      }

      .cls-5 {
        fill: #26bade;
      }
    </style>
    <clipPath id="clip-path">
      <rect class="cls-1" width="141.73" height="141.73"/>
    </clipPath>
  </defs>
  <title>icon</title>
  <g class="cls-2">
    <g class="cls-2">
      <path class="cls-3" d="M47.64,107.46a2.39,2.39,0,0,1,.12.22c2.27,5.12,8.13,6.23,12.08,2.29l3.75-3.78c.85.9,1.63,1.78,2.47,2.59A7.12,7.12,0,0,0,77.37,107c.19-.35.36-.71.48-.93,1.54,1.48,3.06,3,4.61,4.4a7.08,7.08,0,0,0,10.1-.58,22.88,22.88,0,0,0,1.6-2.41,7.32,7.32,0,0,0,9.93-.23c2.66-2.61,2.75-6.19.23-10.1.53-.29,1.09-.53,1.59-.87A7.24,7.24,0,0,0,107,85.11c-1.5-1.56-3.11-3-4.63-4.51.12-.27.16-.37.21-.46a22.07,22.07,0,0,0,2.82-14.73,1.86,1.86,0,0,1,.63-1.8c3-2.89,5.85-5.82,8.76-8.75a1.8,1.8,0,0,0,.07-2.8c-.18-.2-.39-.39-.59-.59L93.08,30.33c-1.26-1.26-2.12-1.26-3.4,0-2.94,2.94-5.9,5.86-8.82,8.81a1.8,1.8,0,0,1-1.4.56c-2.11.06-4.23.16-6.34.28a21.67,21.67,0,0,1-2.4.24c-2.8-.13-5.61-.33-8.41-.55A2.21,2.21,0,0,1,61,39.14c-3-2.89-5.86-5.82-8.78-8.73a5,5,0,0,0-.83-.7,1.78,1.78,0,0,0-2.23.18c-.39.37-.77.73-1.14,1.11L27.16,51.77c-1.25,1.24-1.26,2.2,0,3.44C30.06,58.13,33,61.05,35.9,64a1.36,1.36,0,0,1,.45,1.31,20.83,20.83,0,0,0,.36,9c.64,2.18,1.57,4.27,2.37,6.4l.36.1a6.1,6.1,0,0,0-.77.52c-1.39,1.37-2.8,2.73-4.14,4.15a7.28,7.28,0,0,0-.84,8.82,7.66,7.66,0,0,0,3.77,3,7.31,7.31,0,0,0,0,9.87c2.58,2.79,5.83,2.9,10.15.34"/>
      <path class="cls-4" d="M47.64,107.46a2.39,2.39,0,0,1,.12.22c2.27,5.12,8.13,6.23,12.08,2.29l3.75-3.78c.85.9,1.63,1.78,2.47,2.59A7.12,7.12,0,0,0,77.37,107c.19-.35.36-.71.48-.93,1.54,1.48,3.06,3,4.61,4.4a7.08,7.08,0,0,0,10.1-.58,22.88,22.88,0,0,0,1.6-2.41,7.32,7.32,0,0,0,9.93-.23c2.66-2.61,2.75-6.19.23-10.1.53-.29,1.09-.53,1.59-.87A7.24,7.24,0,0,0,107,85.11c-1.5-1.56-3.11-3-4.63-4.51.12-.27.16-.37.21-.46a22.07,22.07,0,0,0,2.82-14.73,1.86,1.86,0,0,1,.63-1.8c3-2.89,5.85-5.82,8.76-8.75a1.8,1.8,0,0,0,.07-2.8c-.18-.2-.39-.39-.59-.59L93.08,30.33c-1.26-1.26-2.12-1.26-3.4,0-2.94,2.94-5.9,5.86-8.82,8.81a1.8,1.8,0,0,1-1.4.56c-2.11.06-4.23.16-6.34.28a21.67,21.67,0,0,1-2.4.24c-2.8-.13-5.61-.33-8.41-.55A2.21,2.21,0,0,1,61,39.14c-3-2.89-5.86-5.82-8.78-8.73a5,5,0,0,0-.83-.7,1.78,1.78,0,0,0-2.23.18c-.39.37-.77.73-1.14,1.11L27.16,51.77c-1.25,1.24-1.26,2.2,0,3.44C30.06,58.13,33,61.05,35.9,64a1.36,1.36,0,0,1,.45,1.31,20.83,20.83,0,0,0,.36,9c.64,2.18,1.57,4.27,2.37,6.4l.36.1a6.1,6.1,0,0,0-.77.52c-1.39,1.37-2.8,2.73-4.14,4.15a7.28,7.28,0,0,0-.84,8.82,7.66,7.66,0,0,0,3.77,3,7.31,7.31,0,0,0,0,9.87C40.07,109.91,43.32,110,47.64,107.46Z"/>
      <path d="M60.65,103.49c-1.49-1.47-3-3-4.56-4.46-1.26,1.25-2.6,2.51-3.85,3.86a3.12,3.12,0,0,0,.07,4.62,3,3,0,0,0,4.48-.09c1.31-1.25,2.54-2.58,3.86-3.93M45.87,88.81,41.59,84l-.24.19c-1.26,1.27-2.53,2.52-3.77,3.79a3.28,3.28,0,0,0-.12,4.77,3.07,3.07,0,0,0,4.6-.08c1.29-1.22,2.5-2.53,3.81-3.87m7.3,7.31c-1.51-1.5-3-3-4.53-4.53L40.3,100a1.71,1.71,0,0,0-.2.27,3.34,3.34,0,0,0,.33,4.34,3.09,3.09,0,0,0,4.38,0c2.82-2.78,5.58-5.61,8.36-8.4m38.09-61.7-.5.48c-2.73,2.72-5.45,5.43-8.17,8.16a2.17,2.17,0,0,1-1.6.73c-2.65,0-5.3.07-7.94.27a16.52,16.52,0,0,0-10.39,4.48c-4.13,3.9-8.15,7.93-12.21,11.91-1.19,1.17-2.38,2.35-3.54,3.56a3.23,3.23,0,0,0-.49,3.66,3,3,0,0,0,3,1.68,3.48,3.48,0,0,0,2.41-1.17c2.48-2.5,5-4.94,7.42-7.49a2.92,2.92,0,0,1,2.9-.95,15.88,15.88,0,0,0,10.65-1.87c1.63-.88,3.17-2,4.73-3a2.07,2.07,0,0,1,2.8.16,2,2,0,0,1-.13,2.78,3.34,3.34,0,0,0-.23.34L99.33,77.89a16,16,0,0,0,2.06-7,55.26,55.26,0,0,0-.32-6.16,2.49,2.49,0,0,1,.7-2.19c2.58-2.54,5.12-5.13,7.69-7.68a12.71,12.71,0,0,1,1.23-1L91.26,34.42m-60.42,19c3,3,5.92,5.9,8.88,8.77a2.38,2.38,0,0,1,.72,2.4,19.88,19.88,0,0,0-.15,7.57A22,22,0,0,0,46.5,83.53c7.38,7.53,14.88,14.93,22.35,22.37a3,3,0,0,0,4.48,0,3.12,3.12,0,0,0,.06-4.5c-.3-.33-.63-.63-1-.94l-9.76-9.77a1.88,1.88,0,0,1-.49-2.41c.72-1.33,2.15-1.46,3.33-.28q6.28,6.26,12.56,12.52L85,107.39a2.92,2.92,0,0,0,2.95,1,3.21,3.21,0,0,0,1.56-5.54C85.79,98.92,82,95.06,78.29,91.2Q74.83,87.62,71.37,84A1.85,1.85,0,0,1,71,81.55c.76-1.23,2.17-1.29,3.32-.11C79,86.29,83.75,91.16,88.49,96q4.16,4.25,8.35,8.45a3.05,3.05,0,0,0,3.47.69,3,3,0,0,0,2-2.63,3.42,3.42,0,0,0-1.22-2.88q-7.41-7.38-14.79-14.79c-2.78-2.78-5.57-5.55-8.35-8.34a1.9,1.9,0,0,1-.42-2.62c.79-1.2,2.09-1.24,3.26-.08L93.27,86.2l6.33,6.33a3.11,3.11,0,0,0,3.58.85c2.35-1,2.8-3.75.91-5.64l-27-27c-.15-.15-.33-.28-.46-.39-1,.54-2,1.07-3,1.55A18.79,18.79,0,0,1,62.2,63.7a1.25,1.25,0,0,0-.9.37c-1.87,1.84-3.7,3.72-5.56,5.56a21.08,21.08,0,0,1-2.47,2.26,7.07,7.07,0,0,1-9.41-1,7.16,7.16,0,0,1-.06-9.54c.52-.58,1.08-1.13,1.63-1.68,4.44-4.43,8.87-8.87,13.35-13.27,1-1,2.19-1.85,3.43-2.88a5.81,5.81,0,0,0-.86,0,3.16,3.16,0,0,1-2.86-1.2c-1.43-1.53-2.94-3-4.42-4.46l-3.74-3.74L30.84,53.44m16.8,54c-4.32,2.56-7.57,2.45-10.15-.34a7.31,7.31,0,0,1,0-9.87,7.66,7.66,0,0,1-3.77-3,7.28,7.28,0,0,1,.84-8.82c1.34-1.42,2.75-2.78,4.14-4.15a6.1,6.1,0,0,1,.77-.52l-.36-.1c-.8-2.13-1.73-4.22-2.37-6.4a20.83,20.83,0,0,1-.36-9A1.36,1.36,0,0,0,35.9,64c-2.93-2.91-5.84-5.83-8.76-8.75-1.24-1.24-1.23-2.2,0-3.44L48,31c.37-.38.75-.74,1.14-1.11a1.78,1.78,0,0,1,2.23-.18,5,5,0,0,1,.83.7c2.92,2.91,5.83,5.84,8.78,8.73a2.21,2.21,0,0,0,1.29.54c2.8.22,5.61.42,8.41.55a21.67,21.67,0,0,0,2.4-.24c2.11-.12,4.23-.22,6.34-.28a1.8,1.8,0,0,0,1.4-.56c2.92-2.95,5.88-5.87,8.82-8.81,1.28-1.27,2.14-1.27,3.4,0l21.21,21.14c.2.2.41.39.59.59a1.8,1.8,0,0,1-.07,2.8c-2.91,2.93-5.81,5.86-8.76,8.75a1.86,1.86,0,0,0-.63,1.8,22.07,22.07,0,0,1-2.82,14.73c0,.09-.09.19-.21.46,1.52,1.48,3.13,3,4.63,4.51a7.24,7.24,0,0,1-1.11,11.2c-.5.34-1.06.58-1.59.87,2.52,3.91,2.43,7.49-.23,10.1a7.32,7.32,0,0,1-9.93.23,22.88,22.88,0,0,1-1.6,2.41,7.08,7.08,0,0,1-10.1.58c-1.55-1.45-3.07-2.92-4.61-4.4-.12.22-.29.58-.48.93a7.12,7.12,0,0,1-11.31,1.75c-.84-.81-1.62-1.69-2.47-2.59L59.84,110c-4,3.94-9.81,2.83-12.08-2.29a2.39,2.39,0,0,0-.12-.22"/>
      <path class="cls-4" d="M60.65,103.49c-1.49-1.47-3-3-4.56-4.46-1.26,1.25-2.6,2.51-3.85,3.86a3.12,3.12,0,0,0,.07,4.62,3,3,0,0,0,4.48-.09C58.1,106.17,59.33,104.84,60.65,103.49ZM45.87,88.81,41.59,84l-.24.19c-1.26,1.27-2.53,2.52-3.77,3.79a3.28,3.28,0,0,0-.12,4.77,3.07,3.07,0,0,0,4.6-.08C43.35,91.46,44.56,90.15,45.87,88.81Zm7.3,7.31c-1.51-1.5-3-3-4.53-4.53L40.3,100a1.71,1.71,0,0,0-.2.27,3.34,3.34,0,0,0,.33,4.34,3.09,3.09,0,0,0,4.38,0C47.63,101.74,50.39,98.91,53.17,96.12Zm38.09-61.7-.5.48c-2.73,2.72-5.45,5.43-8.17,8.16a2.17,2.17,0,0,1-1.6.73c-2.65,0-5.3.07-7.94.27a16.52,16.52,0,0,0-10.39,4.48c-4.13,3.9-8.15,7.93-12.21,11.91-1.19,1.17-2.38,2.35-3.54,3.56a3.23,3.23,0,0,0-.49,3.66,3,3,0,0,0,3,1.68,3.48,3.48,0,0,0,2.41-1.17c2.48-2.5,5-4.94,7.42-7.49a2.92,2.92,0,0,1,2.9-.95,15.88,15.88,0,0,0,10.65-1.87c1.63-.88,3.17-2,4.73-3a2.07,2.07,0,0,1,2.8.16,2,2,0,0,1-.13,2.78,3.34,3.34,0,0,0-.23.34L99.33,77.89a16,16,0,0,0,2.06-7,55.26,55.26,0,0,0-.32-6.16,2.49,2.49,0,0,1,.7-2.19c2.58-2.54,5.12-5.13,7.69-7.68a12.71,12.71,0,0,1,1.23-1Zm-60.42,19c3,3,5.92,5.9,8.88,8.77a2.38,2.38,0,0,1,.72,2.4,19.88,19.88,0,0,0-.15,7.57A22,22,0,0,0,46.5,83.53c7.38,7.53,14.88,14.93,22.35,22.37a3,3,0,0,0,4.48,0,3.12,3.12,0,0,0,.06-4.5c-.3-.33-.63-.63-1-.94l-9.76-9.77a1.88,1.88,0,0,1-.49-2.41c.72-1.33,2.15-1.46,3.33-.28q6.28,6.26,12.56,12.52L85,107.39a2.92,2.92,0,0,0,2.95,1,3.21,3.21,0,0,0,1.56-5.54C85.79,98.92,82,95.06,78.29,91.2Q74.83,87.62,71.37,84A1.85,1.85,0,0,1,71,81.55c.76-1.23,2.17-1.29,3.32-.11C79,86.29,83.75,91.16,88.49,96q4.16,4.25,8.35,8.45a3.05,3.05,0,0,0,3.47.69,3,3,0,0,0,2-2.63,3.42,3.42,0,0,0-1.22-2.88q-7.41-7.38-14.79-14.79c-2.78-2.78-5.57-5.55-8.35-8.34a1.9,1.9,0,0,1-.42-2.62c.79-1.2,2.09-1.24,3.26-.08L93.27,86.2l6.33,6.33a3.11,3.11,0,0,0,3.58.85c2.35-1,2.8-3.75.91-5.64l-27-27c-.15-.15-.33-.28-.46-.39-1,.54-2,1.07-3,1.55A18.79,18.79,0,0,1,62.2,63.7a1.25,1.25,0,0,0-.9.37c-1.87,1.84-3.7,3.72-5.56,5.56a21.08,21.08,0,0,1-2.47,2.26,7.07,7.07,0,0,1-9.41-1,7.16,7.16,0,0,1-.06-9.54c.52-.58,1.08-1.13,1.63-1.68,4.44-4.43,8.87-8.87,13.35-13.27,1-1,2.19-1.85,3.43-2.88a5.81,5.81,0,0,0-.86,0,3.16,3.16,0,0,1-2.86-1.2c-1.43-1.53-2.94-3-4.42-4.46l-3.74-3.74Zm16.8,54c-4.32,2.56-7.57,2.45-10.15-.34a7.31,7.31,0,0,1,0-9.87,7.66,7.66,0,0,1-3.77-3,7.28,7.28,0,0,1,.84-8.82c1.34-1.42,2.75-2.78,4.14-4.15a6.1,6.1,0,0,1,.77-.52l-.36-.1c-.8-2.13-1.73-4.22-2.37-6.4a20.83,20.83,0,0,1-.36-9A1.36,1.36,0,0,0,35.9,64c-2.93-2.91-5.84-5.83-8.76-8.75-1.24-1.24-1.23-2.2,0-3.44L48,31c.37-.38.75-.74,1.14-1.11a1.78,1.78,0,0,1,2.23-.18,5,5,0,0,1,.83.7c2.92,2.91,5.83,5.84,8.78,8.73a2.21,2.21,0,0,0,1.29.54c2.8.22,5.61.42,8.41.55a21.67,21.67,0,0,0,2.4-.24c2.11-.12,4.23-.22,6.34-.28a1.8,1.8,0,0,0,1.4-.56c2.92-2.95,5.88-5.87,8.82-8.81,1.28-1.27,2.14-1.27,3.4,0l21.21,21.14c.2.2.41.39.59.59a1.8,1.8,0,0,1-.07,2.8c-2.91,2.93-5.81,5.86-8.76,8.75a1.86,1.86,0,0,0-.63,1.8,22.07,22.07,0,0,1-2.82,14.73c0,.09-.09.19-.21.46,1.52,1.48,3.13,3,4.63,4.51a7.24,7.24,0,0,1-1.11,11.2c-.5.34-1.06.58-1.59.87,2.52,3.91,2.43,7.49-.23,10.1a7.32,7.32,0,0,1-9.93.23,22.88,22.88,0,0,1-1.6,2.41,7.08,7.08,0,0,1-10.1.58c-1.55-1.45-3.07-2.92-4.61-4.4-.12.22-.29.58-.48.93a7.12,7.12,0,0,1-11.31,1.75c-.84-.81-1.62-1.69-2.47-2.59L59.84,110c-4,3.94-9.81,2.83-12.08-2.29A2.39,2.39,0,0,0,47.64,107.46Z"/>
      <path class="cls-3" d="M30.84,53.44,50.33,34.16l3.74,3.74c1.48,1.48,3,2.93,4.42,4.46a3.17,3.17,0,0,0,2.86,1.2,5.81,5.81,0,0,1,.86,0c-1.24,1-2.41,1.88-3.43,2.88-4.48,4.4-8.91,8.84-13.35,13.27-.55.55-1.11,1.1-1.63,1.68a7.16,7.16,0,0,0,.06,9.54,7.07,7.07,0,0,0,9.41,1,22,22,0,0,0,2.47-2.26c1.86-1.84,3.69-3.72,5.56-5.56a1.25,1.25,0,0,1,.9-.37,18.79,18.79,0,0,0,11.37-1.84c1-.48,2-1,3-1.55.13.11.31.24.46.39l27,27c1.89,1.89,1.45,4.68-.91,5.64a3.09,3.09,0,0,1-3.58-.85c-2.11-2.1-4.22-4.22-6.33-6.33L80.83,73.8c-1.17-1.16-2.47-1.12-3.26.08A1.9,1.9,0,0,0,78,76.5c2.78,2.79,5.57,5.56,8.35,8.34q7.39,7.39,14.79,14.79a3.42,3.42,0,0,1,1.22,2.88,3,3,0,0,1-2,2.63,3,3,0,0,1-3.47-.69q-4.2-4.22-8.36-8.45C83.75,91.16,79,86.29,74.31,81.44c-1.15-1.18-2.56-1.12-3.32.11A1.85,1.85,0,0,0,71.37,84q3.45,3.58,6.92,7.16c3.74,3.87,7.5,7.72,11.23,11.6A3.21,3.21,0,0,1,88,108.34a2.92,2.92,0,0,1-2.95-1l-6.93-6.91Q71.81,94.21,65.52,88c-1.18-1.18-2.61-1-3.33.28a1.88,1.88,0,0,0,.49,2.41l9.76,9.77c.32.31.65.61,1,.94a3.12,3.12,0,0,1-.06,4.5,3,3,0,0,1-4.48,0c-7.47-7.44-15-14.84-22.35-22.37a22,22,0,0,1-6.21-11.35,19.88,19.88,0,0,1,.15-7.57,2.38,2.38,0,0,0-.72-2.4c-3-2.87-5.87-5.79-8.88-8.77"/>
      <path class="cls-4" d="M30.84,53.44,50.33,34.16l3.74,3.74c1.48,1.48,3,2.93,4.42,4.46a3.17,3.17,0,0,0,2.86,1.2,5.81,5.81,0,0,1,.86,0c-1.24,1-2.41,1.88-3.43,2.88-4.48,4.4-8.91,8.84-13.35,13.27-.55.55-1.11,1.1-1.63,1.68a7.16,7.16,0,0,0,.06,9.54,7.07,7.07,0,0,0,9.41,1,22,22,0,0,0,2.47-2.26c1.86-1.84,3.69-3.72,5.56-5.56a1.25,1.25,0,0,1,.9-.37,18.79,18.79,0,0,0,11.37-1.84c1-.48,2-1,3-1.55.13.11.31.24.46.39l27,27c1.89,1.89,1.45,4.68-.91,5.64a3.09,3.09,0,0,1-3.58-.85c-2.11-2.1-4.22-4.22-6.33-6.33L80.83,73.8c-1.17-1.16-2.47-1.12-3.26.08A1.9,1.9,0,0,0,78,76.5c2.78,2.79,5.57,5.56,8.35,8.34q7.39,7.39,14.79,14.79a3.42,3.42,0,0,1,1.22,2.88,3,3,0,0,1-2,2.63,3,3,0,0,1-3.47-.69q-4.2-4.22-8.36-8.45C83.75,91.16,79,86.29,74.31,81.44c-1.15-1.18-2.56-1.12-3.32.11A1.85,1.85,0,0,0,71.37,84q3.45,3.58,6.92,7.16c3.74,3.87,7.5,7.72,11.23,11.6A3.21,3.21,0,0,1,88,108.34a2.92,2.92,0,0,1-2.95-1l-6.93-6.91Q71.81,94.21,65.52,88c-1.18-1.18-2.61-1-3.33.28a1.88,1.88,0,0,0,.49,2.41l9.76,9.77c.32.31.65.61,1,.94a3.12,3.12,0,0,1-.06,4.5,3,3,0,0,1-4.48,0c-7.47-7.44-15-14.84-22.35-22.37a22,22,0,0,1-6.21-11.35,19.88,19.88,0,0,1,.15-7.57,2.38,2.38,0,0,0-.72-2.4C36.76,59.34,33.85,56.42,30.84,53.44Z"/>
      <path class="cls-5" d="M91.26,34.42l19.43,19.47a12.71,12.71,0,0,0-1.23,1c-2.57,2.55-5.11,5.14-7.69,7.68a2.49,2.49,0,0,0-.7,2.19,55.26,55.26,0,0,1,.32,6.16,16,16,0,0,1-2.06,7L80,58.17a3.34,3.34,0,0,1,.23-.34,2,2,0,0,0,.13-2.78,2.07,2.07,0,0,0-2.8-.16c-1.56,1-3.1,2.1-4.73,3a15.88,15.88,0,0,1-10.65,1.87,2.92,2.92,0,0,0-2.9.95c-2.42,2.55-4.94,5-7.42,7.49a3.48,3.48,0,0,1-2.41,1.17,3,3,0,0,1-3-1.68A3.23,3.23,0,0,1,46.91,64c1.16-1.21,2.35-2.39,3.54-3.56,4.06-4,8.08-8,12.21-11.91a16.52,16.52,0,0,1,10.39-4.48c2.64-.2,5.29-.23,7.94-.27a2.17,2.17,0,0,0,1.6-.73c2.72-2.73,5.44-5.44,8.17-8.16l.5-.48"/>
      <path class="cls-4" d="M91.26,34.42l19.43,19.47a12.71,12.71,0,0,0-1.23,1c-2.57,2.55-5.11,5.14-7.69,7.68a2.49,2.49,0,0,0-.7,2.19,55.26,55.26,0,0,1,.32,6.16,16,16,0,0,1-2.06,7L80,58.17a3.34,3.34,0,0,1,.23-.34,2,2,0,0,0,.13-2.78,2.07,2.07,0,0,0-2.8-.16c-1.56,1-3.1,2.1-4.73,3a15.88,15.88,0,0,1-10.65,1.87,2.92,2.92,0,0,0-2.9.95c-2.42,2.55-4.94,5-7.42,7.49a3.48,3.48,0,0,1-2.41,1.17,3,3,0,0,1-3-1.68A3.23,3.23,0,0,1,46.91,64c1.16-1.21,2.35-2.39,3.54-3.56,4.06-4,8.08-8,12.21-11.91a16.52,16.52,0,0,1,10.39-4.48c2.64-.2,5.29-.23,7.94-.27a2.17,2.17,0,0,0,1.6-.73c2.72-2.73,5.44-5.44,8.17-8.16Z"/>
      <path class="cls-5" d="M53.17,96.12c-2.78,2.79-5.54,5.62-8.36,8.4a3.08,3.08,0,0,1-4.38,0,3.34,3.34,0,0,1-.33-4.34,1.71,1.71,0,0,1,.2-.27l8.34-8.36c1.54,1.54,3,3,4.53,4.53"/>
      <path class="cls-4" d="M53.17,96.12c-2.78,2.79-5.54,5.62-8.36,8.4a3.08,3.08,0,0,1-4.38,0,3.34,3.34,0,0,1-.33-4.34,1.71,1.71,0,0,1,.2-.27l8.34-8.36C50.18,93.13,51.66,94.62,53.17,96.12Z"/>
      <path class="cls-5" d="M45.87,88.81c-1.31,1.34-2.52,2.65-3.81,3.87a3.08,3.08,0,0,1-4.6.09A3.3,3.3,0,0,1,37.58,88c1.24-1.27,2.51-2.52,3.77-3.78l.24-.2,4.28,4.8"/>
      <path class="cls-4" d="M45.87,88.81c-1.31,1.34-2.52,2.65-3.81,3.87a3.08,3.08,0,0,1-4.6.09A3.3,3.3,0,0,1,37.58,88c1.24-1.27,2.51-2.52,3.77-3.78l.24-.2Z"/>
      <path class="cls-5" d="M60.65,103.49c-1.32,1.35-2.55,2.68-3.86,3.93a3,3,0,0,1-4.48.09,3.12,3.12,0,0,1-.07-4.62c1.25-1.34,2.59-2.61,3.85-3.86,1.54,1.5,3.07,3,4.56,4.46"/>
      <path class="cls-4" d="M60.65,103.49c-1.32,1.35-2.55,2.68-3.86,3.93a3,3,0,0,1-4.48.09,3.12,3.12,0,0,1-.07-4.62c1.25-1.34,2.59-2.61,3.85-3.86C57.63,100.53,59.16,102,60.65,103.49Z"/>
    </g>
  </g>
</svg>
