<svg id="Layer_1" data-name="Layer 1" xmlns="http://www.w3.org/2000/svg" xmlns:xlink="http://www.w3.org/1999/xlink" viewBox="0 0 141.73 141.73">
  <defs>
    <style>
      .cls-1 {
        fill: none;
      }

      .cls-2 {
        clip-path: url(#clip-path);
      }
    </style>
    <clipPath id="clip-path">
      <rect class="cls-1" width="141.73" height="141.73"/>
    </clipPath>
  </defs>
  <title>icon</title>
  <g class="cls-2">
    <g class="cls-2">
      <path d="M70.87,89.45A18.59,18.59,0,1,1,89.45,70.86,18.61,18.61,0,0,1,70.87,89.45m0-40.26A21.68,21.68,0,1,0,92.54,70.86,21.7,21.7,0,0,0,70.87,49.19"/>
      <path d="M109.58,75.85a1.21,1.21,0,0,1-1.21,1.21h-5.56l-.28,1.2a32.44,32.44,0,0,1-4,9.77l-.65,1L101.76,93a1.2,1.2,0,0,1,0,1.71l-7.05,7.05a1.2,1.2,0,0,1-1.71,0l-3.93-3.93-1,.65a32.44,32.44,0,0,1-9.77,4l-1.2.28v5.56a1.21,1.21,0,0,1-1.21,1.21h-10a1.21,1.21,0,0,1-1.21-1.21v-5.56l-1.2-.28a32.44,32.44,0,0,1-9.77-4l-1-.65-3.93,3.93a1.2,1.2,0,0,1-1.71,0L40,94.71A1.2,1.2,0,0,1,40,93l3.93-3.93-.65-1a32.44,32.44,0,0,1-4-9.77l-.28-1.2H33.36a1.21,1.21,0,0,1-1.21-1.21v-10a1.21,1.21,0,0,1,1.21-1.21h5.56l.28-1.2a32.44,32.44,0,0,1,4-9.77l.65-1L40,48.73A1.2,1.2,0,0,1,40,47L47,40a1.2,1.2,0,0,1,1.71,0l3.93,3.93,1-.65a32.44,32.44,0,0,1,9.77-4l1.2-.28V33.36a1.21,1.21,0,0,1,1.21-1.21h10a1.21,1.21,0,0,1,1.21,1.21v5.56l1.2.28a32.44,32.44,0,0,1,9.77,4l1,.65L93,40a1.2,1.2,0,0,1,1.71,0L101.76,47a1.2,1.2,0,0,1,0,1.71l-3.93,3.93.65,1a32.44,32.44,0,0,1,4,9.77l.28,1.2h5.56a1.21,1.21,0,0,1,1.21,1.21Zm-1.21-14.28h-3.12a35.48,35.48,0,0,0-3.5-8.45l2.2-2.21a4.31,4.31,0,0,0,0-6.09l-7-7a4.42,4.42,0,0,0-6.09,0L88.61,40a35.48,35.48,0,0,0-8.45-3.5V33.36a4.32,4.32,0,0,0-4.31-4.31h-10a4.32,4.32,0,0,0-4.31,4.31v3.12A35.48,35.48,0,0,0,53.12,40l-2.2-2.2a4.4,4.4,0,0,0-6.09,0l-7.06,7a4.31,4.31,0,0,0,0,6.09L40,53.12a35.48,35.48,0,0,0-3.5,8.45H33.36a4.32,4.32,0,0,0-4.31,4.31v10a4.32,4.32,0,0,0,4.31,4.31h3.12A35.48,35.48,0,0,0,40,88.61l-2.2,2.2a4.31,4.31,0,0,0,0,6.09l7,7.06a4.42,4.42,0,0,0,6.09,0l2.21-2.21a35.31,35.31,0,0,0,8.45,3.5v3.12a4.31,4.31,0,0,0,4.3,4.31h10a4.31,4.31,0,0,0,4.31-4.31v-3.12a35.48,35.48,0,0,0,8.45-3.5l2.2,2.21a4.44,4.44,0,0,0,6.1,0l7-7.06a4.31,4.31,0,0,0,0-6.09l-2.21-2.2a35.48,35.48,0,0,0,3.5-8.45h3.12a4.32,4.32,0,0,0,4.31-4.31v-10a4.32,4.32,0,0,0-4.31-4.31"/>
      <path d="M70.87,83.25A12.39,12.39,0,1,1,83.25,70.86,12.39,12.39,0,0,1,70.87,83.25m0-27.87A15.49,15.49,0,1,0,86.35,70.86,15.51,15.51,0,0,0,70.87,55.38"/>
    </g>
  </g>
</svg>
