<svg id="Layer_1" data-name="Layer 1" xmlns="http://www.w3.org/2000/svg" xmlns:xlink="http://www.w3.org/1999/xlink" viewBox="0 0 141.73 141.73">
  <defs>
    <style>
      .cls-1 {
        fill: none;
      }

      .cls-2 {
        clip-path: url(#clip-path);
      }

      .cls-3 {
        fill: #fff;
      }
    </style>
    <clipPath id="clip-path">
      <rect class="cls-1" width="141.73" height="141.73"/>
    </clipPath>
  </defs>
  <title>icon</title>
  <g class="cls-2">
    <g class="cls-2">
      <path d="M71,97.83q-13.15,0-26.32,0a20.65,20.65,0,0,1-4.37-.3A15.23,15.23,0,0,1,29,87.6a14.34,14.34,0,0,1-.78-6.29,15.26,15.26,0,0,1,9.63-12.69,14.91,14.91,0,0,1,4.42-1c.32,0,.37-.14.33-.42a21,21,0,0,1-.19-4,20.37,20.37,0,0,1,1.41-6.63,20.85,20.85,0,0,1,14-12.49,21.32,21.32,0,0,1,7.54-.57,18.86,18.86,0,0,1,4.51,1,20.81,20.81,0,0,1,7,4A19.08,19.08,0,0,1,79.86,52c.25.37.48.37.82.18A13.64,13.64,0,0,1,84,50.93a15.61,15.61,0,0,1,4-.45,16.25,16.25,0,0,1,11.49,4.87,16.29,16.29,0,0,1,4.61,12.46c-.06.73-.06.71.63,1a15,15,0,0,1,5.47,4.06,15.53,15.53,0,0,1,3,5.23,17.06,17.06,0,0,1,.59,2.64,12.8,12.8,0,0,1,.11,2.83,14.81,14.81,0,0,1-1.51,5.73,15.06,15.06,0,0,1-7.85,7.37,15.62,15.62,0,0,1-6.2,1.14q-13.65,0-27.29,0"/>
      <path class="cls-3" d="M51.19,53.07a15.87,15.87,0,0,1,7.42-4.56,16.42,16.42,0,0,1,16.24,4.41,17.89,17.89,0,0,1,3,4.35c.06.11.12.23.17.34.17.3.32.61.48.91s.2.36.45.18.45-.33.67-.51l.67-.5c.64-.49,1.33-.91,2-1.34A12,12,0,0,1,86.89,55a11.67,11.67,0,0,1,11.6,6.63,11.23,11.23,0,0,1,1,7c-.17,1-.42,1.89-.66,2.82-.09.37,0,.48.39.55A15.09,15.09,0,0,1,104,73.52a10.84,10.84,0,0,1,3.5,3.24A10.58,10.58,0,0,1,104.11,92a10.5,10.5,0,0,1-5.52,1.44H43.39a10.43,10.43,0,0,1-8.9-4.56,10,10,0,0,1-1.78-4.46,10.32,10.32,0,0,1,2.18-8.21,10.17,10.17,0,0,1,5.72-3.7,11.24,11.24,0,0,1,2.94-.33h4.53c.33,0,.45,0,.32-.42-.43-1.28-.86-2.57-1.18-3.88A15.44,15.44,0,0,1,47,62.12a22,22,0,0,1,.55-2.66,20.42,20.42,0,0,1,1.17-2.86,16.32,16.32,0,0,1,2.52-3.53"/>
    </g>
  </g>
</svg>
