<svg id="Layer_1" data-name="Layer 1" xmlns="http://www.w3.org/2000/svg" xmlns:xlink="http://www.w3.org/1999/xlink" viewBox="0 0 141.73 141.73">
  <defs>
    <style>
      .cls-1 {
        fill: none;
      }

      .cls-2 {
        clip-path: url(#clip-path);
      }
    </style>
    <clipPath id="clip-path">
      <rect class="cls-1" width="141.73" height="141.73"/>
    </clipPath>
  </defs>
  <title>icon</title>
  <g class="cls-2">
    <g class="cls-2">
      <path d="M70.83,88.55c4.17,0,7-2.52,7-6.23a6.74,6.74,0,0,0-7-6.46c-3.93,0-7.16,3-7.11,6.56s3,6.13,7.13,6.13Zm-9,0c-3-5.81-2.5-10.23,1.41-13.6a11.39,11.39,0,0,1,13-1.31c6.27,3.82,6.83,9,3.44,14.91,2,0,3.92-.08,5.78,0a1.67,1.67,0,0,0,2-1.42,16.11,16.11,0,0,0,.45-7.92c-1.78-9-11.88-14.86-21.57-12.52S51,78.72,54.15,87.36a1.52,1.52,0,0,0,1.75,1.22c1.91-.09,3.84,0,6,0M38.35,82.23a13.29,13.29,0,0,1,0,1.67c-.16,1.19.16,1.83,1.66,1.87a41.94,41.94,0,0,1,4.28.6A3.06,3.06,0,0,1,47,88c.58,1.14,2,.58,2.87.48s.2-.9.09-1.35A18.77,18.77,0,0,1,49.66,79c2.2-11.15,13.66-18.29,25.59-16C87,65.24,94.32,76.09,91.59,87.09c-.1.42-.88,1.23,0,1.37s2.42.66,2.94-.41c.69-1.42,1.85-1.55,3.18-1.74,1.77-.26,4.11-.08,5.12-1s.18-3.18.32-4.84c.07-1-.2-1.39-1.34-1.47-1.61-.12-3.21-.48-4.82-.66a2.54,2.54,0,0,1-2.51-2,12.71,12.71,0,0,0-1.93-4.47c-1.17-1.61-1-2.87.32-4.33,1.13-1.27,3.12-2.71,2.84-4s-2.4-2.5-3.64-3.77c-.64-.66-1.11-.57-1.79-.08-1.33,1-2.76,1.79-4.08,2.76a2.75,2.75,0,0,1-3.31.22,13.47,13.47,0,0,0-4.44-1.79C76.06,60.41,75,59.2,75,57.07a9,9,0,0,0-.13-1.16c-.58-3.46-.58-3.46-4.44-3.46-.42,0-.85,0-1.27,0-1.27-.16-2,.16-2.08,1.5s-.46,2.53-.58,3.8a2.9,2.9,0,0,1-2.71,2.84,12.36,12.36,0,0,0-4.32,1.62,3.75,3.75,0,0,1-4.87-.33c-1.3-1-2.89-2.64-4.22-2.54s-2.5,2-3.83,3.08c-.89.7-1.09,1.25-.24,2.14,1.06,1.13,1.9,2.44,2.9,3.62a2.21,2.21,0,0,1,.22,2.92,10.63,10.63,0,0,0-1.69,3.47c-.52,3-2.49,4.07-5.49,4.07a4.93,4.93,0,0,0-.54,0c-3.33.42-3.33.42-3.33,3.54m78.38,16.48H42.39c-.48,0-1,0-1.45,0-1.19-.08-1.92-.66-1.93-1.79s.76-1.71,1.92-1.82a14.78,14.78,0,0,1,1.63,0l72.73,0c1.13,0,1.8-.07,1.66-1.38-.1-.93.07-1.62-1.44-1.62q-44.6.08-89.2,0c-1.07,0-1.52.21-1.44,1.28.1,1.39,0,2.78,0,4.17,0,3.14,1.57,4.53,5,4.53h82c2.85,0,4.16-.9,4.86-3.38M34.81,88.38a10.41,10.41,0,0,1-.39-4c0-1.37,0-2.78,0-4.16-.06-4-.06-4.42,4.14-4.61,3.69-.16,5.8-1.56,6.65-4.84.16-.64.3-1.07-.18-1.64-1.18-1.4-2.24-2.89-3.42-4.3-1-1.19-.85-2.19.3-3.22,2.16-1.94,4.29-3.92,6.4-5.91a2.4,2.4,0,0,1,3.36-.26c1.46,1,2.95,1.93,4.38,3a2.61,2.61,0,0,0,2.41.3c3.66-.77,5-2.92,4.9-6.15a10.55,10.55,0,0,1,.31-1.81A2,2,0,0,1,66,48.85c3.2,0,6.39,0,9.59,0a2,2,0,0,1,2.29,1.85c.24,1.6.67,3.18.83,4.77.12,1.22.85,1.6,1.9,2.2,2.91,1.67,5.19,1,7.42-1a16.2,16.2,0,0,1,2-1.38,2.23,2.23,0,0,1,3.06.26c1.52,1.43,3.07,2.83,4.62,4.24,3.85,3.52,3.87,3.1.55,7-1.72,2-2.66,3.8-.88,6.1a1.4,1.4,0,0,1,.27.61c.19,1,.79,1.45,1.95,1.54,1.79.14,3.57.48,5.36.74,1.08.17,2.08.58,2.08,1.73,0,3.65.21,7.31-.13,11.07a23.67,23.67,0,0,1,2.91,0c1.57.18,2-.28,2-1.79q-.11-23.31,0-46.61c0-1.42-.4-1.7-1.87-1.7q-39.16.08-78.34,0H30.55a.76.76,0,0,0-.76.34,2,2,0,0,0,1.89,3H96.43c2.48,0,3.42.5,3.39,1.81s-1,1.8-3.45,1.8q-32.39,0-64.77,0c-1.5,0-1.89.36-1.88,1.75.06,12.41,0,24.84,0,37.25,0,4.42,0,4.42,4.83,4.1,0,0,.08-.06.22-.13m79.53,17.35H27.1c-4.84-1.74-6.54-5.16-6.17-9.75.12-1.55,0-3.12,0-4.67,0-2.33.44-2.83,2.91-2.73,1.57.07,2-.3,2-1.81-.06-16.21,0-32.41,0-48.62,0-3,.29-3.29,3.46-3.29h83.05c3,0,3.41.37,3.41,3.18,0,16.27,0,32.53,0,48.79,0,1.35.28,2,1.84,1.73a4.41,4.41,0,0,1,3.3.79v10a9.19,9.19,0,0,1-6.51,6.35"/>
      <path d="M105.81,41.82c1.21.06,1.94.65,2,1.75a1.72,1.72,0,0,1-1.89,1.81,1.75,1.75,0,0,1-2-1.73c0-1.1.69-1.73,1.9-1.83"/>
      <path d="M31,96.81a1.77,1.77,0,0,1,2-1.69,1.79,1.79,0,1,1-.17,3.57A1.75,1.75,0,0,1,31,96.81"/>
    </g>
  </g>
</svg>
