<svg id="Layer_1" data-name="Layer 1" xmlns="http://www.w3.org/2000/svg" xmlns:xlink="http://www.w3.org/1999/xlink" viewBox="0 0 141.73 141.73">
  <defs>
    <style>
      .cls-1, .cls-4 {
        fill: none;
      }

      .cls-2 {
        clip-path: url(#clip-path);
      }

      .cls-3 {
        fill: #fff;
      }

      .cls-4 {
        stroke: #000;
        stroke-width: 5px;
      }

      .cls-5 {
        fill: #4091c3;
      }
    </style>
    <clipPath id="clip-path">
      <rect class="cls-1" width="141.73" height="141.73"/>
    </clipPath>
  </defs>
  <title>icon</title>
  <g class="cls-2">
    <g class="cls-2">
      <path class="cls-3" d="M48.94,108.69a43.95,43.95,0,0,0,43.85,0,43.31,43.31,0,0,0,15.9-15.9,43.95,43.95,0,0,0,0-43.85A43.46,43.46,0,0,0,92.79,33a43.95,43.95,0,0,0-43.85,0A43.61,43.61,0,0,0,33,48.94a43.95,43.95,0,0,0,0,43.85,43.46,43.46,0,0,0,15.9,15.9"/>
      <path class="cls-4" d="M48.94,108.69a43.95,43.95,0,0,0,43.85,0,43.31,43.31,0,0,0,15.9-15.9,43.95,43.95,0,0,0,0-43.85A43.46,43.46,0,0,0,92.79,33a43.95,43.95,0,0,0-43.85,0A43.61,43.61,0,0,0,33,48.94a43.95,43.95,0,0,0,0,43.85A43.46,43.46,0,0,0,48.94,108.69Z"/>
      <path class="cls-5" d="M47.94,73.43,64.67,90.15a3.57,3.57,0,0,0,5.12,0l24-24a3.56,3.56,0,0,0,0-5.11L88,55.22a3.57,3.57,0,0,0-5.12,0L67.23,70.87,58.86,62.5a3.56,3.56,0,0,0-5.11,0l-5.81,5.81a3.57,3.57,0,0,0,0,5.12"/>
      <path class="cls-4" d="M47.94,73.43,64.67,90.15a3.57,3.57,0,0,0,5.12,0l24-24a3.56,3.56,0,0,0,0-5.11L88,55.22a3.57,3.57,0,0,0-5.12,0L67.23,70.87,58.86,62.5a3.56,3.56,0,0,0-5.11,0l-5.81,5.81a3.57,3.57,0,0,0,0,5.12Z"/>
    </g>
  </g>
</svg>
