<svg id="Layer_1" data-name="Layer 1" xmlns="http://www.w3.org/2000/svg" xmlns:xlink="http://www.w3.org/1999/xlink" viewBox="0 0 141.73 141.73">
  <defs>
    <style>
      .cls-1, .cls-3, .cls-6 {
        fill: none;
      }

      .cls-2 {
        clip-path: url(#clip-path);
      }

      .cls-3, .cls-6 {
        stroke: #000;
        stroke-miterlimit: 10;
      }

      .cls-4 {
        fill: #fff;
      }

      .cls-5 {
        fill: #53bcb5;
      }

      .cls-6 {
        stroke-width: 0.75px;
      }
    </style>
    <clipPath id="clip-path">
      <rect class="cls-1" width="141.73" height="141.73"/>
    </clipPath>
  </defs>
  <title>icon</title>
  <g class="cls-2">
    <g class="cls-2">
      <path d="M70.92,99.9c-10,0-19.91,0-29.87,0A9.37,9.37,0,0,1,31.39,91c-.07-1-.05-2.09,0-3.14a2.11,2.11,0,0,1,1.87-2.13c.57,0,.61-.29.61-.76q0-18.4,0-36.82a6.9,6.9,0,0,1,.93-3.78,6.14,6.14,0,0,1,5.1-3h61.69a6.22,6.22,0,0,1,6.2,4.25,8,8,0,0,1,.36,2.62q0,18.35,0,36.69c0,.56.1.77.7.82a1.75,1.75,0,0,1,1.66,1.54c.31,3,.3,6-1.59,8.63a9.24,9.24,0,0,1-7.94,4q-15,0-30,0"/>
      <path class="cls-3" d="M70.92,99.9c-10,0-19.91,0-29.87,0A9.37,9.37,0,0,1,31.39,91c-.07-1-.05-2.09,0-3.14a2.11,2.11,0,0,1,1.87-2.13c.57,0,.61-.29.61-.76q0-18.4,0-36.82a6.9,6.9,0,0,1,.93-3.78,6.14,6.14,0,0,1,5.1-3h61.69a6.22,6.22,0,0,1,6.2,4.25,8,8,0,0,1,.36,2.62q0,18.35,0,36.69c0,.56.1.77.7.82a1.75,1.75,0,0,1,1.66,1.54c.31,3,.3,6-1.59,8.63a9.24,9.24,0,0,1-7.94,4Q85.93,99.88,70.92,99.9Z"/>
      <path class="cls-4" d="M71,85.69q-16.68,0-33.36,0c-.58,0-.73-.12-.73-.73q0-18.54,0-37.07a3.13,3.13,0,0,1,3.34-3.39H101.7A3.15,3.15,0,0,1,105,47.87q0,18.65,0,37.27c0,.65-.32.55-.7.55H71"/>
      <path class="cls-3" d="M71,85.69q-16.68,0-33.36,0c-.58,0-.73-.12-.73-.73q0-18.54,0-37.07a3.13,3.13,0,0,1,3.34-3.39H101.7A3.15,3.15,0,0,1,105,47.87q0,18.65,0,37.27c0,.65-.32.55-.7.55Z"/>
      <path class="cls-5" d="M71,88.71q17.86,0,35.75,0c.6,0,.79.14.77.79a8.23,8.23,0,0,1-.74,3.83,6.05,6.05,0,0,1-5.08,3.43q-.46,0-.93,0H41.16A6.31,6.31,0,0,1,34.44,90c0-1.26,0-1.26,1.21-1.26Z"/>
      <path class="cls-3" d="M71,88.71q17.86,0,35.75,0c.6,0,.79.14.77.79a8.23,8.23,0,0,1-.74,3.83,6.05,6.05,0,0,1-5.08,3.43q-.46,0-.93,0H41.16A6.31,6.31,0,0,1,34.44,90c0-1.26,0-1.26,1.21-1.26Z"/>
      <path d="M70.93,94c-1.49,0-3,0-4.49,0a1.24,1.24,0,1,1,0-2.47H75.5a1.22,1.22,0,0,1,1.32,1.23A1.18,1.18,0,0,1,75.53,94c-1.53,0-3.07,0-4.6,0"/>
      <path class="cls-6" d="M70.93,94c-1.49,0-3,0-4.49,0a1.24,1.24,0,1,1,0-2.47H75.5a1.22,1.22,0,0,1,1.32,1.23A1.18,1.18,0,0,1,75.53,94C74,94,72.46,94,70.93,94Z"/>
    </g>
  </g>
</svg>
