<svg id="Layer_1" data-name="Layer 1" xmlns="http://www.w3.org/2000/svg" xmlns:xlink="http://www.w3.org/1999/xlink" viewBox="0 0 141.73 141.73">
  <defs>
    <style>
      .cls-1 {
        fill: none;
      }

      .cls-2 {
        clip-path: url(#clip-path);
      }

      .cls-3 {
        fill: #4091c3;
      }
    </style>
    <clipPath id="clip-path">
      <rect class="cls-1" width="141.73" height="141.73"/>
    </clipPath>
  </defs>
  <title>icon</title>
  <g class="cls-2">
    <polygon class="cls-3" points="87.02 51.02 90.14 55.27 79.37 66.9 75.69 62.93 87.02 51.02"/>
    <g class="cls-2">
      <path d="M71.75,56.14c-1.5,0-3,0-4.48,0a1.47,1.47,0,0,1-1.62-1.43A1.36,1.36,0,0,1,67,53.08c3.16-.08,6.33-.07,9.49,0,.89,0,1.26.78,1.27,1.58a1.43,1.43,0,0,1-1.57,1.48c-1.49,0-3,0-4.47,0"/>
      <path d="M102.11,56.14c-1.43,0-2.86,0-4.28,0a1.47,1.47,0,0,1-1.7-1.54,1.39,1.39,0,0,1,1.49-1.55c3.1-.06,6.21-.06,9.31,0,.93,0,1.39.74,1.34,1.7a1.38,1.38,0,0,1-1.5,1.34c-1.55.07-3.1,0-4.66,0Z"/>
      <path d="M79,48.25a2.2,2.2,0,0,1-1.46-.82c-2-2-4-4-5.95-6-.72-.71-1.26-1.52-.38-2.4a1.74,1.74,0,0,1,2.66.12c2,2,4,3.95,5.95,5.95a1.83,1.83,0,0,1,.47,2.21,1.5,1.5,0,0,1-1.29.89"/>
      <path d="M95,48.23a1.27,1.27,0,0,1-1.3-.72,1.74,1.74,0,0,1,.08-2,72.34,72.34,0,0,1,6.75-6.7,1.37,1.37,0,0,1,1.9.06,1.48,1.48,0,0,1,.22,1.9,56.28,56.28,0,0,1-7.2,7.28,1.1,1.1,0,0,1-.45.14"/>
      <path d="M94.91,61a2,2,0,0,1,1.44.77L102,67.28c.92.89,1.34,2,.39,2.94s-1.82.22-2.6-.59c-1.83-1.88-3.7-3.71-5.55-5.57a2,2,0,0,1-.6-2.21A1.25,1.25,0,0,1,94.91,61"/>
      <path d="M88.37,69.84c0,1.43,0,2.86,0,4.29A1.54,1.54,0,0,1,86.9,75.9c-1,.1-1.49-.73-1.51-1.55-.08-3.1-.07-6.21,0-9.31a1.42,1.42,0,0,1,1.68-1.37,1.34,1.34,0,0,1,1.31,1.51c0,1.56,0,3.11,0,4.66"/>
      <path d="M88.37,39.46c0,1.43,0,2.87,0,4.3a1.43,1.43,0,0,1-1.44,1.61,1.27,1.27,0,0,1-1.51-1.31c-.08-3.18-.11-6.36,0-9.54a1.43,1.43,0,0,1,1.72-1.34,1.4,1.4,0,0,1,1.26,1.59c0,1.56,0,3.12,0,4.69"/>
      <path d="M87.73,55.54l-7.89,7.91c-.45.45-.85.71-1.37.08s-.94-.82-.24-1.52c2.7-2.66,5.37-5.35,8-8,.16-.16.34-.31.57-.52.44.39.83.68,1.17,1s0,.76-.29,1M75.91,67.36,40,103.2c-.59.59-1,1-1.81.24s-.14-1.18.34-1.65q17.94-18,35.91-35.91c.35-.35.66-1.06,1.35-.49a11.83,11.83,0,0,1,1,1.09c-.32.34-.57.61-.84.88m16-13.45a34.47,34.47,0,0,1-3.56-3.59c-1.09-1.31-1.79-1.1-2.92,0C76,59.82,66.6,69.2,57.2,78.61,49.56,86.24,41.94,93.9,34.27,101.5c-1,1-1.18,1.53,0,2.5,1.34,1.11,2.49,2.45,3.73,3.68a13.93,13.93,0,0,0,1.11.88c.53-.5,1-1,1.51-1.43l50.6-50.6c.22-.22.43-.46.67-.66.78-.66.85-1.21,0-2"/>
    </g>
  </g>
</svg>
