<svg id="Layer_1" data-name="Layer 1" xmlns="http://www.w3.org/2000/svg" xmlns:xlink="http://www.w3.org/1999/xlink" viewBox="0 0 141.73 141.73">
  <defs>
    <style>
      .cls-1 {
        fill: none;
      }

      .cls-2 {
        clip-path: url(#clip-path);
      }

      .cls-3 {
        fill: #f6f6f6;
      }

      .cls-4 {
        fill: #91c1a2;
      }

      .cls-5 {
        fill: #5892c4;
      }

      .cls-6 {
        fill: #141310;
      }
    </style>
    <clipPath id="clip-path">
      <rect class="cls-1" width="141.73" height="141.73"/>
    </clipPath>
  </defs>
  <title>icon</title>
  <g class="cls-2">
    <g class="cls-2">
      <path class="cls-3" d="M63.81,74a21.49,21.49,0,0,1,.42,4.22,20.94,20.94,0,1,1-21-20.9,21.54,21.54,0,0,1,6.22.92A21.11,21.11,0,0,1,63.81,74"/>
      <path class="cls-4" d="M72.34,87.94l.1,7.12a66.5,66.5,0,0,1-9.74-.86,25.23,25.23,0,0,0,4-6.91c1.78.15,3.67.25,5.61.27Z"/>
      <path class="cls-3" d="M72.12,76.06l.13,7.28c-1.49,0-2.94-.08-4.34-.18a26.29,26.29,0,0,0,.48-4.92,18.79,18.79,0,0,0-.11-2.47c1.24.08,2.52.12,3.83.14,0,0,0,.11,0,.15"/>
      <path class="cls-4" d="M95.24,60.23V65.8c-9,.25-18.35,2.14-21.79,5.94h-.19c-2,0-4-.09-5.77-.21a24.87,24.87,0,0,0-3.76-7.81,75.42,75.42,0,0,0,9.51.61,62.4,62.4,0,0,0,17.38-2.21,26.35,26.35,0,0,0,4.62-1.89"/>
      <path class="cls-3" d="M89.42,40.23C94,41.61,95,43,95,43.33s-1,1.75-5.56,3.11a59.26,59.26,0,0,1-16.14,2,57.56,57.56,0,0,1-15.47-1.89c-4.52-1.3-5.77-2.75-5.88-3.21,0-.05,0-.07,0-.07,0-.29,1-1.72,5.42-3.08a56.7,56.7,0,0,1,16-2,58.74,58.74,0,0,1,16.16,2"/>
      <path class="cls-3" d="M95.24,48.58V54A1.69,1.69,0,0,0,95,55c0,.28-1,1.73-5.56,3.11a59.41,59.41,0,0,1-16.16,2,60,60,0,0,1-14.3-1.58l-.17,0a25,25,0,0,0-6.56-3.72l-.15-5.91a23.68,23.68,0,0,0,4.53,1.74,62.23,62.23,0,0,0,16.65,2,62.17,62.17,0,0,0,17.36-2.2,22.47,22.47,0,0,0,4.64-1.85"/>
      <path class="cls-3" d="M119.31,75.05v0c0,.32-1.07,1.77-5.73,3.15a58.33,58.33,0,0,1-16,2,59,59,0,0,1-15.24-1.81c-4-1.13-5.63-2.41-6-3.06a1.27,1.27,0,0,0-.08-.36c.21-.59,1.74-2,6-3.17a57.76,57.76,0,0,1,15-1.79h.27a58.85,58.85,0,0,1,16.16,2c4.43,1.34,5.48,2.69,5.54,3"/>
      <path class="cls-3" d="M119.38,92v6.36c0,.3-.95,1.74-5.4,3.13a56.22,56.22,0,0,1-16,2.06,57.17,57.17,0,0,1-15.94-2c-4.45-1.36-5.35-2.77-5.35-3.08v0l-.1-6.06c5,2.54,13.33,3.69,21,3.69a61.92,61.92,0,0,0,17.32-2.2A24.21,24.21,0,0,0,119.38,92"/>
      <path class="cls-5" d="M119.36,85.8h0c0,.27-.19.59-.19.9s-1,1.73-5.5,3.11a58,58,0,0,1-16.1,2c-11.53,0-19.33-2.59-21.06-4.62l0-1.81-.08-4.8a24.9,24.9,0,0,0,4.78,1.82,63.31,63.31,0,0,0,16.38,2,62.66,62.66,0,0,0,17.15-2.14,24.51,24.51,0,0,0,4.64-1.84Z"/>
      <path class="cls-6" d="M64.23,78.24A21.49,21.49,0,0,0,63.81,74,21.11,21.11,0,0,0,49.5,58.26a21.54,21.54,0,0,0-6.22-.92,20.91,20.91,0,1,0,21,20.9m8,5.1-.13-7.28s0-.11,0-.15c-1.31,0-2.59-.06-3.83-.14a18.79,18.79,0,0,1,.11,2.47,26.29,26.29,0,0,1-.48,4.92c1.4.1,2.85.16,4.34.18m.19,11.72-.1-7.12v-.38c-1.94,0-3.83-.12-5.61-.27a25.23,25.23,0,0,1-4,6.91,67.9,67.9,0,0,0,9.74.86M95,43.33c0-.29-1-1.72-5.54-3.1a58.36,58.36,0,0,0-16.16-2,56.33,56.33,0,0,0-16,2c-4.43,1.36-5.4,2.79-5.42,3.08,0,0,0,0,0,.07.11.46,1.36,1.91,5.88,3.21a57.56,57.56,0,0,0,15.47,1.89,59.26,59.26,0,0,0,16.14-2C94,45.08,95,43.63,95,43.33M95.24,54V48.58a22.69,22.69,0,0,1-4.64,1.85,62.17,62.17,0,0,1-17.36,2.2,62.23,62.23,0,0,1-16.65-2,23.68,23.68,0,0,1-4.53-1.74l.15,5.91a25,25,0,0,1,6.56,3.72l.17,0a60,60,0,0,0,14.3,1.58,59.41,59.41,0,0,0,16.16-2C94,56.69,95,55.24,95,55a1.69,1.69,0,0,1,.28-1m0,11.84V60.23a26.35,26.35,0,0,1-4.62,1.89,62.42,62.42,0,0,1-17.38,2.2,75.42,75.42,0,0,1-9.51-.6,24.87,24.87,0,0,1,3.76,7.81c1.8.12,3.75.21,5.77.21h.19c3.44-3.8,12.76-5.69,21.79-5.94m24.07,9.27v0c-.06-.35-1.11-1.7-5.54-3a58.85,58.85,0,0,0-16.16-2h-.27a57.76,57.76,0,0,0-15,1.79C78,73,76.47,74.38,76.26,75a1.74,1.74,0,0,1,.08.36c.4.65,2,1.93,6,3.06A59,59,0,0,0,97.61,80.2a58.33,58.33,0,0,0,16-2c4.66-1.38,5.71-2.83,5.73-3.15m.07,10.73h0V80.4a23.89,23.89,0,0,1-4.64,1.85,62.66,62.66,0,0,1-17.15,2.14,63.31,63.31,0,0,1-16.38-2,24.9,24.9,0,0,1-4.78-1.82l.08,4.8,0,1.81c1.73,2,9.53,4.62,21.06,4.62a58,58,0,0,0,16.1-2c4.53-1.39,5.5-2.81,5.5-3.11s.19-.63.19-.9m0,12.53V92a24.21,24.21,0,0,1-4.47,1.85A61.92,61.92,0,0,1,97.59,96c-7.64,0-16-1.15-21-3.69l.1,6.06v0c0,.31.9,1.72,5.35,3.08a57.17,57.17,0,0,0,15.94,2,56.22,56.22,0,0,0,16-2.06c4.45-1.39,5.4-2.84,5.4-3.13m4.2-23.07V98.33c0,3.76-4.54,6-8.36,7.14A60.12,60.12,0,0,1,98,107.72c-11.76,0-24.35-2.67-25.42-8.49a62.64,62.64,0,0,1-13.46-1.46,25.13,25.13,0,0,1-41-19.5,24.44,24.44,0,0,1,.44-4.69A25.11,25.11,0,0,1,48,53.6L47.76,44a3.26,3.26,0,0,1-.07-.7c0-3.75,4.56-5.94,8.36-7.11A60.48,60.48,0,0,1,73.24,34a62.4,62.4,0,0,1,17.38,2.21c4.87,1.47,7.68,3.44,8.38,5.87a2,2,0,0,1,.44,1.27V65.75A60.11,60.11,0,0,1,115,67.94c5.27,1.59,8.08,3.77,8.46,6.5a2.33,2.33,0,0,1,.15.82"/>
      <path class="cls-6" d="M53.76,89.47a2.1,2.1,0,0,0-2.71-1.21v0a10.72,10.72,0,0,1-11.42-2.46,7,7,0,0,1-1.49-1.91H48.93a2.1,2.1,0,1,0,0-4.2H36.61a8.48,8.48,0,0,1-.07-2.31H50a2.1,2.1,0,0,0,0-4.2H37.78a12.65,12.65,0,0,1,1.83-2.47A10.72,10.72,0,0,1,51,68.27a2.09,2.09,0,1,0,1.51-3.9,14.91,14.91,0,0,0-15.91,3.38,14.4,14.4,0,0,0-3.47,5.44h-3a2.1,2.1,0,1,0,0,4.19h2.1a13.69,13.69,0,0,0,0,2.31H30.18a2.1,2.1,0,1,0,0,4.2H33.4a13.91,13.91,0,0,0,3.23,4.89,14.89,14.89,0,0,0,15.91,3.4,2.1,2.1,0,0,0,1.22-2.71"/>
    </g>
  </g>
</svg>
