<svg id="Layer_1" data-name="Layer 1" xmlns="http://www.w3.org/2000/svg" xmlns:xlink="http://www.w3.org/1999/xlink" viewBox="0 0 141.73 141.73">
  <defs>
    <style>
      .cls-1, .cls-5 {
        fill: none;
      }

      .cls-2 {
        clip-path: url(#clip-path);
      }

      .cls-3 {
        fill: #26bade;
      }

      .cls-4 {
        fill: #fff;
      }

      .cls-5 {
        stroke: #000;
        stroke-miterlimit: 10;
        stroke-width: 1.6px;
      }
    </style>
    <clipPath id="clip-path">
      <rect class="cls-1" width="141.73" height="141.73"/>
    </clipPath>
  </defs>
  <title>icon</title>
  <g class="cls-2">
    <rect class="cls-3" x="41.53" y="64.65" width="58.95" height="12.13"/>
    <rect class="cls-4" x="41.53" y="79.51" width="58.95" height="12.13"/>
    <rect class="cls-4" x="41.53" y="51.41" width="58.95" height="12.13"/>
    <g class="cls-2">
      <path d="M101.22,66.85v7.71a1.88,1.88,0,0,1-2,2H42.75a1.88,1.88,0,0,1-2-2V66.85a1.83,1.83,0,0,1,1.78-2h57a1.87,1.87,0,0,1,1.71,2m0,22.2a1.88,1.88,0,0,1-2,2H42.75a1.89,1.89,0,0,1-2-2V81.34a1.89,1.89,0,0,1,2-2H99.21a1.88,1.88,0,0,1,2,2ZM40.73,60.17V52.46a1.89,1.89,0,0,1,2-2H99.21a1.88,1.88,0,0,1,2,2v7.71a1.83,1.83,0,0,1-1.77,2l-.24,0H42.75l-.3,0a1.88,1.88,0,0,1-1.72-2m63.15,0V52.46a4.54,4.54,0,0,0-4.67-4.69H42.75a4.55,4.55,0,0,0-4.68,4.69v7.71a5,5,0,0,0,1.31,3.34,4.45,4.45,0,0,0-1.31,3.34v7.71A5,5,0,0,0,39.43,78a4.49,4.49,0,0,0-1.36,3.39v7.71a4.55,4.55,0,0,0,4.68,4.69H99.21a4.55,4.55,0,0,0,4.67-4.69V81.34A5,5,0,0,0,102.52,78a4.49,4.49,0,0,0,1.36-3.39V66.85a5,5,0,0,0-1.31-3.34,4.45,4.45,0,0,0,1.31-3.34"/>
      <path class="cls-5" d="M101.22,66.85v7.71a1.88,1.88,0,0,1-2,2H42.75a1.88,1.88,0,0,1-2-2V66.85a1.83,1.83,0,0,1,1.78-2h57A1.87,1.87,0,0,1,101.22,66.85Zm0,22.2a1.88,1.88,0,0,1-2,2H42.75a1.89,1.89,0,0,1-2-2V81.34a1.89,1.89,0,0,1,2-2H99.21a1.88,1.88,0,0,1,2,2ZM40.73,60.17V52.46a1.89,1.89,0,0,1,2-2H99.21a1.88,1.88,0,0,1,2,2v7.71a1.83,1.83,0,0,1-1.77,2l-.24,0H42.75l-.3,0A1.88,1.88,0,0,1,40.73,60.17Zm63.15,0V52.46a4.54,4.54,0,0,0-4.67-4.69H42.75a4.55,4.55,0,0,0-4.68,4.69v7.71a5,5,0,0,0,1.31,3.34,4.45,4.45,0,0,0-1.31,3.34v7.71A5,5,0,0,0,39.43,78a4.49,4.49,0,0,0-1.36,3.39v7.71a4.55,4.55,0,0,0,4.68,4.69H99.21a4.55,4.55,0,0,0,4.67-4.69V81.34A5,5,0,0,0,102.52,78a4.49,4.49,0,0,0,1.36-3.39V66.85a5,5,0,0,0-1.31-3.34A4.45,4.45,0,0,0,103.88,60.17Z"/>
      <path d="M85.11,58.62a2.4,2.4,0,1,0-2.4-2.4,2.4,2.4,0,0,0,2.4,2.4"/>
      <path d="M85.11,73.1a2.4,2.4,0,1,0-2.4-2.4,2.39,2.39,0,0,0,2.4,2.4"/>
      <path d="M85.11,87.52a2.4,2.4,0,1,0-2.4-2.4,2.4,2.4,0,0,0,2.4,2.4"/>
      <path d="M78,58.62a2.4,2.4,0,1,0-2.4-2.4,2.41,2.41,0,0,0,2.4,2.4"/>
      <path d="M78,73.1a2.4,2.4,0,1,0-2.4-2.4A2.4,2.4,0,0,0,78,73.1"/>
      <path d="M78,87.52a2.4,2.4,0,1,0-2.4-2.4,2.41,2.41,0,0,0,2.4,2.4"/>
      <path d="M92.2,58.62a2.4,2.4,0,1,0-2.4-2.4,2.4,2.4,0,0,0,2.4,2.4"/>
      <path d="M92.2,73.1a2.4,2.4,0,1,0-2.4-2.4,2.39,2.39,0,0,0,2.4,2.4"/>
      <path d="M92.2,87.52a2.4,2.4,0,1,0-2.4-2.4,2.4,2.4,0,0,0,2.4,2.4"/>
    </g>
  </g>
</svg>
