<svg id="Layer_1" data-name="Layer 1" xmlns="http://www.w3.org/2000/svg" xmlns:xlink="http://www.w3.org/1999/xlink" viewBox="0 0 141.73 141.73">
  <defs>
    <style>
      .cls-1 {
        fill: none;
      }

      .cls-2 {
        clip-path: url(#clip-path);
      }

      .cls-3 {
        fill: #4091c3;
      }

      .cls-4 {
        fill: #fff;
      }

      .cls-5 {
        fill: #141310;
      }
    </style>
    <clipPath id="clip-path">
      <rect class="cls-1" width="141.73" height="141.73"/>
    </clipPath>
  </defs>
  <title>icon</title>
  <g class="cls-2">
    <g class="cls-2">
      <path class="cls-3" d="M102.28,41.1V54.33H89.06a4.87,4.87,0,0,0-5,5V70.87h16.54V84.1H84.09v33.06H70.87V84.1H57.64V70.87H70.87V59.29A18.31,18.31,0,0,1,87.4,41.1Z"/>
      <path class="cls-4" d="M117.16,29.53V112.2a4.86,4.86,0,0,1-5,5H87.4V87.4h16.54V67.56H87.4V59.29a1.56,1.56,0,0,1,1.66-1.65h16.53V37.79H87.24a21.71,21.71,0,0,0-19.68,21.5v8.27H54.33V87.4H67.56v29.76h-38a4.87,4.87,0,0,1-5-5V29.53a4.87,4.87,0,0,1,5-5H112.2a4.87,4.87,0,0,1,5,5"/>
      <path class="cls-5" d="M102.28,54.33V41.1H87.4A18.31,18.31,0,0,0,70.87,59.29V70.87H57.64V84.09H70.87v33.07H84.1V84.09h16.53V70.87H84.1V59.29a4.87,4.87,0,0,1,5-5Zm14.88,57.87V29.53a4.87,4.87,0,0,0-5-5H29.53a4.87,4.87,0,0,0-5,5V112.2a4.87,4.87,0,0,0,5,5h38V87.4H54.33V67.56H67.56V59.29a21.71,21.71,0,0,1,19.68-21.5h18.35V57.64H89.06a1.56,1.56,0,0,0-1.66,1.65v8.27h16.54V87.4H87.4v29.76h24.8a4.86,4.86,0,0,0,5-5m3.31-82.67V112.2a8.18,8.18,0,0,1-8.27,8.27H29.53a8.19,8.19,0,0,1-8.27-8.27V29.53a8.19,8.19,0,0,1,8.27-8.27H112.2a8.18,8.18,0,0,1,8.27,8.27"/>
    </g>
  </g>
</svg>
