<svg id="Layer_1" data-name="Layer 1" xmlns="http://www.w3.org/2000/svg" xmlns:xlink="http://www.w3.org/1999/xlink" viewBox="0 0 141.73 141.73">
  <defs>
    <style>
      .cls-1 {
        fill: none;
      }

      .cls-2 {
        clip-path: url(#clip-path);
      }

      .cls-3 {
        fill: #fff;
      }

      .cls-4 {
        fill: #141310;
      }
    </style>
    <clipPath id="clip-path">
      <rect class="cls-1" width="141.73" height="141.73"/>
    </clipPath>
  </defs>
  <title>icon</title>
  <g class="cls-2">
    <g class="cls-2">
      <path class="cls-3" d="M106.34,46.91h3.3c-.63.83-1.37,1.83-2.27,3a15.47,15.47,0,0,0-3,10.08C105.2,75.38,101,87.29,92,95.42c-10.55,9.5-27.56,13.23-46.68,10.23a46.1,46.1,0,0,1-10-3,160.53,160.53,0,0,0,18.11-7.45l10.44-4.94-11.53-.74a16.32,16.32,0,0,1-13-7.37,20.36,20.36,0,0,0,4.39-.74l11-3.06L43.69,75.67a16.54,16.54,0,0,1-10.09-7,17,17,0,0,1-2.19-4.82,28.17,28.17,0,0,0,4.5.71l10.27,1-8.13-6.35c-5.86-4.57-8.21-11.43-6.49-18,18.29,19,39.76,17.54,41.92,18a38.09,38.09,0,0,0-.61-5.07c-2.77-9.78,3.29-14.75,6-16.43,5.71-3.52,14.79-4,21.07,1.74a5.33,5.33,0,0,0,4.91,1.31,38.46,38.46,0,0,0,4-1.23Z"/>
      <path class="cls-4" d="M109.64,46.91h-3.3l2.58-7.37a38.46,38.46,0,0,1-4,1.23A5.33,5.33,0,0,1,100,39.46c-6.29-5.79-15.36-5.26-21.07-1.75-2.74,1.69-8.8,6.66-6,16.44.13.44.14.45.62,5.07-2.16-.5-23.63.93-41.92-18-1.72,6.6.63,13.46,6.49,18l8.13,6.35-10.27-1a26.86,26.86,0,0,1-4.5-.72,17,17,0,0,0,2.19,4.83,16.54,16.54,0,0,0,10.09,7l11.09,2.71-11,3.06a20.36,20.36,0,0,1-4.39.74,16.32,16.32,0,0,0,13,7.37l11.53.74L53.43,95.23a159.85,159.85,0,0,1-18.12,7.45,46.36,46.36,0,0,0,10,3c19.12,3,36.13-.73,46.68-10.23,9-8.13,13.21-20,12.42-35.4a15.47,15.47,0,0,1,3-10.08c.9-1.2,1.64-2.2,2.27-3m9-17.17-3.79,10.85c.72-.06.58,0,7-.33,0,0-7.2,9.88-9.73,13.26a9.47,9.47,0,0,0-1.78,6.19c.77,15.23-3,29.86-14.4,40.15-13.56,12.21-33.7,14.5-51.59,11.69-8-1.26-16.2-5.47-18.5-6.73l-6.05-3.31,6.55-2.15c7.15-2.35,11.51-3.81,16.9-6.1A22.45,22.45,0,0,1,31.73,79.87l-1.52-4.62,1.25.19a22.2,22.2,0,0,1-2.85-3.51A21.5,21.5,0,0,1,25,59.13l.29-4,2.41.94a22.83,22.83,0,0,1-2.19-6.14A23.35,23.35,0,0,1,28,34.19l2.1-3.87,2.82,3.38A51.8,51.8,0,0,0,66.44,52.6a19.4,19.4,0,0,1,9.33-20c8.4-5.16,20.14-4.85,28,2.25,3-.77,14.69-5.08,14.87-5.14"/>
    </g>
  </g>
</svg>
