<svg id="Layer_1" data-name="Layer 1" xmlns="http://www.w3.org/2000/svg" xmlns:xlink="http://www.w3.org/1999/xlink" viewBox="0 0 141.73 141.73">
  <defs>
    <style>
      .cls-1 {
        fill: none;
      }

      .cls-2 {
        clip-path: url(#clip-path);
      }

      .cls-3 {
        fill: #0b0b0b;
      }

      .cls-4 {
        fill: #030303;
      }

      .cls-5 {
        fill: #fafbfb;
      }

      .cls-6 {
        fill: #fefeff;
      }

      .cls-7 {
        fill: #f5f5f5;
      }

      .cls-8 {
        fill: #f7f7f7;
      }

      .cls-9 {
        fill: #e6e6e5;
      }

      .cls-10 {
        fill: #eaeaea;
      }

      .cls-11 {
        fill: #e8e8e8;
      }

      .cls-12 {
        fill: #161516;
      }

      .cls-13 {
        fill: #171717;
      }

      .cls-14 {
        fill: #191919;
      }

      .cls-15 {
        fill: #020404;
      }

      .cls-16 {
        fill: #26bade;
      }
    </style>
    <clipPath id="clip-path">
      <rect class="cls-1" width="141.73" height="141.73"/>
    </clipPath>
  </defs>
  <title>icon</title>
  <g class="cls-2">
    <g class="cls-2">
      <path d="M107.09,104.54c2.54.37,4.64.11,6.61.9a12.17,12.17,0,0,1,7.58,13,3.19,3.19,0,0,1-3.39,3.13q-13.4.09-26.78,0c-2.48,0-3.4-1.7-3.51-4a12,12,0,0,1,11.59-12.85l2.9-.14c-4.76-2.26-6.32-5.72-6-10.16a2.72,2.72,0,0,0-.26-1.36,7.8,7.8,0,0,1,6.48-11.94,18.36,18.36,0,0,1,6.23.25c5.28,1.53,7.37,6.88,4.71,11.72A2.54,2.54,0,0,0,113,94.5c.36,4.49-1.38,7.86-5.87,10"/>
      <path d="M40.14,104.46c2.86.36,5.56.37,8,1.84a12.52,12.52,0,0,1,5.94,11.81c-.27,2.21-1.43,3.5-3.71,3.5q-13.11,0-26.21,0c-2.58,0-3.69-1.4-3.77-4-.24-7.47,4.5-12.62,12-12.92l2.35-.11c-4.71-2.31-6.46-5.79-6-10.36.12-1.23-1.09-1.46-1.39-2.27a7.76,7.76,0,0,1,.27-5.57c1.62-4.32,6.2-6.17,12.57-5.24,3.88.57,7.83,4.12,6.84,8-1.34,5.28.06,12.22-6.93,15.21"/>
      <path d="M34.37,43.68C30,41.25,28.44,38,28.73,33.86a2.75,2.75,0,0,0-.31-1.59,7.5,7.5,0,0,1,3.33-11,13.36,13.36,0,0,1,10.8-.05c4.45,1.87,5.71,6.62,3.27,11.17a3.31,3.31,0,0,0-.17,1.11c-.7,6.44-.7,6.44-5,10.2A22.6,22.6,0,0,1,47,45a12.26,12.26,0,0,1,7,12.54c-.31,2-1.35,3.32-3.56,3.32H24c-2.34,0-3.42-1.26-3.61-3.49A11.94,11.94,0,0,1,31.1,44c.83-.11,1.68-.16,3.27-.3"/>
      <path d="M107.2,43.75c5.79.12,10,1.7,12.58,6.18a12.74,12.74,0,0,1,1.42,8A3,3,0,0,1,118,60.82q-13.38,0-26.77,0c-2.52,0-3.44-1.62-3.58-3.88A12,12,0,0,1,98,44.08c1-.16,2-.26,3.55-.45C97.14,41.27,95.74,37.8,96,33.48a2,2,0,0,0-.17-1.1c-2.92-5.42-.35-11,5.72-11.89,3.46-.5,7-.7,10,1.84a7.38,7.38,0,0,1,1.66,9.94,2.78,2.78,0,0,0-.31,1.59c.29,4.17-1.23,7.39-5.77,9.89"/>
      <path d="M56.9,76.64c-2.2-.58-4.87-.33-4.63-4.15.35-5.61.06-5.63,4.7-7.41-.89-1.92-3.46-3.37-.59-6C61,54.81,60.82,54.62,65,56.94c1.79-4.66,1.79-4.66,7.11-4.64,2.84,0,2.84,0,4.55,4.61,4.29-2.28,4.14-2.12,8.82,2.35,2.75,2.62,0,3.94-.72,5.8C89.48,67,89.48,67,89.33,73c-.06,2.2-.06,2.2-4.46,3.76,2.36,4.59,2.27,4.5-2.71,9.21-2.53,2.39-3.61-.59-5.38-1-2.27,5-2.27,5-8.19,4.66-2.06-.12-2.06-.12-3.49-4.61-1.81,0-2.87,3.27-5.08,1.31-1.42-1.26-2.63-2.76-4.05-4-2.75-2.4.63-3.71.93-5.73"/>
      <path class="cls-3" d="M70.85,103.06c3.89,0,7.77,0,11.66,0,1.28,0,1.87.3,1.89,1.73s-.64,1.7-1.89,1.7q-11.66-.06-23.32,0c-1.25,0-1.91-.21-1.89-1.7s.61-1.75,1.89-1.73c3.88,0,7.77,0,11.66,0"/>
      <path class="cls-3" d="M71,35.46H82.39c1.1,0,2-.06,2,1.56s-.62,1.89-2,1.88q-11.53-.07-23.05,0c-1.45,0-2-.36-2-1.9s1-1.55,2-1.54H71"/>
      <path class="cls-4" d="M106.21,71.15c0,1.6-.06,3.21,0,4.81.07,1.33-.36,1.81-1.75,1.82s-1.71-.64-1.68-1.88c0-3.31.06-6.62,0-9.92,0-1.32.37-1.81,1.76-1.82s1.73.64,1.68,1.89c-.07,1.69,0,3.4,0,5.1"/>
      <path class="cls-4" d="M38.88,71.27c0,1.51,0,3,0,4.53,0,1.13,0,2-1.57,2s-1.89-.62-1.85-2c.07-3.31.05-6.62,0-9.92,0-1.17.3-1.69,1.59-1.69s1.93.26,1.85,1.71c-.1,1.79,0,3.59,0,5.39"/>
      <path class="cls-5" d="M102.64,118.22c-3.66,0-6.78-.06-9.9,0-1.4,0-1.85-.49-1.73-1.82a8.74,8.74,0,0,1,5.39-7.73c.93-.41,1.9-.78,2.48.75,1.07,2.8,2.35,5.53,3.76,8.77"/>
      <path class="cls-6" d="M109.53,95.24c.21,2.9-.93,4.77-3.24,5.76A4.65,4.65,0,0,1,101,99.93c-1.9-1.79-1.82-4.15-1.42-6.37a2,2,0,0,1,2.86-1.39,8.21,8.21,0,0,0,4.67.85c2-.2,3,.39,2.38,2.22"/>
      <path class="cls-7" d="M112.05,118.23c-5.86,0-5.86,0-3.47-5.33.23-.51.49-1,.71-1.54,1.48-3.51,2.61-3.8,5.6-1.24a10,10,0,0,1,2,2.39c1,1.58,1.6,3.55.82,5.14-.67,1.37-2.59.35-3.94.57a12.18,12.18,0,0,1-1.71,0"/>
      <path class="cls-8" d="M98.38,89.84a2.3,2.3,0,0,1,.08-2.75c1.73-3.14,4.78-2.51,7.58-2.54a4.89,4.89,0,0,1,4.76,3c.61,1.26.63,2.26-1.24,2.1-1.69-.14-3.45.39-5.06-.38-2.16-1-4.29-2.37-6.12.58"/>
      <path class="cls-9" d="M106.64,108.29c0,1.82-1.3,3.22-1.85,5.12-1.7-1.36-1.68-3.34-2.79-5.12Z"/>
      <path class="cls-6" d="M29.65,118.22H26.8c-3.25,0-3.37-.19-2.84-3.33a7.81,7.81,0,0,1,2.43-4.4c3-2.95,4.5-2.66,6.13,1.14.7,1.65,1.38,3.31,2.15,4.93.57,1.2.4,1.74-1.05,1.67s-2.65,0-4,0"/>
      <path class="cls-6" d="M32.14,95.5c0-3.26,1-4,4.08-2.87a6.79,6.79,0,0,0,3.35.37c2.06-.25,2.88.35,2.71,2.6-.26,3.49-2,5.7-5,5.74S32.17,99,32.14,95.5"/>
      <path class="cls-5" d="M39.06,118.22c1.41-3.26,2.68-6,3.77-8.79.51-1.3,1.27-1.15,2.24-.82a8.92,8.92,0,0,1,5.63,8.13c0,1.09-.37,1.6-1.49,1.49a8,8,0,0,0-.85,0h-9.3"/>
      <path class="cls-8" d="M31.06,89.66a1.14,1.14,0,0,1-.42-1.44c.76-2.14,2.19-3.59,4.53-3.63,2.95,0,6.22-.84,8.09,2.53.79,1.42,1.09,2.78-1.39,2.52-1.58-.16-3.26.41-4.74-.42-2.17-1.21-4.26-2-6.07.44"/>
      <path class="cls-9" d="M37.18,113.52A19.21,19.21,0,0,1,35,108.28h4.51a19.54,19.54,0,0,1-2.29,5.24"/>
      <path class="cls-6" d="M29.38,57.42h-2c-3.85,0-4.56-1-3.07-4.63a9.53,9.53,0,0,1,2-3c3-3,4.54-2.7,6.16,1.07.71,1.64,1.37,3.31,2.15,4.92.58,1.21.39,1.73-1,1.67s-2.83,0-4.25,0"/>
      <path class="cls-6" d="M42.22,34.37c.1,2.75-.67,4.77-2.94,5.71a4.89,4.89,0,0,1-5.54-.9c-1.9-1.79-1.89-4.14-1.46-6.33a1.93,1.93,0,0,1,3-1.43,6.89,6.89,0,0,0,4.39.7c2-.12,3.26.23,2.59,2.25"/>
      <path class="cls-5" d="M39.08,57.43c1.37-3.18,2.57-5.83,3.64-8.54.51-1.29,1.16-1.42,2.39-1A8.75,8.75,0,0,1,50.72,56c0,1.19-.53,1.47-1.54,1.4-.48,0-1,0-1.42,0H39.08"/>
      <path class="cls-5" d="M40.82,28.71a7.41,7.41,0,0,1-5.24-1,2.36,2.36,0,0,0-3.51.4c-.28.36-.69.8-1.17.51-.64-.37-.34-1-.13-1.5a5.83,5.83,0,0,1,.64-1.24c2.05-2.89,8.8-3.17,11.22-.48.73.81,1.46,1.93,1.07,2.76-.62,1.3-2.17.28-2.88.53"/>
      <path class="cls-10" d="M37.24,53c-.71-1.49-1.13-2.49-1.64-3.43-1-1.93-.51-2.55,1.66-2.44,1.7.09,2.82.1,1.6,2.2-.58,1-1,2.14-1.62,3.67"/>
      <path class="cls-6" d="M96.71,57.42h-2c-4.11,0-4.49-.55-3.13-4.52a8.1,8.1,0,0,1,2-3.08C96.67,46.71,98.3,47,99.91,51l.43,1c2.27,5.34,2.27,5.34-3.63,5.34"/>
      <path class="cls-6" d="M109.55,34.56c.16,2.59-.72,4.56-2.94,5.51a4.88,4.88,0,0,1-5.54-.88C99.15,37.4,99.22,35,99.6,32.85a1.92,1.92,0,0,1,3-1.41,6.64,6.64,0,0,0,4.39.67c2.08-.19,3.09.41,2.59,2.45"/>
      <path class="cls-5" d="M112.07,57.43c-5.86,0-5.86,0-3.51-5.28.23-.52.5-1,.72-1.54,1.51-3.55,2.64-3.82,5.61-1.23a9.84,9.84,0,0,1,2,2.37c2.3,3.91,1.32,5.68-3.1,5.68h-1.71"/>
      <path class="cls-5" d="M97.77,29.16c.43-3.56,2-5.25,4.83-5.37s5.81-.72,7.77,2.2c.48.72,1,1.54.67,2.36s-1.34.39-2,.42c-2.27.08-4.55.22-6.56-1.22-1.81-1.3-2.84.67-4.67,1.61"/>
      <path class="cls-11" d="M104.68,52.65c-1.2-1-1.27-2.3-1.85-3.33-.89-1.6-.65-2.13,1.37-2.19,2.52-.06,3,.66,1.77,2.76-.45.81-.79,1.69-1.29,2.76"/>
      <path class="cls-6" d="M61.73,59.13c.46.29,1,.67,1.59,1,2.46,1.35,4.52.55,5.21-2.2.34-1.31.5-2.2,2.24-2.22s2.07.88,2.43,2.34c.66,2.65,2.89,3.48,5.27,2,1.21-.76,2-1,3.11.16s1,1.84.23,3.1C80.21,65.8,81.07,68,84,68.65c1.53.35,2,.9,2,2.42S85.4,73,84.06,73.29c-3,.76-3.86,2.84-2.16,5.55.76,1.2.77,1.94-.27,2.85-.88.78-1.47,1.36-2.84.47-2.89-1.86-4.88-1-5.67,2.23-.32,1.36-.8,1.89-2.24,1.87s-2-.39-2.3-1.81c-.79-3.32-2.76-4.16-5.62-2.33-1.3.84-1.94.49-2.85-.38a1.9,1.9,0,0,1-.36-2.85c1.8-2.84,1-4.86-2.33-5.63-1.5-.35-1.74-1.06-1.73-2.36s.25-1.83,1.6-2.17c3.51-.91,4.16-2.65,2.42-5.81-.69-1.26.54-3.72,2-3.79"/>
      <path class="cls-12" d="M114.63,114.81c.24,1.38-.38,1.83-1.73,1.8-1.14,0-1.76-.24-1.7-1.56,0-1.14,0-2,1.6-2,1.23.06,2.09.21,1.83,1.71"/>
      <path class="cls-12" d="M45.56,116.56c-1.45.3-1.67-.48-1.7-1.74s.46-1.74,1.79-1.73,1.75.49,1.76,1.81-.53,1.88-1.85,1.66"/>
      <path class="cls-13" d="M45.58,55.76c-1.42.28-1.73-.42-1.72-1.73s.38-1.82,1.77-1.8,1.77.5,1.78,1.83-.48,1.92-1.83,1.7"/>
      <path class="cls-14" d="M112.73,55.77c-1.58.29-1.49-.75-1.55-1.87-.07-1.47.67-1.63,1.89-1.67,1.54,0,1.56.82,1.62,2,.09,1.54-.76,1.69-2,1.57"/>
      <path class="cls-15" d="M70.88,62.53A8.46,8.46,0,1,1,62.44,71a8.43,8.43,0,0,1,8.44-8.48"/>
      <path class="cls-16" d="M70.75,66a5,5,0,0,1,5.11,4.92A5,5,0,1,1,70.75,66"/>
    </g>
  </g>
</svg>
