<svg id="Layer_1" data-name="Layer 1" xmlns="http://www.w3.org/2000/svg" xmlns:xlink="http://www.w3.org/1999/xlink" viewBox="0 0 141.73 141.73">
  <defs>
    <style>
      .cls-1 {
        fill: none;
      }

      .cls-2 {
        clip-path: url(#clip-path);
      }

      .cls-3 {
        fill: #141310;
      }

      .cls-4 {
        fill: #fff;
      }
    </style>
    <clipPath id="clip-path">
      <rect class="cls-1" width="141.73" height="141.73"/>
    </clipPath>
  </defs>
  <title>icon</title>
  <g class="cls-2">
    <g class="cls-2">
      <path class="cls-3" d="M114,52.51H27.76v60.67H114Zm3.2,0v63.86H24.57V31.75H48.68a8,8,0,1,1,7.82,9.58,1.6,1.6,0,1,1,0-3.19A4.79,4.79,0,1,0,52,31.75h2.9a1.6,1.6,0,1,1,0,3.19H27.76V49.31H114V34.94H93.06a8,8,0,0,1-7.82,6.39,1.6,1.6,0,1,1,0-3.19,4.79,4.79,0,0,0,0-9.58,1.6,1.6,0,1,1,0-3.19,8,8,0,0,1,7.82,6.38h24.11Z"/>
    </g>
    <rect class="cls-4" x="27.76" y="52.51" width="86.21" height="60.67"/>
    <g class="cls-2">
      <path class="cls-3" d="M75.66,25.37a8,8,0,1,1,0,16,1.6,1.6,0,1,1,0-3.19,4.79,4.79,0,1,0,0-9.58,1.6,1.6,0,1,1,0-3.19"/>
      <path class="cls-3" d="M66.08,25.37a8,8,0,1,1,0,16,1.6,1.6,0,1,1,0-3.19,4.79,4.79,0,1,0,0-9.58,1.6,1.6,0,1,1,0-3.19"/>
    </g>
  </g>
</svg>
