<svg id="Layer_1" data-name="Layer 1" xmlns="http://www.w3.org/2000/svg" xmlns:xlink="http://www.w3.org/1999/xlink" viewBox="0 0 141.73 141.73">
  <defs>
    <style>
      .cls-1 {
        fill: none;
      }

      .cls-2 {
        clip-path: url(#clip-path);
      }

      .cls-3 {
        fill: #fff;
      }

      .cls-4 {
        fill: #74c29f;
      }

      .cls-5 {
        fill: #141310;
      }
    </style>
    <clipPath id="clip-path">
      <rect class="cls-1" width="141.73" height="141.73"/>
    </clipPath>
  </defs>
  <title>icon</title>
  <g class="cls-2">
    <rect class="cls-3" x="63.44" y="80.08" width="3.69" height="7.37"/>
    <g class="cls-2">
      <path class="cls-3" d="M74.49,19.27A18.43,18.43,0,1,1,56.06,37.7,18.43,18.43,0,0,1,74.49,19.27"/>
      <path class="cls-3" d="M113.19,39.54a3.69,3.69,0,1,1-3.69,3.69,3.69,3.69,0,0,1,3.69-3.69"/>
      <path class="cls-3" d="M30.27,48.75a7.37,7.37,0,1,1-7.37,7.37,7.38,7.38,0,0,1,7.37-7.37"/>
      <path class="cls-4" d="M52.38,80.08V98.5H50.54A5.53,5.53,0,0,1,45,93V85.6a5.53,5.53,0,0,1,5.53-5.52Z"/>
      <path class="cls-3" d="M100.29,75v28.6L76.76,98.5H56.06V80.08h3.69v7.37a3.68,3.68,0,0,0,3.68,3.68h3.69a3.67,3.67,0,0,0,3.68-3.68V80.08h3.69V93a1.85,1.85,0,0,0,3.69,0V79.73Z"/>
      <path class="cls-5" d="M121.65,71.08a1.85,1.85,0,0,1-.27,3.27L114,78a1.58,1.58,0,0,1-.82.2,1.84,1.84,0,0,1-.83-3.48l7.37-3.68a1.84,1.84,0,0,1,1.92,0"/>
      <path class="cls-5" d="M120.56,87.45a1.84,1.84,0,1,1,0,3.68h-7.37a1.84,1.84,0,1,1,0-3.68Z"/>
      <path class="cls-5" d="M120.56,21.12V32.17a1.85,1.85,0,0,1-3.69,0v-11a1.85,1.85,0,1,1,3.69,0"/>
      <path class="cls-5" d="M119.54,104.23a1.85,1.85,0,0,1-.83,3.49,1.73,1.73,0,0,1-.83-.21l-7.37-3.68a1.85,1.85,0,0,1-1.12-1.56,1.83,1.83,0,0,1,2.78-1.72Z"/>
      <path class="cls-5" d="M116.87,43.23a3.69,3.69,0,1,0-3.68,3.68,3.69,3.69,0,0,0,3.68-3.68m-3.68-7.37a7.37,7.37,0,1,1-7.37,7.37,7.37,7.37,0,0,1,7.37-7.37"/>
      <path class="cls-5" d="M111.34,26.64v5.53a1.84,1.84,0,0,1-3.68,0V26.64a1.84,1.84,0,0,1,3.68,0"/>
      <path class="cls-5" d="M106.92,52.81a1.84,1.84,0,0,1,.37,2.58l-5.53,7.37a1.83,1.83,0,0,1-1.47.73,1.91,1.91,0,0,1-1.11-.36,1.85,1.85,0,0,1-.37-2.58l5.53-7.37a1.84,1.84,0,0,1,2.58-.37"/>
      <path class="cls-5" d="M52.38,98.5V80.08H50.54A5.53,5.53,0,0,0,45,85.6V93a5.53,5.53,0,0,0,5.53,5.52ZM67.12,80.08H63.44v7.37h3.68Zm33.17,23.51V75L78.18,79.73V93a1.85,1.85,0,0,1-3.69,0V80.08H70.81v7.37a3.69,3.69,0,0,1-3.69,3.68H63.44a3.69,3.69,0,0,1-3.69-3.68V80.08H56.06V98.5h20.7ZM104,72.71v33.16a1.84,1.84,0,0,1-1.84,1.85h-.39l-25.59-5.53H62l2.95,14.74h7.37l-1.84-8.84a1.88,1.88,0,1,1,3.68-.74l2.21,11.05a1.9,1.9,0,0,1-1.84,2.21h-11a1.83,1.83,0,0,1-1.84-1.47l-3.36-17h-7.7A9.21,9.21,0,0,1,41.33,93V85.6a9.21,9.21,0,0,1,9.21-9.21H76.15l25.59-5.49a1.84,1.84,0,0,1,1.55.37,1.86,1.86,0,0,1,.68,1.44"/>
      <path class="cls-5" d="M92.92,37.7A18.43,18.43,0,1,0,74.49,56.12,18.43,18.43,0,0,0,92.92,37.7M74.49,15.59A22.11,22.11,0,1,1,52.38,37.7,22.11,22.11,0,0,1,74.49,15.59"/>
      <path class="cls-5" d="M76.34,65.34v5.52a1.85,1.85,0,1,1-3.69,0V65.34a1.85,1.85,0,1,1,3.69,0"/>
      <path class="cls-5" d="M46.32,69.56a1.85,1.85,0,0,1,0,2.61,1.84,1.84,0,0,1-2.62,0L40,68.49a1.84,1.84,0,0,1,0-2.62,1.81,1.81,0,0,1,1.3-.54,1.85,1.85,0,0,1,1.32.54Z"/>
      <path class="cls-5" d="M41.32,35.86v5.52a1.84,1.84,0,1,1-3.68,0V35.86a1.84,1.84,0,1,1,3.68,0"/>
      <path class="cls-5" d="M40.79,104.57a1.83,1.83,0,0,1,0,2.61l-3.68,3.69a1.85,1.85,0,0,1-2.62-2.62l3.68-3.68a1.84,1.84,0,0,1,2.62,0"/>
      <path class="cls-5" d="M37.64,56.12a7.37,7.37,0,1,0-7.37,7.37,7.38,7.38,0,0,0,7.37-7.37m-7.37-11a11.06,11.06,0,1,1-11.06,11,11.06,11.06,0,0,1,11.06-11"/>
      <path class="cls-5" d="M32.11,24.8V37.7a1.84,1.84,0,1,1-3.68,0V24.8a1.84,1.84,0,0,1,3.68,0"/>
      <path class="cls-5" d="M26.58,111.4a7.37,7.37,0,1,1,0,14.74,1.84,1.84,0,1,1,0-3.68,3.69,3.69,0,1,0-3.68-3.69,1.85,1.85,0,0,1-3.69,0,7.37,7.37,0,0,1,7.37-7.37"/>
      <path class="cls-5" d="M22.9,34v5.53a1.85,1.85,0,0,1-3.69,0V34a1.85,1.85,0,0,1,3.69,0"/>
      <path class="cls-5" d="M64.49,33.2h2.83a10.88,10.88,0,0,1,1.39-2.89,8.89,8.89,0,0,1,2.16-2.21,9.89,9.89,0,0,1,3-1.41,13.16,13.16,0,0,1,3.73-.49q.69,0,1.38.06c.46,0,.89.1,1.31.16a11.77,11.77,0,0,1,1.16.25,8.64,8.64,0,0,1,.94.31v2.73a16.47,16.47,0,0,0-2.2-.54A13.6,13.6,0,0,0,77.77,29a8.5,8.5,0,0,0-4.34,1A6,6,0,0,0,70.8,33.2h7.83v2.71H70.19c0,.26,0,.53-.07.8s0,.55,0,.83c0,.45,0,.87.05,1.27H77v2.71h-6.4a5.46,5.46,0,0,0,2.53,3.28,9.69,9.69,0,0,0,4.69,1q.56,0,1.17-.06c.42,0,.84-.1,1.26-.17s.83-.14,1.22-.23a9.23,9.23,0,0,0,1.06-.3v2.74a12.76,12.76,0,0,1-2.29.57,18,18,0,0,1-2.67.2,11.89,11.89,0,0,1-7.06-1.84,8.74,8.74,0,0,1-3.41-5.18H64.49V38.81H66.7c0-.4,0-.64,0-.73v-.37c0-.34,0-.66,0-.94s0-.57.07-.86H64.49Z"/>
    </g>
  </g>
</svg>
