<svg id="Layer_1" data-name="Layer 1" xmlns="http://www.w3.org/2000/svg" xmlns:xlink="http://www.w3.org/1999/xlink" viewBox="0 0 141.73 141.73">
  <defs>
    <style>
      .cls-1 {
        fill: none;
      }

      .cls-2 {
        clip-path: url(#clip-path);
      }

      .cls-3 {
        fill: #fff;
      }

      .cls-4 {
        fill: #26bade;
      }

      .cls-5 {
        fill: #141310;
      }
    </style>
    <clipPath id="clip-path">
      <rect class="cls-1" width="141.73" height="141.73"/>
    </clipPath>
  </defs>
  <title>icon</title>
  <g class="cls-2">
    <g class="cls-2">
      <path class="cls-3" d="M112.57,73.4v38.27l-.15.15H97.82l-.14-32c0-3.57-.9-6.25-2.83-8.19a11.76,11.76,0,0,0-8.34-3.43A11.49,11.49,0,0,0,75.33,80v31.87H59V56.72H73.7l.15.15v9.38l4-4,.15-.15a17,17,0,0,1,13.7-6.85h3.12c10,0,17.73,8,17.73,18.17"/>
      <path class="cls-3" d="M45.55,58.21v52.27a1.47,1.47,0,0,1-1.49,1.34H32.14a1.6,1.6,0,0,1-1.49-1.48V58.21A1.47,1.47,0,0,1,32,56.72H44.06a1.6,1.6,0,0,1,1.49,1.49"/>
      <path class="cls-4" d="M44.35,32.44A8.9,8.9,0,0,1,47,38.84a8.66,8.66,0,0,1-2.69,6.41,8.17,8.17,0,0,1-6.25,2.53,9,9,0,0,1-6.26-2.53,8.69,8.69,0,0,1-2.68-6.41,8.9,8.9,0,0,1,9.09-8.93,8.66,8.66,0,0,1,6.1,2.53"/>
      <path class="cls-5" d="M112.57,111.67V73.4c0-10.13-7.75-18.17-17.73-18.17H91.72A17,17,0,0,0,78,62.08l-.15.15-4,4V56.87l-.15-.15H59v55.1H75.33V80A11.49,11.49,0,0,1,86.51,68.18a11.76,11.76,0,0,1,8.34,3.43c1.93,1.94,2.82,4.62,2.82,8.19l.15,32h14.6Zm3-38.27v38.42a3.2,3.2,0,0,1-3,3H97.67a3.2,3.2,0,0,1-3-3v-32c0-2.68-.6-4.76-2.09-6.1a8.77,8.77,0,0,0-6.25-2.54c-4.62,0-8.2,3.88-8.2,8.79v32.17a2.92,2.92,0,0,1-3,2.68H58.8a2.93,2.93,0,0,1-3-2.68V56.57a3.06,3.06,0,0,1,3-2.83H73.7a3.2,3.2,0,0,1,3,3V58.8a20.14,20.14,0,0,1,14.9-6.55H94.7c11.76,0,20.85,9.23,20.85,21.15"/>
      <path class="cls-5" d="M47,38.84a8.9,8.9,0,0,0-2.69-6.4,8.66,8.66,0,0,0-6.1-2.53,8.9,8.9,0,0,0-9.09,8.93,8.69,8.69,0,0,0,2.68,6.41,9,9,0,0,0,6.26,2.53,8.17,8.17,0,0,0,6.25-2.53A8.66,8.66,0,0,0,47,38.84m-.45-8.34A11.12,11.12,0,0,1,50,38.84a11.94,11.94,0,0,1-3.57,8.49,11.26,11.26,0,0,1-8,3.43h-.3a11.33,11.33,0,0,1-8.34-3.43,11.91,11.91,0,0,1,8.49-20.4,11.28,11.28,0,0,1,8.34,3.57"/>
      <path class="cls-5" d="M45.55,110.48V58.21a1.6,1.6,0,0,0-1.49-1.49H32a1.47,1.47,0,0,0-1.34,1.49v52.13a1.6,1.6,0,0,0,1.49,1.48H44.06a1.47,1.47,0,0,0,1.49-1.34m3-52.27v52.27a4.55,4.55,0,0,1-4.46,4.32H32.14a4.58,4.58,0,0,1-4.47-4.46V58.21A4.36,4.36,0,0,1,32,53.74H44.06a4.57,4.57,0,0,1,4.46,4.47"/>
    </g>
  </g>
</svg>
