<svg id="Layer_1" data-name="Layer 1" xmlns="http://www.w3.org/2000/svg" xmlns:xlink="http://www.w3.org/1999/xlink" viewBox="0 0 141.73 141.73">
  <defs>
    <style>
      .cls-1 {
        fill: none;
      }

      .cls-2 {
        clip-path: url(#clip-path);
      }
    </style>
    <clipPath id="clip-path">
      <rect class="cls-1" width="141.73" height="141.73"/>
    </clipPath>
  </defs>
  <title>icon</title>
  <g class="cls-2">
    <g class="cls-2">
      <path d="M74.88,104.24c-2,0-4,.07-5.94,0-1.25-.06-1.1.61-1.07,1.3S67.52,107,69,107c2.32-.09,4.66,0,7,0H80.3c1.14,0,1.68-.53,1.64-1.61s-.75-1.12-1.65-1.11c-1.8,0-3.61,0-5.41,0m5.92-2.85c-.61-2.07-1.2-4-1.71-5.87a1.2,1.2,0,0,0-1.42-1c-2.91,0-5.81,0-8.72,0-.79,0-1.14.14-1.1,1,.07,1.65.06,3.31,0,5,0,.77.22,1,1.07,1,3.89,0,7.78,0,11.88,0M103.24,80.5H112c.39,0,1.05.17,1.09-.23a5.69,5.69,0,0,0-.13-3.17c-.37-.8-1.32-.73-2.14-.73H96.65c-2.92,0-3.14.26-3.17,2.92,0,1,.35,1.25,1.39,1.23,2.79-.06,5.58,0,8.37,0m.18,26.49c-2.85,0-5.7,0-8.55,0-.44,0-1.15-.19-1.25.27a5.23,5.23,0,0,0,.09,3c.35.91,1.23.83,2.05.83h14.13c3.21,0,3.35-.17,3.27-3,0-.84-.28-1.11-1.2-1.1-2.85,0-5.7,0-8.54,0M46.65,70.78c5.6,0,11.19,0,16.78,0,.44,0,1.05.34,1.33-.37.89-2.2-.27-3.77-2.84-3.77H31.33a8.28,8.28,0,0,0-1.22,0c-2.26.36-1.32,2-1.5,3.22-.21,1.36.94.91,1.61.91,5.48,0,11,0,16.43,0M46.8,107c-5.6,0-11.2,0-16.8,0-.46,0-1.06-.25-1.37.37a2.52,2.52,0,0,0,2.47,3.74q15.57,0,31.13,0a5.49,5.49,0,0,0,1.22,0c2.09-.48,1.12-2.06,1.31-3.2s-.86-.88-1.52-.88c-5.48,0-11,0-16.44,0M79.25,83.34c-3.38,0-6.75,0-10.13,0-1,0-1.31.19-1.28,1.13.08,2,0,4.07,0,6.11,0,.75.09,1.15,1.11,1.14q10.22-.06,20.44,0c1,0,1.13-.41,1.12-1.16,0-1.93-.09-3.87,0-5.79.06-1.09-.23-1.47-1.49-1.44-3.26.09-6.52,0-9.79,0m33.88,10.38c0-3.11,0-6.22,0-9.33,0-.84-.25-1.07-1.16-1.07q-8.65.06-17.3,0c-.89,0-1.2.19-1.2,1.06q.06,9.31,0,18.64c0,.9.26,1.2,1.27,1.19q8.56-.06,17.13,0c1,0,1.28-.3,1.26-1.19-.05-3.11,0-6.22,0-9.32M46.89,73.62c-5.66,0-11.31,0-17,0-1.08,0-1.36.25-1.36,1.25q.06,14.07,0,28.15c0,1,.34,1.24,1.39,1.24q16.71-.06,33.4,0c1.19,0,1.44-.32,1.44-1.35q-.08-14,0-28c0-1.11-.39-1.3-1.47-1.29-5.48,0-11,0-16.44,0M70.83,38.84q-16.19,0-32.38,0c-3.73,0-5.32,1.46-5.32,4.89,0,6.17,0,12.34,0,18.51,0,1.25.33,1.59,1.71,1.58,9.1-.06,18.2,0,27.31,0,4.11,0,5.76,1.5,5.76,5.23,0,3.22.07,6.44,0,9.66,0,1.38.25,1.89,1.93,1.86q9.27-.17,18.55,0c1.87,0,2.29-.47,2.24-2.1-.1-3.38,1.62-4.84,5.36-4.85s7.35-.08,11,0c1.44,0,1.71-.41,1.7-1.62,0-9.39,0-18.78,0-28.18,0-3.55-1.55-5-5.39-5q-16.18,0-32.38,0m0-2.84h32.73c5,0,8.09,2.88,8.09,7.42q0,14.34,0,28.66c0,.94,0,1.5,1.34,1.71a3.91,3.91,0,0,1,3.2,3.78q0,16.17,0,32.36a4.16,4.16,0,0,1-4.35,4c-5.66,0-11.32.06-17,0a4.21,4.21,0,0,1-4.34-4.36c0-4.5-.08-9,0-13.52,0-1.31-.42-1.64-1.76-1.57a51.76,51.76,0,0,1-5.43,0c-1.21-.06-1.37.31-1.07,1.28.87,2.78,1.69,5.57,2.48,8.36.94,3.28-1,5.63-4.73,5.65s-7.23,0-10.85,0c-.91,0-1.26.2-1.5,1-.63,2.14-2.2,3.16-4.64,3.16q-16.36,0-32.74,0c-2.93,0-4.78-1.71-4.78-4.44q0-20.59,0-41.21A4,4,0,0,1,28.93,64c1.13-.24,1.14-.77,1.14-1.57q0-9.51,0-19c0-4.56,3.12-7.44,8.06-7.45H70.85"/>
      <path d="M76.56,53.53c-.4.42-.61.66-.85.88-2.54,2.35-5.13,4.66-7.62,7.05-.92.89-1.26.08-1.7-.34s-1.53-.78-.46-1.72c2.56-2.26,5-4.6,7.55-6.89.28-.26.52-.88,1-.57a20.2,20.2,0,0,1,2,1.59"/>
      <path d="M90.32,50.64l-.95.93c-2.54,2.34-5.14,4.64-7.61,7-1,1-1.33.07-1.83-.36s-1.33-.85-.32-1.73c2.56-2.24,5-4.59,7.54-6.88.27-.24.48-.84,1.08-.45s1.38.95,2.09,1.44"/>
      <path d="M71.69,67.74c-.53-.6-1.1-1.18-1.6-1.82s.22-.75.5-1c1.5-1.41,3.07-2.76,4.52-4.21.63-.61,1.1-.56,1.47.07s1.91.74.82,1.79c-1.63,1.59-3.34,3.11-5,4.66-.12.11-.27.2-.69.53"/>
      <path d="M85.57,45.28c-.32.32-.5.52-.69.7-1.57,1.45-3.18,2.84-4.68,4.34-1,1-1.35,0-1.86-.43S77,49.12,78,48.31c1.59-1.34,3.05-2.8,4.6-4.18.28-.25.52-.87,1-.51a19.37,19.37,0,0,1,1.93,1.66"/>
      <path d="M45.12,43c.32,1.12-.19,1.4-1.41,1.42s-1.66-.25-1.66-1.48.51-1.43,1.71-1.45,1.6.47,1.36,1.51"/>
      <path d="M37.6,41.56c1.45-.34,1.56.37,1.6,1.47s-.43,1.39-1.58,1.38S36,44.26,36,43.05s.13-1.83,1.59-1.49"/>
      <path d="M51.18,43.06c.4,1.36-.51,1.27-1.54,1.35-1.34.09-1.41-.46-1.47-1.47-.09-1.31.51-1.41,1.7-1.46,1.49-.06,1.46.66,1.31,1.58"/>
      <path d="M57.62,81.05a6,6,0,0,1,1.92,1.62c.45.48-.22.72-.49,1C53.55,88.74,48,93.8,42.52,98.92c-1,.9-1.35.27-1.89-.26s-1.38-.79-.37-1.7C45.86,91.87,51.4,86.73,57,81.61c.2-.19.41-.36.65-.56"/>
      <path d="M53.76,78.66c-.27.31-.46.57-.7.8-2.51,2.31-5.08,4.59-7.53,7-1.09,1-1.43,0-2-.43s-1.08-.82-.21-1.59c2.54-2.22,5-4.54,7.45-6.81.29-.26.56-.91,1.06-.59a15.67,15.67,0,0,1,1.94,1.66"/>
      <path d="M35.33,95.27a10.45,10.45,0,0,1-1.58-1.65c-.31-.48.44-.75.76-1.06,1.41-1.34,2.91-2.61,4.28-4,1.05-1.07,1.42,0,2,.42s1.1.85.2,1.6c-1.59,1.32-3,2.77-4.57,4.16a1.17,1.17,0,0,1-1.08.51"/>
      <path d="M109.68,94c-.23.25-.4.45-.59.63-2.06,1.9-4.16,3.75-6.16,5.7-1.1,1.07-1.42-.06-2-.46s-1-.88-.15-1.6c2-1.72,3.89-3.55,5.84-5.31.33-.3.63-1,1.15-.67A12.54,12.54,0,0,1,109.68,94"/>
      <path d="M98.93,95.54c-.57-.63-1.17-1.2-1.66-1.85-.37-.5.27-.72.54-1,2-1.87,4.06-3.68,6-5.59.65-.62,1.1-.53,1.46.07s1.93.77.83,1.82c-2.1,2-4.27,4-6.41,5.91-.16.15-.34.27-.77.61"/>
    </g>
  </g>
</svg>
