<svg id="Layer_1" data-name="Layer 1" xmlns="http://www.w3.org/2000/svg" xmlns:xlink="http://www.w3.org/1999/xlink" viewBox="0 0 141.73 141.73">
  <defs>
    <style>
      .cls-1 {
        fill: none;
      }

      .cls-2 {
        clip-path: url(#clip-path);
      }
    </style>
    <clipPath id="clip-path">
      <rect class="cls-1" width="141.73" height="141.73"/>
    </clipPath>
  </defs>
  <title>icon</title>
  <g class="cls-2">
    <g class="cls-2">
      <path d="M105.68,48.83,92.85,36,80,48.83l3.85,3.85,6.26-6.26v11a13.69,13.69,0,0,1-4.72,10.34L74.74,77a19.71,19.71,0,0,0-3.9,4.62A18.7,18.7,0,0,0,67,77L56.33,67.75A13.7,13.7,0,0,1,51.6,57.41v-11l6.27,6.26,3.85-3.85L48.88,36,36.05,48.83l3.85,3.85,6.26-6.26v11a19.13,19.13,0,0,0,6.6,14.45l10.69,9.27a13.62,13.62,0,0,1,4.63,10.28v14.32h5.44V91.44A13.73,13.73,0,0,1,78.31,81.1L89,71.86a19.1,19.1,0,0,0,6.6-14.45v-11l6.26,6.26Z"/>
    </g>
  </g>
</svg>
