<svg id="Layer_1" data-name="Layer 1" xmlns="http://www.w3.org/2000/svg" xmlns:xlink="http://www.w3.org/1999/xlink" viewBox="0 0 141.73 141.73">
  <defs>
    <style>
      .cls-1 {
        fill: none;
      }

      .cls-2 {
        clip-path: url(#clip-path);
      }

      .cls-3 {
        fill: #141310;
      }

      .cls-4 {
        fill: #fff;
      }

      .cls-5 {
        fill: #30afda;
      }
    </style>
    <clipPath id="clip-path">
      <rect class="cls-1" width="141.73" height="141.73"/>
    </clipPath>
  </defs>
  <title>icon</title>
  <g class="cls-2">
    <g class="cls-2">
      <path class="cls-3" d="M109.34,91.83V49.91A17.54,17.54,0,0,0,91.83,32.39H49.91A17.54,17.54,0,0,0,32.39,49.91V91.83a17.54,17.54,0,0,0,17.52,17.51H91.83a17.54,17.54,0,0,0,17.51-17.51m8.3-41.92V91.83a25.84,25.84,0,0,1-25.81,25.81H49.91A25.85,25.85,0,0,1,24.09,91.83V49.91A25.86,25.86,0,0,1,49.91,24.09H91.83a25.85,25.85,0,0,1,25.81,25.82"/>
      <path class="cls-4" d="M95,70.87A24.11,24.11,0,1,0,70.87,95,24.13,24.13,0,0,0,95,70.87m7.1-25.06a6.08,6.08,0,1,0-1.78,4.31,6.13,6.13,0,0,0,1.78-4.31m7.27,4.1V91.83a17.54,17.54,0,0,1-17.51,17.51H49.91A17.54,17.54,0,0,1,32.39,91.83V49.91A17.54,17.54,0,0,1,49.91,32.39H91.83a17.54,17.54,0,0,1,17.51,17.52"/>
      <path class="cls-5" d="M100.29,41.51A6.07,6.07,0,1,1,96,39.72a6.13,6.13,0,0,1,4.31,1.79"/>
      <path class="cls-3" d="M86.67,70.87a15.81,15.81,0,1,0-15.8,15.8,15.82,15.82,0,0,0,15.8-15.8M70.87,46.76A24.11,24.11,0,1,1,46.76,70.87,24.13,24.13,0,0,1,70.87,46.76"/>
      <path class="cls-4" d="M70.87,55.06A15.81,15.81,0,1,1,55.06,70.87,15.82,15.82,0,0,1,70.87,55.06"/>
    </g>
  </g>
</svg>
