<svg id="Layer_1" data-name="Layer 1" xmlns="http://www.w3.org/2000/svg" xmlns:xlink="http://www.w3.org/1999/xlink" viewBox="0 0 141.73 141.73">
  <defs>
    <style>
      .cls-1 {
        fill: none;
      }

      .cls-2 {
        clip-path: url(#clip-path);
      }

      .cls-3 {
        fill: #6a6a6a;
      }

      .cls-4 {
        fill: #2cbadd;
      }

      .cls-5 {
        fill: #22adcf;
      }

      .cls-6 {
        fill: #4191c3;
      }

      .cls-7 {
        fill: #3f88b6;
      }

      .cls-8 {
        fill: #76c29f;
      }

      .cls-9 {
        fill: #6cb292;
      }

      .cls-10 {
        fill: #56bdb5;
      }

      .cls-11 {
        fill: #50afa9;
      }

      .cls-12 {
        fill: #5c967a;
      }

      .cls-13 {
        fill: #d4d1d2;
      }

      .cls-14 {
        fill: #2392aa;
      }

      .cls-15 {
        fill: #229cb6;
      }

      .cls-16 {
        fill: #43938c;
      }

      .cls-17 {
        fill: #489e96;
      }

      .cls-18 {
        fill: #387396;
      }

      .cls-19 {
        fill: #3b7aa0;
      }
    </style>
    <clipPath id="clip-path">
      <rect class="cls-1" width="141.73" height="141.73"/>
    </clipPath>
  </defs>
  <title>icon</title>
  <g class="cls-2">
    <g>
      <path class="cls-3" d="M36.9,73.5c1.49,0,2.16.5,2.16,1.59a1.17,1.17,0,0,1-.94,1.18,1.46,1.46,0,0,1,1.32,1.46c0,1.09-.79,1.57-2.4,1.57h-2V73.5ZM35.72,76h1.5c.8,0,1.22-.32,1.22-.88s-.47-1-1.54-1H35.72Zm0,2.67h1.33c1.15,0,1.72-.29,1.72-1s-.54-1.09-1.55-1.09h-1.5Z"/>
      <path class="cls-3" d="M45.41,76.7c0,1.71-.87,2.68-2.41,2.68s-2.42-1-2.42-2.69V73.5h.65v3.19c0,1.34.64,2.07,1.77,2.07s1.76-.73,1.76-2.07V73.5h.65Z"/>
      <path class="cls-3" d="M47,79.3V73.5h.65v5.8Z"/>
      <path class="cls-3" d="M49.46,79.3V73.5h.64v5.18H53v.62Z"/>
      <path class="cls-3" d="M56,73.5c1.9,0,3.08,1,3.08,2.83a2.74,2.74,0,0,1-3.08,3H54.23V73.5Zm0,5.19a2.18,2.18,0,0,0,2.43-2.36A2.13,2.13,0,0,0,56,74.11h-1.1v4.58Z"/>
      <path class="cls-3" d="M60.44,79.3V73.5h.64v5.8Z"/>
      <path class="cls-3" d="M67.06,79.3,63.5,74.61V79.3h-.65V73.5h.59L67,78.2V73.5h.64v5.8Z"/>
      <path class="cls-3" d="M74.3,78.57a4.42,4.42,0,0,1-2.66.81c-1.62,0-2.6-1.07-2.6-3s1-3,2.75-3a5.47,5.47,0,0,1,2.23.47l-.2.53a5.29,5.29,0,0,0-2-.39c-1.38,0-2.14.87-2.14,2.39s.73,2.37,2,2.37a3.35,3.35,0,0,0,2-.55V77H71.53v-.6H74.3Z"/>
      <path class="cls-3" d="M78,79.3V73.5h.65v5.8Z"/>
      <path class="cls-3" d="M82.37,74.11V79.3h-.65V74.11h-2.1V73.5h4.85v.61Z"/>
      <path class="cls-3" d="M89.65,74.11V79.3H89V74.11H86.9V73.5h4.85v.61Z"/>
      <path class="cls-3" d="M97.76,76.41c0,1.9-1,3-2.7,3s-2.71-1.07-2.71-3,1-3,2.71-3S97.76,74.48,97.76,76.41Zm-.66,0c0-1.56-.73-2.4-2-2.4s-2,.84-2,2.4.73,2.36,2,2.36S97.1,78,97.1,76.41Z"/>
      <path class="cls-3" d="M104,78.57a4.42,4.42,0,0,1-2.66.81c-1.61,0-2.6-1.07-2.6-3s1-3,2.75-3a5.44,5.44,0,0,1,2.23.47l-.2.53a5.29,5.29,0,0,0-2-.39c-1.38,0-2.14.87-2.14,2.39s.73,2.37,2,2.37a3.4,3.4,0,0,0,2-.55V77h-2.16v-.6H104Z"/>
      <path class="cls-3" d="M105.48,79.3V73.5h3.79v.61h-3.14v2h2.75v.61h-2.75v2h3.23v.61Z"/>
      <path class="cls-3" d="M112.84,74.11V79.3h-.65V74.11H110.1V73.5h4.84v.61Z"/>
      <path class="cls-3" d="M120.06,79.3V76.63h-3.47V79.3H116V73.5h.64V76h3.47V73.5h.65v5.8Z"/>
      <path class="cls-3" d="M122.48,79.3V73.5h3.8v.61h-3.15v2h2.76v.61h-2.76v2h3.23v.61Z"/>
      <path class="cls-3" d="M132.37,79.3h-.71l-1.66-2h-1.5v2h-.64V73.5h2c1.52,0,2.32.67,2.32,1.92a1.84,1.84,0,0,1-1.55,1.83l1.69,2ZM130,76.71c.95,0,1.58-.48,1.58-1.29s-.57-1.3-1.65-1.31H128.5v2.6Z"/>
    </g>
    <g class="cls-2">
      <path class="cls-4" d="M15.73,86.52a10.79,10.79,0,0,0,6.46,0L19,83.29Z"/>
      <path class="cls-5" d="M11.72,84.17A10.54,10.54,0,0,0,15,86.23l4-4-2.65-2.65Z"/>
      <path class="cls-4" d="M16.31,79.57,19,82.22l4,4a10.54,10.54,0,0,0,3.24-2.06L19,76.92Z"/>
      <path class="cls-6" d="M8.84,73.16a10.63,10.63,0,0,0,0,6.46l3.23-3.23Z"/>
      <path class="cls-7" d="M11.19,69.14a10.62,10.62,0,0,0-2.07,3.24l4,4,2.65-2.65Z"/>
      <path class="cls-6" d="M15.78,73.74l-2.65,2.65-4,4a10.62,10.62,0,0,0,2.07,3.24l7.24-7.25Z"/>
      <path class="cls-8" d="M22.19,66.26a10.79,10.79,0,0,0-6.46,0L19,69.49Z"/>
      <path class="cls-9" d="M26.21,68.61A10.54,10.54,0,0,0,23,66.55l-4,4,2.66,2.65Z"/>
      <path class="cls-8" d="M21.62,73.21,19,70.56l-4-4a10.54,10.54,0,0,0-3.24,2.06L19,75.86Z"/>
      <path class="cls-10" d="M29.09,79.62a10.63,10.63,0,0,0,0-6.46l-3.23,3.23Z"/>
      <path class="cls-11" d="M26.74,83.64a10.81,10.81,0,0,0,2.07-3.24l-4-4L22.15,79Z"/>
      <path class="cls-10" d="M22.15,79l2.65-2.65,4-4a10.81,10.81,0,0,0-2.07-3.24l-7.25,7.25Z"/>
    </g>
    <polygon class="cls-12" points="19.5 70.03 19.13 70.39 18.96 70.56 21.62 73.21 22.15 72.68 19.5 70.03"/>
    <path class="cls-13" d="M16.31,79.57h0l1,1-1-1m-.47.47-.06.06ZM19,82.22h0"/>
    <polyline class="cls-14" points="16.31 79.57 15.85 80.04 15.78 80.1 18.43 82.75 18.96 82.22 17.64 80.9 17.31 80.57 16.31 79.57"/>
    <polygon class="cls-15" points="16.31 79.57 16.31 79.57 17.31 80.57 17.64 80.9 16.31 79.57"/>
    <path class="cls-13" d="M23.91,77.27,22.15,79Zm-1.35,2.19.12.11Z"/>
    <polygon class="cls-16" points="24.8 76.39 24.27 76.92 23.91 77.27 22.15 79.04 22.56 79.46 22.68 79.57 25.33 76.92 24.8 76.39"/>
    <polygon class="cls-17" points="24.27 76.92 22.15 79.04 23.91 77.27 24.27 76.92"/>
    <path class="cls-13" d="M15.78,73.74l-.53-.53Z"/>
    <polyline class="cls-18" points="15.25 73.21 12.6 75.86 13.13 76.39 13.79 75.73 15.78 73.74 15.25 73.21"/>
    <polygon class="cls-19" points="13.13 76.39 13.13 76.39 13.79 75.73 13.13 76.39"/>
  </g>
</svg>
