<svg id="Layer_1" data-name="Layer 1" xmlns="http://www.w3.org/2000/svg" xmlns:xlink="http://www.w3.org/1999/xlink" viewBox="0 0 141.73 141.73">
  <defs>
    <style>
      .cls-1, .cls-3, .cls-4, .cls-5, .cls-9 {
        fill: none;
      }

      .cls-2 {
        clip-path: url(#clip-path);
      }

      .cls-3, .cls-4, .cls-5, .cls-9 {
        stroke: #000;
        stroke-miterlimit: 10;
      }

      .cls-3, .cls-4, .cls-5 {
        stroke-width: 3px;
      }

      .cls-3 {
        stroke-dasharray: 8.91 5.91;
      }

      .cls-4 {
        stroke-dasharray: 9.36 6.36;
      }

      .cls-6 {
        fill: #fff;
      }

      .cls-7 {
        fill: #53bcb5;
      }

      .cls-8 {
        fill: #4091c3;
      }

      .cls-9 {
        stroke-width: 0.82px;
      }
    </style>
    <clipPath id="clip-path">
      <rect class="cls-1" width="141.73" height="141.73"/>
    </clipPath>
  </defs>
  <title>icon</title>
  <g class="cls-2">
    <g class="cls-2">
      <path class="cls-3" d="M70.69,31.9c15.56,1.14,42.41,8.9,35,49.89"/>
      <path class="cls-4" d="M101.3,99.68c-1.65,11-.49,27.66,18.51,36"/>
      <path class="cls-5" d="M122.76,136.81q2.11.75,4.47,1.38m-22.12-53.5c-.3,1.41-.64,2.86-1,4.34a41,41,0,0,0-1.46,4.44M60.34,32a44.3,44.3,0,0,1,4.44-.27"/>
      <path d="M34.93,36.54l6.71,4.31c.49.31,1,.63,1.45.92a1.53,1.53,0,0,0,2.16-.46l3.17-4.06c.95-1.23,1.91-2.46,2.85-3.69a.4.4,0,0,1,.45-.16L64.24,35a1.73,1.73,0,0,0,1.29-.23,1.55,1.55,0,0,0,.6-1.57c-.45-3-.92-6-1.39-9-.27-1.75-.54-3.49-.82-5.24a.5.5,0,0,1,.14-.45l3.53-3.84,3.85-4.23A16.33,16.33,0,0,0,73,8.72a1.43,1.43,0,0,0-1.17-2.2A8.61,8.61,0,0,0,70,6.79L61.56,8.32,52.82,9.9l-8.19,1.49-8.48,1.54L27.7,14.46l-8.13,1.47-8.48,1.54A3,3,0,0,0,9.56,18a1.28,1.28,0,0,0-.47,1.23c.11.83.71,1.19,1.32,1.58l7.89,5.07,7.57,4.86,6.83,4.39.25.16,2,1.27"/>
      <path class="cls-6" d="M18.45,22.48,22.33,25,29.2,29.4,36.33,34l6.85,4.4c.4.27.4.28.7-.11,1.31-1.67,2.61-3.35,3.91-5l4.28-5.48.38-.52c.17-.24.37-.45.53-.69s.08-.23-.11-.25L50.23,26l-3.1-.41-2.46-.34c-1-.14-2.08-.29-3.12-.41-.52-.06-1-.15-1.57-.22l-2.63-.35c-.53-.06-1.06-.14-1.59-.22l-2.61-.34-1.65-.23L29,23.1l-1.53-.21c-.9-.12-1.8-.23-2.69-.36l-2.44-.33-2.4-.32c-.53-.06-1.06-.13-1.59-.22-.31-.05-.62-.05-.93-.13-.06,0-.14-.05-.17,0s0,.13.09.17a4.25,4.25,0,0,0,.39.25c.27.15.51.33.77.49"/>
      <path class="cls-6" d="M35.84,17.2,52.6,17c2.9,0,5.8-.11,8.7-.12.5,0,.68-.34.93-.6,1-1.08,2-2.17,3-3.26l2.33-2.55s.11-.08.06-.14-.14,0-.22,0l-2.58.47-8.48,1.54-8.5,1.54-8.2,1.49-8.47,1.54-1.87.34c-.07,0-.16,0-.2.13l4.18-.06,2.58,0"/>
      <path class="cls-7" d="M54.09,19.91l-11.17.17-5.16.08c-1,0-2,0-3,.05h-.21c-.42,0-.84,0-1.25,0s-.66,0-1,0l-.24,0c-.06,0-.15,0-.16.09s.08.08.15.1c.4.09.81.12,1.21.17l2.47.34,2.55.34,2.38.32,2.52.34,2.35.31,3.19.43,1.65.22,2.55.34,1.59.22,1.22.16a2.34,2.34,0,0,1,1.46.66c.85.85,1.75,1.66,2.61,2.5.7.68,1.4,1.35,2.12,2a3,3,0,0,0,.4.39s.1.12.17.07,0-.13,0-.2l-.36-2.3c-.34-2.22-.7-4.44-1-6.66,0-.21-.13-.31-.35-.28a3.57,3.57,0,0,1-.73,0c-1,0-2,0-2.94,0l-3,0"/>
      <path class="cls-8" d="M60.41,31.59c-.09-.25-.32-.37-.48-.53-.87-.86-1.76-1.7-2.64-2.54-.34-.32-.67-.64-1-1-.14-.15-.24-.16-.36,0l-2.27,3c-.14.18-.07.22.1.24l6.54.86.1,0"/>
      <path class="cls-9" d="M60.41,31.59c-.09-.25-.32-.37-.48-.53-.87-.86-1.76-1.7-2.64-2.54-.34-.32-.67-.64-1-1-.14-.15-.24-.16-.36,0l-2.27,3c-.14.18-.07.22.1.24l6.54.86Z"/>
    </g>
  </g>
</svg>
