<svg id="Layer_1" data-name="Layer 1" xmlns="http://www.w3.org/2000/svg" xmlns:xlink="http://www.w3.org/1999/xlink" viewBox="0 0 141.73 141.73">
  <defs>
    <style>
      .cls-1 {
        fill: none;
      }

      .cls-2 {
        clip-path: url(#clip-path);
      }

      .cls-3 {
        fill: #26bade;
      }

      .cls-4 {
        fill: #2a2522;
      }

      .cls-5 {
        fill: #fff;
      }
    </style>
    <clipPath id="clip-path">
      <rect class="cls-1" width="141.73" height="141.73"/>
    </clipPath>
  </defs>
  <title>icon</title>
  <g class="cls-2">
    <g class="cls-2">
      <path class="cls-3" d="M86,76.33v3a6.74,6.74,0,1,1-13.48,0v-3a18.45,18.45,0,0,0,13.48,0"/>
      <path class="cls-4" d="M74.24,55.71V52.33a1.69,1.69,0,0,0-1.69-1.68H65.81a1.68,1.68,0,0,0-1.68,1.68v3.38a1.68,1.68,0,0,0,1.68,1.68h6.74a1.69,1.69,0,0,0,1.69-1.68M86,79.29v-3a18.45,18.45,0,0,1-13.48,0v3a6.74,6.74,0,1,0,13.48,0m8.42-18.82a5.07,5.07,0,0,1-1.68.29H86a5.06,5.06,0,0,1-5-5H77.61a5.06,5.06,0,0,1-5.06,5H65.81a5.05,5.05,0,0,1-1.54-.24v-.05h-.14l.14.05a15.16,15.16,0,0,0,30.18-.05m8.43-3.08V47.28a23.59,23.59,0,0,0-47.17,0V57.39A6.73,6.73,0,0,0,61.45,64a18.44,18.44,0,0,1-.69-5V42.23a1.69,1.69,0,0,1,1.69-1.69h5a1.69,1.69,0,0,1,0,3.37H64.13v3.67a5.35,5.35,0,0,1,1.68-.3h6.74a5.06,5.06,0,0,1,5.06,5H81a1.68,1.68,0,0,1,3.36,0v3.38A1.69,1.69,0,0,0,86,57.39h6.74a1.68,1.68,0,0,0,1.68-1.68V52.33a1.68,1.68,0,0,0-1.68-1.68H87.71a1.69,1.69,0,0,1,0-3.37h5.06a5.35,5.35,0,0,1,1.68.3V43.91H91.08a1.66,1.66,0,0,1-1.39-.76l-2-2.95-2,2.95a1.68,1.68,0,0,1-1.4.76H74.24a1.69,1.69,0,1,1,0-3.37h9.19l2.89-4.29a1.67,1.67,0,0,1,2.79,0L92,40.54h4.15a1.69,1.69,0,0,1,1.68,1.69V59.07a18.44,18.44,0,0,1-.69,5,6.75,6.75,0,0,0,5.75-6.64m18.53,35.38v27a1.69,1.69,0,0,1-3.37,0V92.77A11.79,11.79,0,0,0,106.25,81h-17a10.11,10.11,0,0,1-19.92,0h-17a11.78,11.78,0,0,0-8.29,3.37A1.68,1.68,0,1,1,41.69,82a15.09,15.09,0,0,1,10.65-4.4H69.18v-3A18.77,18.77,0,0,1,62.8,67.5h-.35A10.11,10.11,0,0,1,52.34,57.39V47.28a27,27,0,0,1,53.91,0V57.39A10.11,10.11,0,0,1,96.14,67.5h-.36a18.77,18.77,0,0,1-6.38,7.09v3h16.85a15.17,15.17,0,0,1,15.16,15.17"/>
      <path class="cls-4" d="M104.56,102.87v16.85a1.69,1.69,0,0,1-3.37,0V102.87a1.69,1.69,0,0,1,3.37,0"/>
      <path class="cls-4" d="M89.4,52.33A1.69,1.69,0,1,1,87.72,54a1.69,1.69,0,0,1,1.68-1.69"/>
      <path class="cls-4" d="M69.18,52.33A1.69,1.69,0,1,1,67.5,54a1.69,1.69,0,0,1,1.68-1.69"/>
      <path class="cls-4" d="M28.53,76.31l-1.68-2.92a1.69,1.69,0,0,0-1-.79,1.66,1.66,0,0,0-1.29.17,1.69,1.69,0,0,0-.79,1,1.66,1.66,0,0,0,.17,1.29L25.6,78ZM37,91,30.22,79.29,27.29,81,34,92.58Zm3.45,9.29a20.38,20.38,0,0,0-1.84-6.39l-2.79,1.6a20.25,20.25,0,0,0,4.63,4.79m3.51,11v-4.18a13.61,13.61,0,0,0-12.35-1.4l-4.5,1.69v3.89Zm25.26,0a1.69,1.69,0,1,1,0,3.37H22a1.69,1.69,0,0,1,0-3.37H23.7v-5.06a1.69,1.69,0,0,1,1.09-1.58l5.65-2.09a16.77,16.77,0,0,1,6.23-1.09A23.92,23.92,0,0,1,32,95.73L23.53,81.14,21,76.76a5.06,5.06,0,0,1,8.76-5.05l11,19a24,24,0,0,1,3.21,11.79v.78q.86.44,1.68,1a16.84,16.84,0,0,1,15.16-1.69l5.64,2.09a1.69,1.69,0,1,1-1.18,3.17l-5.59-2.11a13.61,13.61,0,0,0-12.35,1.4v4.18Z"/>
      <path class="cls-4" d="M64.27,60.47v.05l-.14-.05Z"/>
      <path class="cls-4" d="M47.28,57.39v5a1.69,1.69,0,0,1-1.68,1.69H22a1.69,1.69,0,0,1-1.68-1.69V32.12A1.68,1.68,0,0,1,22,30.44H45.6a1.68,1.68,0,0,1,1.68,1.68V50.65a1.69,1.69,0,1,1-3.37,0V33.8H23.7v27H43.91V57.39a1.69,1.69,0,0,1,3.37,0"/>
      <path class="cls-4" d="M43.91,23.7a1.69,1.69,0,1,1,0,3.37H32.12a1.69,1.69,0,0,1,0-3.37Z"/>
      <path class="cls-5" d="M43.91,107.12v4.18H27.07v-3.89l4.5-1.69a13.59,13.59,0,0,1,12.34,1.4"/>
      <path class="cls-4" d="M38.86,38.86a1.69,1.69,0,0,1,0,3.37H32.12a1.69,1.69,0,0,1,0-3.37Z"/>
      <path class="cls-4" d="M38.86,45.6a1.69,1.69,0,0,1,0,3.37H28.75a1.69,1.69,0,0,1,0-3.37Z"/>
      <path class="cls-4" d="M38.86,52.33a1.69,1.69,0,0,1,0,3.38H28.75a1.69,1.69,0,0,1,0-3.38Z"/>
      <path class="cls-5" d="M38.57,93.86a20.38,20.38,0,0,1,1.84,6.39,20.25,20.25,0,0,1-4.63-4.79Z"/>
    </g>
    <polygon class="cls-5" points="30.22 79.29 36.95 90.97 34.03 92.58 27.29 80.97 30.22 79.29"/>
    <g class="cls-2">
      <path class="cls-5" d="M26.85,73.39l1.68,2.92L25.6,78l-1.68-2.91a1.66,1.66,0,0,1-.17-1.29,1.69,1.69,0,0,1,.79-1,1.66,1.66,0,0,1,1.29-.17,1.69,1.69,0,0,1,1,.79"/>
    </g>
  </g>
</svg>
