<svg id="Layer_1" data-name="Layer 1" xmlns="http://www.w3.org/2000/svg" xmlns:xlink="http://www.w3.org/1999/xlink" viewBox="0 0 141.73 141.73">
  <defs>
    <style>
      .cls-1, .cls-4 {
        fill: none;
      }

      .cls-2 {
        clip-path: url(#clip-path);
      }

      .cls-3 {
        fill: #fff;
      }

      .cls-4 {
        stroke: #000;
        stroke-miterlimit: 10;
        stroke-width: 4px;
      }

      .cls-5 {
        fill: #74c29f;
      }
    </style>
    <clipPath id="clip-path">
      <rect class="cls-1" width="141.73" height="141.73"/>
    </clipPath>
  </defs>
  <title>icon</title>
  <g class="cls-2">
    <g class="cls-2">
      <path class="cls-3" d="M107.09,44.28a10,10,0,1,0-10,10,10,10,0,0,0,10-10M119.85,26c-.09-2.58-.81-3.21-3.38-3.31a80.49,80.49,0,0,0-14,.76C88.27,25.35,75.81,30.67,66.42,42a1.61,1.61,0,0,1-2.12.54c-5.45-1.72-10.64-1.11-14.92,2.86-5.11,4.74-10,9.75-14.91,14.67a4.16,4.16,0,0,0-1,3.85A7.36,7.36,0,0,0,38.13,70C42,71.55,45.85,73.3,50,75.1c-4.11,4.1-8,8-11.94,11.88a3.92,3.92,0,0,0-1.2,3.74c1.11,7.09,7.79,13.68,14.9,14.73a3.82,3.82,0,0,0,3.53-1.27c2.87-2.91,5.78-5.76,8.66-8.65,1.1-1.11,2.17-2.25,3.39-3.51,2,4.64,3.88,9,5.84,13.27s6.63,5.19,10,1.86C87.85,102.58,92.48,98,97,93.32c4.24-4.36,5.54-9.43,3.07-15.17A1.54,1.54,0,0,1,100.7,76a46.67,46.67,0,0,0,10.16-11.46c7.14-11.89,9.48-24.93,9-38.61"/>
      <path class="cls-4" d="M107.09,44.28a10,10,0,1,0-10,10A10,10,0,0,0,107.09,44.28ZM119.85,26c-.09-2.58-.81-3.21-3.38-3.31a80.49,80.49,0,0,0-14,.76C88.27,25.35,75.81,30.67,66.42,42a1.61,1.61,0,0,1-2.12.54c-5.45-1.72-10.64-1.11-14.92,2.86-5.11,4.74-10,9.75-14.91,14.67a4.16,4.16,0,0,0-1,3.85A7.36,7.36,0,0,0,38.13,70C42,71.55,45.85,73.3,50,75.1c-4.11,4.1-8,8-11.94,11.88a3.92,3.92,0,0,0-1.2,3.74c1.11,7.09,7.79,13.68,14.9,14.73a3.82,3.82,0,0,0,3.53-1.27c2.87-2.91,5.78-5.76,8.66-8.65,1.1-1.11,2.17-2.25,3.39-3.51,2,4.64,3.88,9,5.84,13.27s6.63,5.19,10,1.86C87.85,102.58,92.48,98,97,93.32c4.24-4.36,5.54-9.43,3.07-15.17A1.54,1.54,0,0,1,100.7,76a46.67,46.67,0,0,0,10.16-11.46C118,52.69,120.34,39.65,119.85,26Z"/>
      <path d="M39,107.41a3.12,3.12,0,0,1-1.05,2.28l-11.6,11.52c-1.16,1.15-2.42,1.65-3.8.41-1.09-1-.87-2.24.56-3.69q5.74-5.81,11.51-11.61c.83-.83,1.73-1.41,3-.87a2.34,2.34,0,0,1,1.4,2"/>
      <path d="M46.77,114a2.68,2.68,0,0,1-.9,1.91c-1.81,1.81-3.61,3.63-5.44,5.43-1.14,1.13-2.47,1.39-3.66.22s-.8-2.38.27-3.46c1.86-1.85,3.73-3.7,5.58-5.56a2.46,2.46,0,0,1,2.89-.6A2.13,2.13,0,0,1,46.77,114"/>
      <path d="M29.78,96.05a2.11,2.11,0,0,1,2.47,1.16,1.93,1.93,0,0,1-.2,2.38c-1.91,2-3.82,3.94-5.82,5.82-1,.9-2.06.63-3-.21a1.81,1.81,0,0,1-.33-2.64c2-2.18,4.1-4.21,6.21-6.26a1,1,0,0,1,.67-.25"/>
      <path class="cls-5" d="M97.23,53a8.51,8.51,0,1,0-8.51-8.51A8.5,8.5,0,0,0,97.23,53"/>
    </g>
  </g>
</svg>
