<svg id="Layer_1" data-name="Layer 1" xmlns="http://www.w3.org/2000/svg" xmlns:xlink="http://www.w3.org/1999/xlink" viewBox="0 0 141.73 141.73">
  <defs>
    <style>
      .cls-1 {
        fill: none;
      }

      .cls-2 {
        clip-path: url(#clip-path);
      }

      .cls-3 {
        fill: #fafbfb;
      }

      .cls-4 {
        fill: #74c29f;
      }
    </style>
    <clipPath id="clip-path">
      <rect class="cls-1" width="141.73" height="141.73"/>
    </clipPath>
  </defs>
  <title>icon</title>
  <g class="cls-2">
    <g class="cls-2">
      <path d="M94.46,85.74c2.51-.68,3.93.59,5.39,2,2.61,2.49,5.32,4.87,8,7.28a2.36,2.36,0,0,1,1.06,2.39c-.26,1-1.19,1.19-2.06,1.36-1.91.37-3.82.78-5.74,1.08a1.31,1.31,0,0,0-1.26,1.28c-.32,2-.75,3.92-1.12,5.88-.16.85-.4,1.67-1.34,1.9a2.25,2.25,0,0,1-2.28-1c-2.91-3.22-5.81-6.45-8.76-9.62-1-1.09-.62-2.38-.8-3.78-9.24,6-19.1,7.38-29.49,4.09A32.44,32.44,0,0,1,37.18,83.18,33.78,33.78,0,0,1,87.24,39.82a34.15,34.15,0,0,1,7.22,45.92"/>
      <path class="cls-3" d="M36.28,68.87c0-17.61,10.92-30.15,26.16-32.33A30.2,30.2,0,0,1,96.86,66.89a29.56,29.56,0,0,1-5.93,17.69c-1,1.4-2.39,1.45-3.65.19s-2.51-2.6-3.85-3.81c-.79-.71-.81-1.16-.18-2.08,4.9-7.07,5.66-14.62,1.58-22.19a20.69,20.69,0,0,0-35.61-1.57c-8.17,12.07-1.17,29,13.19,31.78a20.41,20.41,0,0,0,16.7-3.81c.68-.5,1-.57,1.65.1,1.28,1.4,2.67,2.7,4,4s1.31,2.66-.26,3.73C74,98.17,62.92,99,51.73,92.9c-10.26-5.63-15.06-14.8-15.45-24"/>
      <path class="cls-3" d="M66.5,58.79a7.73,7.73,0,0,0-7.17,4.84,7.94,7.94,0,0,0,1.8,8.49,7.68,7.68,0,0,0,8.78,1.41c.62-.32.94-.34,1.44.17q2.73,2.85,5.58,5.58c.6.58.46.84-.14,1.28A17.68,17.68,0,0,1,58,81.64,17.34,17.34,0,1,1,83.5,63,17,17,0,0,1,80.62,76.7c-.46.67-.74.82-1.37.15-1.81-1.91-3.64-3.8-5.55-5.6-.64-.61-.27-1,0-1.48a7.76,7.76,0,0,0-7.15-11"/>
      <path class="cls-4" d="M103.59,95.83c-1.82.37-3.39.73-5,1a2,2,0,0,0-1.78,1.82c-.29,1.56-.64,3.11-1,4.88l-6.43-7a1.27,1.27,0,0,1-.3-.94c0-1.9,0-3.8,0-5.7,0-.75.27-.88.93-.87,1.86,0,3.71,0,5.56,0a1.57,1.57,0,0,1,1.18.44c2.21,2.06,4.42,4.09,6.82,6.3"/>
      <path class="cls-4" d="M70.32,68.11c-.72-.82-1.4-1.67-2.17-2.44-1-1-2.17-1.21-2.8-.42a1.91,1.91,0,0,0,.34,2.84c.6.57,1.17,1.18,1.73,1.78.18.2.55.34.41.69s-.49.24-.77.27a4.33,4.33,0,1,1,3.8-4.1,1.54,1.54,0,0,1-.54,1.38"/>
    </g>
  </g>
</svg>
