<svg id="Layer_1" data-name="Layer 1" xmlns="http://www.w3.org/2000/svg" xmlns:xlink="http://www.w3.org/1999/xlink" viewBox="0 0 141.73 141.73">
  <defs>
    <style>
      .cls-1, .cls-3 {
        fill: none;
      }

      .cls-2 {
        clip-path: url(#clip-path);
      }

      .cls-3 {
        stroke: #000;
        stroke-width: 4px;
      }

      .cls-4 {
        fill: #4091c3;
      }
    </style>
    <clipPath id="clip-path">
      <rect class="cls-1" width="141.73" height="141.73"/>
    </clipPath>
  </defs>
  <title>icon</title>
  <g class="cls-2">
    <g class="cls-2">
      <path class="cls-3" d="M46.84,67l18.31,38.82a5.78,5.78,0,0,0,2.33,2.61,6.51,6.51,0,0,0,6.77,0,6.06,6.06,0,0,0,2.38-2.61L94.89,67a21.14,21.14,0,0,0,1.65-9A25.67,25.67,0,0,0,70.87,32.35,25.67,25.67,0,0,0,45.19,58,21.14,21.14,0,0,0,46.84,67Z"/>
      <path class="cls-4" d="M59.93,59.91a7.35,7.35,0,0,0,.67,1.51,10.82,10.82,0,0,0,.85,1.23c.32.39.55.67.7.82a2.9,2.9,0,0,0,.34.32l7.82,7.55a.78.78,0,0,0,1.11,0l7.81-7.52q2.86-2.88,2.87-5.64a5.78,5.78,0,0,0-1.59-4.32,6.06,6.06,0,0,0-4.4-1.55,5,5,0,0,0-1.59.27,6.49,6.49,0,0,0-1.5.72c-.47.31-.87.6-1.2.86a9.7,9.7,0,0,0-.95.86,9.81,9.81,0,0,0-1-.86c-.33-.26-.73-.55-1.19-.86a6.76,6.76,0,0,0-1.51-.72,5,5,0,0,0-1.58-.27,6.08,6.08,0,0,0-4.41,1.55,5.78,5.78,0,0,0-1.59,4.32,5.43,5.43,0,0,0,.3,1.73"/>
      <path class="cls-3" d="M59.93,59.91a7.35,7.35,0,0,0,.67,1.51,10.82,10.82,0,0,0,.85,1.23c.32.39.55.67.7.82a2.9,2.9,0,0,0,.34.32l7.82,7.55a.78.78,0,0,0,1.11,0l7.81-7.52q2.86-2.88,2.87-5.64a5.78,5.78,0,0,0-1.59-4.32,6.06,6.06,0,0,0-4.4-1.55,5,5,0,0,0-1.59.27,6.49,6.49,0,0,0-1.5.72c-.47.31-.87.6-1.2.86a9.7,9.7,0,0,0-.95.86,9.81,9.81,0,0,0-1-.86c-.33-.26-.73-.55-1.19-.86a6.76,6.76,0,0,0-1.51-.72,5,5,0,0,0-1.58-.27,6.08,6.08,0,0,0-4.41,1.55,5.78,5.78,0,0,0-1.59,4.32A5.43,5.43,0,0,0,59.93,59.91Z"/>
    </g>
  </g>
</svg>
