<svg id="Layer_1" data-name="Layer 1" xmlns="http://www.w3.org/2000/svg" xmlns:xlink="http://www.w3.org/1999/xlink" viewBox="0 0 141.73 141.73">
  <defs>
    <style>
      .cls-1 {
        fill: none;
      }

      .cls-2 {
        clip-path: url(#clip-path);
      }

      .cls-3 {
        fill: #53bcb5;
      }

      .cls-4 {
        fill: #f5f2f4;
      }

      .cls-5 {
        fill: #f7f5f8;
      }

      .cls-6 {
        fill: #f7f7f7;
      }

      .cls-7 {
        fill: #fefeff;
      }
    </style>
    <clipPath id="clip-path">
      <rect class="cls-1" width="141.73" height="141.73"/>
    </clipPath>
  </defs>
  <title>icon</title>
  <g class="cls-2">
    <g class="cls-2">
      <path d="M81.25,66.83c1.94-.32,3.37.43,4.81-.71,1.82-1.43,1.52-3.26,1.34-5-.28-2.66.64-4,3.27-4.77,1.62-.45,2.63-.34,3.66.93a16,16,0,0,0,2.77,2.87c1.48,1.12,3.12,1.53,4.67,0,.71-.7,1.38-1.45,2.13-2.1,1.06-.91,1.82-2.37,3.76-1.27s4.11,1.49,3.47,4.45a14.18,14.18,0,0,0-.07,3,3.68,3.68,0,0,0,3.54,3.66c.75,0,1.5,0,2.25,0,3.78.16,4.59.94,5.36,4.66a1.44,1.44,0,0,1-.55,1.48c-.86.9-1.78,1.75-2.68,2.61-2.32,2.2-2.35,4-.1,6.3,3.71,3.74,3.67,3.72,1.69,7.47a1.83,1.83,0,0,1-1.93,1.17c-1.5-.07-3-.07-4.5-.06A3.41,3.41,0,0,0,110.55,95c0,.58,0,1.16,0,1.74,0,4.23-.33,4.55-4.49,5.61-.9.23-1.24-.21-1.68-.63-1-1-2-2-3-3-1.89-1.94-3.83-1.95-5.79,0a8.74,8.74,0,0,0-1,1.07c-1.64,2.34-3.49,2.45-5.92,1-1.34-.77-2-1.46-1.87-3,.11-1.07,0-2.16,0-3.24,0-2.69-1.31-4-4.06-4.08s-5.86.51-6.67-3.61c-.27-1.38-.4-2.28.72-3.2,1-.79,1.83-1.7,2.72-2.58a3.52,3.52,0,0,0,0-5.21c-.4-.43-.81-.84-1.22-1.25-3-3-3-3.3-.89-7,1.11-1.9,2.9-.51,3.78-.84"/>
      <path d="M76.77,79.58a8.22,8.22,0,0,1-7.92,4.23c-14.82-.23-29.65-.09-44.48-.1-3.8,0-4.89-1.08-4.89-4.88V26.6c0-3.63,1.12-4.74,4.81-4.74h74c3.85,0,4.92,1.06,4.93,4.89,0,8.74-.1,17.49.06,26.23,0,2.62-1.75,3.69-3.27,4.91-1.17.93-1.44-.31-1.44-1.32V47.82c0-5.16,0-10.33,0-15.49,0-1.27-.3-1.71-1.65-1.71q-35.61.06-71.23,0c-1.68,0-1.62.84-1.61,2,0,14.91.05,29.82,0,44.73,0,2,.75,2.25,2.47,2.25,15.74-.06,31.49,0,47.23,0Z"/>
      <path d="M83,115.73c-.55-.18-1.11-.35-1.65-.54-1.86-.68-2.94-.16-3.5,1.85-.3,1.08-.11,2.58-2.15,2.81s-2.58-1-3.23-2.35c-.94-1.94-2.24-2.16-4-1-1,.63-1.9,1.46-3.3.3a2.62,2.62,0,0,1-.79-3.47c.86-2.25.17-3.73-2.31-4.07-1.61-.22-2.08-1.12-2.33-2.62-.28-1.72,1-2,1.93-2.42,2.14-1,2.58-2.33,1.28-4.33-.65-1-1.35-1.88-.26-3.3s2.17-1,3.44-.69c2.73.77,3.17.52,4-2.33.33-1.16.61-2,2.18-2.15a2.4,2.4,0,0,1,2.69,1.55c1.67,3.1,1.82,3.13,4.9,1.45,1-.57,1.81-.79,2.86.14a2.32,2.32,0,0,1,.88,2.93c-1.08,3.2-.79,3.61,2.44,4.58,1.13.34,1.87.75,2,2.12a2.38,2.38,0,0,1-1.51,2.72c-3,1.62-3.05,1.89-1.41,5,.42.77,1.19,1.48.2,2.4-.7.64-1,1.87-2.35,1.48"/>
      <path d="M49.59,36.47c5.67,0,11.33,0,17,0,.84,0,2.09-.36,2.11,1s-1.18,1.12-2.07,1.12q-17.11,0-34.25,0c-.93,0-2.3.32-2.23-1.2.06-1.33,1.36-.95,2.19-.95,5.75,0,11.5,0,17.25,0"/>
      <path d="M43.92,43.62c-3.9,0-7.81,0-11.72,0-.87,0-2.05.23-2.07-1.12s1.11-1,1.89-1q11.85,0,23.69,0c.77,0,1.85-.2,1.81,1.09s-1.08,1-1.88,1.06c-3.9,0-7.81,0-11.72,0"/>
      <path class="cls-3" d="M106.61,79.22A7.33,7.33,0,0,1,99.1,86.8a7.76,7.76,0,0,1-7.83-7.68,7.4,7.4,0,0,1,7.57-7.54,7.53,7.53,0,0,1,7.77,7.64"/>
      <path class="cls-4" d="M32.31,28.69c-1.41-.19-2.21-.85-2.22-2.08a1.86,1.86,0,0,1,2-2,1.82,1.82,0,0,1,2,2c0,1.3-.85,1.82-1.78,2.13"/>
      <path class="cls-5" d="M28.48,26.3c-.09,1.46-.73,2.27-2,2.31a1.87,1.87,0,0,1-2.06-2,1.85,1.85,0,0,1,1.92-2.07,2,2,0,0,1,2.1,1.72"/>
      <path class="cls-6" d="M39.8,26.53c-.15,1.13-.66,2-2,2.08a1.79,1.79,0,0,1-2-1.79,1.82,1.82,0,0,1,1.76-2.24c1.35-.12,1.93.71,2.19,2"/>
      <path class="cls-7" d="M69.43,105.62a4.24,4.24,0,0,1,4.25-4.53,4.61,4.61,0,0,1,4.7,4.49,4.48,4.48,0,1,1-8.95,0"/>
    </g>
  </g>
</svg>
