<svg id="Layer_1" data-name="Layer 1" xmlns="http://www.w3.org/2000/svg" xmlns:xlink="http://www.w3.org/1999/xlink" viewBox="0 0 141.73 141.73">
  <defs>
    <style>
      .cls-1, .cls-4, .cls-6 {
        fill: none;
      }

      .cls-2 {
        clip-path: url(#clip-path);
      }

      .cls-3 {
        fill: #53bcb5;
      }

      .cls-4, .cls-6 {
        stroke: #000;
      }

      .cls-4 {
        stroke-miterlimit: 10;
        stroke-width: 0.85px;
      }

      .cls-5 {
        fill: #fff;
      }

      .cls-6 {
        stroke-linecap: round;
        stroke-linejoin: round;
        stroke-width: 3px;
      }
    </style>
    <clipPath id="clip-path">
      <rect class="cls-1" width="141.73" height="141.73"/>
    </clipPath>
  </defs>
  <title>icon</title>
  <g class="cls-2">
    <g class="cls-2">
      <path class="cls-3" d="M86.79,72.54A16.06,16.06,0,1,1,70.73,56.49,16.06,16.06,0,0,1,86.79,72.54"/>
      <circle class="cls-4" cx="70.73" cy="72.54" r="16.06"/>
      <path class="cls-5" d="M67.59,82.83a12.09,12.09,0,1,1,15-8.21,12.08,12.08,0,0,1-15,8.21m24.76-4.06,7.22,1.11,1.27-8.43-7.19-1.09c0-.77-.1-1.53-.2-2.28l6.89-2.34-2.75-8.08L90.7,60c-.37-.66-.8-1.3-1.23-1.93l5-5.25-6.16-5.9-5,5.25a25.05,25.05,0,0,0-2.93-1.6l2.2-7.5-8.19-2.4-2.32,7.9c-.84,0-1.67,0-2.49,0l-1.82-7-8.25,2.1,1.8,7.06c-.68.34-1.35.69-2,1.08l-4.85-5.42L48.09,52,53,57.45a22.57,22.57,0,0,0-1.3,1.89l-6.81-2.58-3,8,6.79,2.57a22.13,22.13,0,0,0-.27,2.28l-7.22.85,1,8.46,7.21-.85c.24.73.5,1.45.8,2.15l-6,4.08,4.78,7,6-4.08a22.58,22.58,0,0,0,1.7,1.56L53.17,95.2l7.49,4,3.46-6.4.49.16a16.77,16.77,0,0,0,1.73.42l-.13,7.28,8.52.14.13-7.28a16.76,16.76,0,0,0,2.23-.51l3.25,6.53L88,95.78l-3.25-6.52c.6-.46,1.19-1,1.75-1.47l5.89,4.29,5-6.89L91.49,80.9a20.61,20.61,0,0,0,.86-2.13"/>
      <path class="cls-6" d="M67.59,82.83a12.09,12.09,0,1,1,15-8.21A12.08,12.08,0,0,1,67.59,82.83Zm24.76-4.06,7.22,1.11,1.27-8.43-7.19-1.09c0-.77-.1-1.53-.2-2.28l6.89-2.34-2.75-8.08L90.7,60c-.37-.66-.8-1.3-1.23-1.93l5-5.25-6.16-5.9-5,5.25a25.05,25.05,0,0,0-2.93-1.6l2.2-7.5-8.19-2.4-2.32,7.9c-.84,0-1.67,0-2.49,0l-1.82-7-8.25,2.1,1.8,7.06c-.68.34-1.35.69-2,1.08l-4.85-5.42L48.09,52,53,57.45a22.57,22.57,0,0,0-1.3,1.89l-6.81-2.58-3,8,6.79,2.57a22.13,22.13,0,0,0-.27,2.28l-7.22.85,1,8.46,7.21-.85c.24.73.5,1.45.8,2.15l-6,4.08,4.78,7,6-4.08a22.58,22.58,0,0,0,1.7,1.56L53.17,95.2l7.49,4,3.46-6.4.49.16a16.77,16.77,0,0,0,1.73.42l-.13,7.28,8.52.14.13-7.28a16.76,16.76,0,0,0,2.23-.51l3.25,6.53L88,95.78l-3.25-6.52c.6-.46,1.19-1,1.75-1.47l5.89,4.29,5-6.89L91.49,80.9A20.61,20.61,0,0,0,92.35,78.77Z"/>
    </g>
  </g>
</svg>
