<svg id="Layer_1" data-name="Layer 1" xmlns="http://www.w3.org/2000/svg" xmlns:xlink="http://www.w3.org/1999/xlink" viewBox="0 0 141.73 141.73">
  <defs>
    <style>
      .cls-1, .cls-4 {
        fill: none;
      }

      .cls-2 {
        clip-path: url(#clip-path);
      }

      .cls-3 {
        fill: #fff;
      }

      .cls-4 {
        stroke: #000;
        stroke-linejoin: round;
        stroke-width: 5px;
      }

      .cls-5 {
        fill: #4091c3;
      }
    </style>
    <clipPath id="clip-path">
      <rect class="cls-1" width="141.73" height="141.73"/>
    </clipPath>
  </defs>
  <title>icon</title>
  <g class="cls-2">
    <g class="cls-2">
      <path class="cls-3" d="M98.41,71A27.58,27.58,0,1,1,71,43.32,27.68,27.68,0,0,1,98.41,71"/>
      <path class="cls-4" d="M98.41,71A27.58,27.58,0,1,1,71,43.32,27.68,27.68,0,0,1,98.41,71Z"/>
      <path d="M70.8,26.9c0-1.21,0-2.28,0-3.35a1.22,1.22,0,0,1,.35-.86c.12-.1.57.09.8.25,3.22,2.2,6.44,4.42,9.65,6.63.8.56.79.78,0,1.34-3.16,2.14-6.31,4.3-9.48,6.43a4.93,4.93,0,0,1-1,.35,4.32,4.32,0,0,1-.31-1.07c0-1,0-2,0-3-10.37-.53-25.28,5.31-33,19.72a37.57,37.57,0,0,0,11.07,47.93l-3.73,5.22c-11.54-7.91-20.6-24.16-17.6-42.72A42.62,42.62,0,0,1,42.36,37.42,43.4,43.4,0,0,1,70.8,26.9"/>
      <path d="M70.92,108.27a37.29,37.29,0,0,0,33.36-20.44,36.3,36.3,0,0,0,3-25.71A37.3,37.3,0,0,0,92.87,40.6l3.76-5.27C108.32,43.42,117,59.7,114.3,77.44a43,43,0,0,1-14.77,26.73,43.5,43.5,0,0,1-28.72,10.74c0,1.11,0,2.17,0,3.23a4.55,4.55,0,0,1-.24.93,3.39,3.39,0,0,1-1-.29q-4.8-3.27-9.58-6.58c-.76-.52-.77-.77,0-1.29q4.88-3.3,9.78-6.57c.24-.16.69-.32.82-.22a1.34,1.34,0,0,1,.31.87c0,1.07,0,2.15,0,3.28"/>
      <path class="cls-5" d="M79,77.55a10.64,10.64,0,0,1-6.75,2.3c-2.29,0-4.67-.9-5.6-4.46h7.77l.68-2.25H66.28c0-.43,0-.81,0-1.23l0-1h9.38l.68-2.29H66.58c.89-3.74,3.39-4.92,5.77-4.92a12.51,12.51,0,0,1,6.07,1.57l1.44-3.1a15.18,15.18,0,0,0-8.19-2.29c-4.62,0-8.78,2.8-9.85,8.74H58.9v2.29h2.67a8,8,0,0,0,0,1l0,1.23H58.9v2.25h3c1.14,6,5.39,8.28,9.67,8.28,3.95,0,6.54-.94,9.09-3.23Z"/>
    </g>
  </g>
</svg>
