<svg id="Layer_1" data-name="Layer 1" xmlns="http://www.w3.org/2000/svg" xmlns:xlink="http://www.w3.org/1999/xlink" viewBox="0 0 141.73 141.73">
  <defs>
    <style>
      .cls-1 {
        fill: none;
      }

      .cls-2 {
        clip-path: url(#clip-path);
      }

      .cls-3 {
        fill: #22211f;
      }

      .cls-4 {
        fill: #fff;
      }

      .cls-5 {
        fill: #91c1a2;
      }
    </style>
    <clipPath id="clip-path">
      <rect class="cls-1" width="141.73" height="141.73"/>
    </clipPath>
  </defs>
  <title>icon</title>
  <g class="cls-2">
    <g class="cls-2">
      <path class="cls-3" d="M35,60.2a7.75,7.75,0,1,0-9.37,12.35A34.63,34.63,0,0,1,35,60.2M109.5,34.08A5.51,5.51,0,1,0,104,39.59a5.51,5.51,0,0,0,5.51-5.51m3,49.44c0-7.59-4.11-14.83-11.56-20.41-8-6-18.66-9.23-30.1-9.23s-22.13,3.28-30.11,9.23C33.31,68.69,29.2,75.93,29.2,83.52s4.11,14.84,11.56,20.4c8,6,18.67,9.24,30.11,9.24S93,109.88,101,103.92c7.45-5.56,11.56-12.81,11.56-20.4m3.58-11a7.75,7.75,0,1,0-9.37-12.35,34.69,34.69,0,0,1,9.37,12.35m9.13-6.29a13.66,13.66,0,0,1-7.32,12.1,26.89,26.89,0,0,1,.5,5.17c0,19.62-21.29,35.53-47.55,35.53S23.31,103.14,23.31,83.52a27,27,0,0,1,.5-5.18,13.65,13.65,0,1,1,16-21.73,56.81,56.81,0,0,1,28.11-8.55A20.84,20.84,0,0,1,93.28,27.73l1.1.24a11.38,11.38,0,1,1-1.79,6.11c0-.16,0-.31,0-.46L92,33.48A15,15,0,0,0,73.81,48.06a57,57,0,0,1,28.12,8.55,13.64,13.64,0,0,1,23.31,9.64"/>
      <path class="cls-4" d="M119.35,66.25a7.74,7.74,0,0,1-3.24,6.29,34.69,34.69,0,0,0-9.37-12.35,7.76,7.76,0,0,1,12.61,6.06"/>
      <path class="cls-4" d="M59.71,75.22a6.22,6.22,0,1,0-6.22,6.22,6.22,6.22,0,0,0,6.22-6.22M89.57,94.69a2.95,2.95,0,0,0-4-4.36A23.75,23.75,0,0,1,52.21,89a2.94,2.94,0,1,0-4.3,4,29.65,29.65,0,0,0,41.66,1.71m4.88-19.47a6.22,6.22,0,1,0-6.22,6.22,6.22,6.22,0,0,0,6.22-6.22M101,63.11c7.45,5.58,11.56,12.82,11.56,20.41s-4.11,14.84-11.56,20.4c-8,6-18.66,9.24-30.1,9.24s-22.13-3.28-30.11-9.24C33.31,98.36,29.2,91.11,29.2,83.52s4.11-14.83,11.56-20.41c8-6,18.67-9.23,30.11-9.23S93,57.16,101,63.11"/>
      <path class="cls-4" d="M104,28.57a5.51,5.51,0,1,1-5.5,5.51,5.51,5.51,0,0,1,5.5-5.51"/>
      <path class="cls-5" d="M88.23,69A6.22,6.22,0,1,1,82,75.22,6.22,6.22,0,0,1,88.23,69"/>
      <path class="cls-5" d="M89.76,90.53a2.94,2.94,0,0,1-.19,4.16A29.66,29.66,0,0,1,47.9,93a2.95,2.95,0,0,1,4.31-4A23.75,23.75,0,0,0,85.6,90.33a3,3,0,0,1,4.16.2"/>
      <path class="cls-5" d="M53.5,69a6.22,6.22,0,1,1-6.22,6.22A6.22,6.22,0,0,1,53.5,69"/>
      <path class="cls-4" d="M30.14,58.49A7.7,7.7,0,0,1,35,60.2a34.63,34.63,0,0,0-9.37,12.35,7.75,7.75,0,0,1,4.52-14.06"/>
      <path class="cls-3" d="M35,60.2a7.75,7.75,0,1,0-9.37,12.35A34.63,34.63,0,0,1,35,60.2M109.5,34.08A5.51,5.51,0,1,0,104,39.59a5.51,5.51,0,0,0,5.51-5.51m3,49.44c0-7.59-4.11-14.83-11.56-20.41-8-6-18.66-9.23-30.1-9.23s-22.13,3.28-30.11,9.23C33.31,68.69,29.2,75.93,29.2,83.52s4.11,14.84,11.56,20.4c8,6,18.67,9.24,30.11,9.24S93,109.88,101,103.92c7.45-5.56,11.56-12.81,11.56-20.4m3.58-11a7.75,7.75,0,1,0-9.37-12.35,34.69,34.69,0,0,1,9.37,12.35m9.13-6.29a13.66,13.66,0,0,1-7.32,12.1,26.89,26.89,0,0,1,.5,5.17c0,19.62-21.29,35.53-47.55,35.53S23.31,103.14,23.31,83.52a27,27,0,0,1,.5-5.18,13.65,13.65,0,1,1,16-21.73,56.81,56.81,0,0,1,28.11-8.55A20.84,20.84,0,0,1,93.28,27.73l1.1.24a11.38,11.38,0,1,1-1.79,6.11c0-.16,0-.31,0-.46L92,33.48A15,15,0,0,0,73.81,48.06a57,57,0,0,1,28.12,8.55,13.64,13.64,0,0,1,23.31,9.64"/>
      <path class="cls-4" d="M119.35,66.25a7.74,7.74,0,0,1-3.24,6.29,34.69,34.69,0,0,0-9.37-12.35,7.76,7.76,0,0,1,12.61,6.06"/>
      <path class="cls-4" d="M59.71,75.22a6.22,6.22,0,1,0-6.22,6.22,6.22,6.22,0,0,0,6.22-6.22M89.57,94.69a2.95,2.95,0,0,0-4-4.36A23.75,23.75,0,0,1,52.21,89a2.94,2.94,0,1,0-4.3,4,29.65,29.65,0,0,0,41.66,1.71m4.88-19.47a6.22,6.22,0,1,0-6.22,6.22,6.22,6.22,0,0,0,6.22-6.22M101,63.11c7.45,5.58,11.56,12.82,11.56,20.41s-4.11,14.84-11.56,20.4c-8,6-18.66,9.24-30.1,9.24s-22.13-3.28-30.11-9.24C33.31,98.36,29.2,91.11,29.2,83.52s4.11-14.83,11.56-20.41c8-6,18.67-9.23,30.11-9.23S93,57.16,101,63.11"/>
      <path class="cls-4" d="M104,28.57a5.51,5.51,0,1,1-5.5,5.51,5.51,5.51,0,0,1,5.5-5.51"/>
      <path class="cls-5" d="M88.23,69A6.22,6.22,0,1,1,82,75.22,6.22,6.22,0,0,1,88.23,69"/>
      <path class="cls-5" d="M89.76,90.53a2.94,2.94,0,0,1-.19,4.16A29.66,29.66,0,0,1,47.9,93a2.95,2.95,0,0,1,4.31-4A23.75,23.75,0,0,0,85.6,90.33a3,3,0,0,1,4.16.2"/>
      <path class="cls-5" d="M53.5,69a6.22,6.22,0,1,1-6.22,6.22A6.22,6.22,0,0,1,53.5,69"/>
      <path class="cls-4" d="M30.14,58.49A7.7,7.7,0,0,1,35,60.2a34.63,34.63,0,0,0-9.37,12.35,7.75,7.75,0,0,1,4.52-14.06"/>
    </g>
  </g>
</svg>
