<svg id="Layer_1" data-name="Layer 1" xmlns="http://www.w3.org/2000/svg" xmlns:xlink="http://www.w3.org/1999/xlink" viewBox="0 0 141.73 141.73">
  <defs>
    <style>
      .cls-1, .cls-4, .cls-5 {
        fill: none;
      }

      .cls-2 {
        clip-path: url(#clip-path);
      }

      .cls-3 {
        fill: #fff;
      }

      .cls-4, .cls-5 {
        stroke: #000;
        stroke-width: 3.3px;
      }

      .cls-4 {
        stroke-miterlimit: 10;
      }

      .cls-5 {
        stroke-linecap: round;
        stroke-linejoin: round;
      }

      .cls-6 {
        fill: #26bade;
      }
    </style>
    <clipPath id="clip-path">
      <rect class="cls-1" width="141.73" height="141.73"/>
    </clipPath>
  </defs>
  <title>icon</title>
  <g class="cls-2">
    <g class="cls-2">
      <path class="cls-3" d="M81.45,97.45,98.24,66.8A28.62,28.62,0,0,0,73.1,24.43H68.85A28.62,28.62,0,0,0,43.71,66.8L60.5,97.45Z"/>
      <path class="cls-4" d="M81.45,97.45,98.24,66.8A28.62,28.62,0,0,0,73.1,24.43H68.85A28.62,28.62,0,0,0,43.71,66.8L60.5,97.45Z"/>
      <path class="cls-4" d="M75.06,104.4V62.28a5.22,5.22,0,0,1,10.44,0v.8a5.19,5.19,0,0,1-5.22,5.16H66.13m.76,36.16V62.28a5.22,5.22,0,0,0-10.44,0v.8a5.19,5.19,0,0,0,5.22,5.16H75.82M71,104.4h0"/>
      <path class="cls-3" d="M77.73,106.74H64.23a5.33,5.33,0,0,1,0-10.65h13.5a5.33,5.33,0,0,1,0,10.65"/>
      <path class="cls-5" d="M77.73,106.74H64.23a5.33,5.33,0,0,1,0-10.65h13.5a5.33,5.33,0,0,1,0,10.65Z"/>
      <path class="cls-6" d="M77.73,96.09H64.23a5.33,5.33,0,0,0,0,10.65h13.5a5.33,5.33,0,0,0,0-10.65"/>
      <path class="cls-5" d="M77.73,96.09H64.23a5.33,5.33,0,0,0,0,10.65h13.5a5.33,5.33,0,0,0,0-10.65Z"/>
      <path class="cls-6" d="M77.73,106.2H64.23a5.33,5.33,0,0,0,0,10.66h13.5a5.33,5.33,0,0,0,0-10.66"/>
      <path class="cls-5" d="M77.73,106.2H64.23a5.33,5.33,0,0,0,0,10.66h13.5a5.33,5.33,0,0,0,0-10.66Z"/>
    </g>
  </g>
</svg>
