<svg id="Layer_1" data-name="Layer 1" xmlns="http://www.w3.org/2000/svg" xmlns:xlink="http://www.w3.org/1999/xlink" viewBox="0 0 141.73 141.73">
  <defs>
    <style>
      .cls-1 {
        fill: none;
      }

      .cls-2 {
        clip-path: url(#clip-path);
      }

      .cls-3 {
        fill: #fff;
      }

      .cls-4 {
        fill: #0885c2;
      }

      .cls-5 {
        fill: #141310;
      }

      .cls-6 {
        fill: #4091c3;
      }
    </style>
    <clipPath id="clip-path">
      <rect class="cls-1" width="141.73" height="141.73"/>
    </clipPath>
  </defs>
  <title>icon</title>
  <g class="cls-2">
    <g class="cls-2">
      <path class="cls-3" d="M106.1,56.32l-12,12H88.69l3.92-3.92a1.72,1.72,0,0,0,0-2.43L73.79,43.13a1.71,1.71,0,0,0-2.42,0L46.2,68.3H40.77L79.42,29.64,84.74,35A10.27,10.27,0,0,0,99.07,49.29Z"/>
    </g>
    <polygon class="cls-3" points="88.98 63.16 83.85 68.3 51.04 68.3 72.58 46.76 88.98 63.16"/>
    <g class="cls-2">
      <path class="cls-4" d="M93.12,83.49V101A6.87,6.87,0,0,0,88.2,106H53.54A6.9,6.9,0,0,0,48.62,101V83.49a6.9,6.9,0,0,0,4.92-4.92H88.2a6.87,6.87,0,0,0,4.92,4.92"/>
      <path class="cls-3" d="M40.06,80.28H36.64v6.85h3.42Zm0,10.27H36.64v6.84h3.42Zm0,10.27H36.64v6.84h3.42Zm56.48,1.71V82a1.71,1.71,0,0,0-1.71-1.71,3.43,3.43,0,0,1-3.43-3.42,1.71,1.71,0,0,0-1.71-1.72H52a1.72,1.72,0,0,0-1.71,1.72,3.42,3.42,0,0,1-3.43,3.42A1.71,1.71,0,0,0,45.19,82v20.54a1.71,1.71,0,0,0,1.71,1.71,3.42,3.42,0,0,1,3.43,3.42A1.72,1.72,0,0,0,52,109.38H89.69a1.71,1.71,0,0,0,1.71-1.72,3.43,3.43,0,0,1,3.43-3.42,1.71,1.71,0,0,0,1.71-1.71m8.56-27.39h-3.43V82h3.43Zm0,10.28h-3.43v6.84h3.43Zm0,10.26h-3.43v6.85h3.43Zm13.69,6.71V112.8H105.1V106h-3.43v6.85H40.06v-1.71H36.64v1.71H22.94V102.39a10.27,10.27,0,0,0,0-20.26V71.72h13.7v5.14h3.42V71.72h78.73V82.13a10.27,10.27,0,0,0,0,20.26"/>
      <path class="cls-5" d="M83.85,68.3,89,63.16l-16.4-16.4L51,68.3Zm10.27,0,12-12-7-7A10.27,10.27,0,0,1,84.74,35l-5.32-5.32L40.77,68.3H46.2L71.37,43.13a1.71,1.71,0,0,1,2.42,0L92.61,62a1.72,1.72,0,0,1,0,2.43L88.69,68.3Zm24.67,44.5V102.39a10.27,10.27,0,0,1,0-20.26V71.72H40.06v5.14H36.64V71.72H22.94V82.13a10.27,10.27,0,0,1,0,20.26V112.8h13.7v-1.71h3.42v1.71h61.61V106h3.43v6.85Zm3.42-12v13.69a1.7,1.7,0,0,1-1.71,1.71H21.23a1.71,1.71,0,0,1-1.71-1.71V100.82a1.71,1.71,0,0,1,1.71-1.71,6.85,6.85,0,1,0,0-13.69,1.72,1.72,0,0,1-1.71-1.72V70a1.72,1.72,0,0,1,1.71-1.71h14.7L78.21,26a1.71,1.71,0,0,1,2.42,0l7.64,7.64a1.71,1.71,0,0,1,0,2.42A6.85,6.85,0,0,0,98,45.76a1.71,1.71,0,0,1,2.42,0l9.35,9.35a1.71,1.71,0,0,1,0,2.42L99,68.3H120.5A1.71,1.71,0,0,1,122.21,70V83.7a1.71,1.71,0,0,1-1.71,1.72,6.85,6.85,0,1,0,0,13.69,1.7,1.7,0,0,1,1.71,1.71"/>
    </g>
    <rect class="cls-5" x="101.67" y="95.68" width="3.42" height="6.85"/>
    <rect class="cls-5" x="101.67" y="85.41" width="3.42" height="6.85"/>
    <rect class="cls-5" x="101.67" y="75.14" width="3.42" height="6.85"/>
    <g class="cls-2">
      <path class="cls-5" d="M93.12,101V83.49a6.87,6.87,0,0,1-4.92-4.92H53.54a6.9,6.9,0,0,1-4.92,4.92V101A6.9,6.9,0,0,1,53.54,106H88.2A6.87,6.87,0,0,1,93.12,101m3.42-19v20.54a1.71,1.71,0,0,1-1.71,1.71,3.43,3.43,0,0,0-3.43,3.42,1.71,1.71,0,0,1-1.71,1.72H52a1.71,1.71,0,0,1-1.71-1.72,3.42,3.42,0,0,0-3.43-3.42,1.71,1.71,0,0,1-1.71-1.71V82a1.71,1.71,0,0,1,1.71-1.71,3.42,3.42,0,0,0,3.43-3.42A1.71,1.71,0,0,1,52,75.14H89.69a1.71,1.71,0,0,1,1.71,1.72,3.43,3.43,0,0,0,3.43,3.42A1.71,1.71,0,0,1,96.54,82"/>
    </g>
    <rect class="cls-5" x="36.64" y="100.82" width="3.42" height="6.84"/>
    <rect class="cls-5" x="36.64" y="90.55" width="3.42" height="6.85"/>
    <rect class="cls-5" x="36.64" y="80.28" width="3.42" height="6.85"/>
    <g class="cls-2">
      <path class="cls-3" d="M106.1,56.32l-12,12H88.69l3.92-3.92a1.72,1.72,0,0,0,0-2.43L73.79,43.13a1.71,1.71,0,0,0-2.42,0L46.2,68.3H40.77L79.42,29.64,84.74,35A10.27,10.27,0,0,0,99.07,49.29Z"/>
    </g>
    <polygon class="cls-3" points="88.98 63.16 83.85 68.3 51.04 68.3 72.58 46.76 88.98 63.16"/>
    <g class="cls-2">
      <path class="cls-6" d="M93.12,83.49V101A6.87,6.87,0,0,0,88.2,106H53.54A6.9,6.9,0,0,0,48.62,101V83.49a6.9,6.9,0,0,0,4.92-4.92H88.2a6.87,6.87,0,0,0,4.92,4.92"/>
      <path class="cls-3" d="M40.06,80.28H36.64v6.85h3.42Zm0,10.27H36.64v6.84h3.42Zm0,10.27H36.64v6.84h3.42Zm56.48,1.71V82a1.71,1.71,0,0,0-1.71-1.71,3.43,3.43,0,0,1-3.43-3.42,1.71,1.71,0,0,0-1.71-1.72H52a1.72,1.72,0,0,0-1.71,1.72,3.42,3.42,0,0,1-3.43,3.42A1.71,1.71,0,0,0,45.19,82v20.54a1.71,1.71,0,0,0,1.71,1.71,3.42,3.42,0,0,1,3.43,3.42A1.72,1.72,0,0,0,52,109.38H89.69a1.71,1.71,0,0,0,1.71-1.72,3.43,3.43,0,0,1,3.43-3.42,1.71,1.71,0,0,0,1.71-1.71m8.56-27.39h-3.43V82h3.43Zm0,10.28h-3.43v6.84h3.43Zm0,10.26h-3.43v6.85h3.43Zm13.69,6.71V112.8H105.1V106h-3.43v6.85H40.06v-1.71H36.64v1.71H22.94V102.39a10.27,10.27,0,0,0,0-20.26V71.72h13.7v5.14h3.42V71.72h78.73V82.13a10.27,10.27,0,0,0,0,20.26"/>
      <path class="cls-5" d="M83.85,68.3,89,63.16l-16.4-16.4L51,68.3Zm10.27,0,12-12-7-7A10.27,10.27,0,0,1,84.74,35l-5.32-5.32L40.77,68.3H46.2L71.37,43.13a1.71,1.71,0,0,1,2.42,0L92.61,62a1.72,1.72,0,0,1,0,2.43L88.69,68.3Zm24.67,44.5V102.39a10.27,10.27,0,0,1,0-20.26V71.72H40.06v5.14H36.64V71.72H22.94V82.13a10.27,10.27,0,0,1,0,20.26V112.8h13.7v-1.71h3.42v1.71h61.61V106h3.43v6.85Zm3.42-12v13.69a1.7,1.7,0,0,1-1.71,1.71H21.23a1.71,1.71,0,0,1-1.71-1.71V100.82a1.71,1.71,0,0,1,1.71-1.71,6.85,6.85,0,1,0,0-13.69,1.72,1.72,0,0,1-1.71-1.72V70a1.72,1.72,0,0,1,1.71-1.71h14.7L78.21,26a1.71,1.71,0,0,1,2.42,0l7.64,7.64a1.71,1.71,0,0,1,0,2.42A6.85,6.85,0,0,0,98,45.76a1.71,1.71,0,0,1,2.42,0l9.35,9.35a1.71,1.71,0,0,1,0,2.42L99,68.3H120.5A1.71,1.71,0,0,1,122.21,70V83.7a1.71,1.71,0,0,1-1.71,1.72,6.85,6.85,0,1,0,0,13.69,1.7,1.7,0,0,1,1.71,1.71"/>
    </g>
    <rect class="cls-5" x="101.67" y="95.68" width="3.42" height="6.85"/>
    <rect class="cls-5" x="101.67" y="85.41" width="3.42" height="6.85"/>
    <rect class="cls-5" x="101.67" y="75.14" width="3.42" height="6.85"/>
    <g class="cls-2">
      <path class="cls-5" d="M93.12,101V83.49a6.87,6.87,0,0,1-4.92-4.92H53.54a6.9,6.9,0,0,1-4.92,4.92V101A6.9,6.9,0,0,1,53.54,106H88.2A6.87,6.87,0,0,1,93.12,101m3.42-19v20.54a1.71,1.71,0,0,1-1.71,1.71,3.43,3.43,0,0,0-3.43,3.42,1.71,1.71,0,0,1-1.71,1.72H52a1.71,1.71,0,0,1-1.71-1.72,3.42,3.42,0,0,0-3.43-3.42,1.71,1.71,0,0,1-1.71-1.71V82a1.71,1.71,0,0,1,1.71-1.71,3.42,3.42,0,0,0,3.43-3.42A1.71,1.71,0,0,1,52,75.14H89.69a1.71,1.71,0,0,1,1.71,1.72,3.43,3.43,0,0,0,3.43,3.42A1.71,1.71,0,0,1,96.54,82"/>
    </g>
    <rect class="cls-5" x="36.64" y="100.82" width="3.42" height="6.84"/>
    <rect class="cls-5" x="36.64" y="90.55" width="3.42" height="6.85"/>
    <rect class="cls-5" x="36.64" y="80.28" width="3.42" height="6.85"/>
  </g>
</svg>
