<svg id="Layer_1" data-name="Layer 1" xmlns="http://www.w3.org/2000/svg" xmlns:xlink="http://www.w3.org/1999/xlink" viewBox="0 0 141.73 141.73">
  <defs>
    <style>
      .cls-1 {
        fill: none;
      }

      .cls-2 {
        clip-path: url(#clip-path);
      }

      .cls-3 {
        fill: #70706f;
      }

      .cls-4 {
        fill: #9c9c9c;
      }

      .cls-5 {
        fill: #4091c3;
      }
    </style>
    <clipPath id="clip-path">
      <rect class="cls-1" width="141.73" height="141.73"/>
    </clipPath>
  </defs>
  <title>icon</title>
  <g class="cls-2">
    <g class="cls-2">
      <path class="cls-3" d="M88.9,128.15,70.22,109.47,52.14,127.55V92.32H53a.6.6,0,0,1,.6.6v15.47a.6.6,0,0,1-.6.6v15.9l17.18-17.18,17.4,17.4Z"/>
    </g>
    <polygon class="cls-4" points="87.31 108.01 86.25 108.01 86.25 122.11 87.31 123.31 87.31 108.01"/>
    <polygon class="cls-3" points="89.25 93.46 88.06 93.46 88.06 124.36 89.25 127.36 89.25 93.46"/>
    <g class="cls-2">
      <path class="cls-3" d="M91.7,33.81c-.19.32-.38.62-.6.92A28.93,28.93,0,0,1,99.34,55v0a28.88,28.88,0,0,1-8.51,20.56l.75.75h0a1,1,0,0,0,.74.3,1.06,1.06,0,0,0,.77-.33,29.89,29.89,0,0,0,8-19.44,1,1,0,0,0-.74-1c0-.27,0-.53,0-.8v0A30,30,0,0,0,91.7,33.81m7.11,30.72a29.2,29.2,0,0,1-6.45,11.08l.73.68-.81-.68,0,0a30,30,0,0,0,6.58-11"/>
      <path class="cls-3" d="M42.18,44.78A29,29,0,0,1,49,34.15h0a28.88,28.88,0,0,1,20.55-8.52V24.56a1.05,1.05,0,0,0-1.09-1A29.87,29.87,0,0,0,49,31.57a1.06,1.06,0,0,0-.22,1.26l-.57.55v0a30.08,30.08,0,0,0-7,11Z"/>
      <path class="cls-3" d="M42.47,65.72l-1.87.85a29.88,29.88,0,0,0,5.93,9.33,1.07,1.07,0,0,0,.77.34,1,1,0,0,0,.49-.12l.55.57h0a30,30,0,0,0,21.13,8.82c-.09-.35-.17-.71-.23-1.07a28.92,28.92,0,0,1-20.15-8.51h0a29.07,29.07,0,0,1-6.63-10.21m-.54,1.34c.31.75.66,1.48,1,2.19-.39-.71-.74-1.43-1.07-2.17Z"/>
      <path class="cls-3" d="M60.31,64.53l-.38.37h0a.53.53,0,0,0,0,.76,15,15,0,0,0,9.75,4h0a.54.54,0,0,0,.51-.38h.41A15,15,0,0,0,81.25,65a4.53,4.53,0,0,1-.46-.3,14.46,14.46,0,0,1-10.16,4.13h0a14.48,14.48,0,0,1-10.31-4.26"/>
      <path class="cls-3" d="M75.75,40.13a14.45,14.45,0,0,1,5.33,3.4h0a14.52,14.52,0,0,1,4.27,10.31h.53a.52.52,0,0,0,.52-.55,15,15,0,0,0-4-9.74.52.52,0,0,0-.63-.11l-.28-.29h0a15.11,15.11,0,0,0-5.53-3.53Z"/>
      <path class="cls-3" d="M64.82,39.34a14.93,14.93,0,0,0-4.68,3,.52.52,0,0,0-.11.63l-.28.28h0a15,15,0,0,0-4.42,10.59l.53-.11a14.51,14.51,0,0,1,4.27-10.1h0a14.66,14.66,0,0,1,5.12-3.33Z"/>
      <path class="cls-3" d="M73.73,16.72a1.31,1.31,0,0,0-1.25.93l-1,0h0A37.45,37.45,0,0,0,45,28.5c.39.24.77.48,1.15.75A36,36,0,0,1,71.46,19h0A36.08,36.08,0,0,1,97.15,29.59l.94-.93h0a1.32,1.32,0,0,0,0-1.89,37.33,37.33,0,0,0-24.27-10Zm0,0,0,1A36.64,36.64,0,0,1,97.37,27.5l.1.23-.09.22-.24.24A37,37,0,0,0,73.41,18l0-.08a.32.32,0,0,1,.3-.22Z"/>
      <path class="cls-3" d="M58.71,90.33a36.17,36.17,0,0,1-13.27-8.45l0,0A36.14,36.14,0,0,1,34.78,56.2H33.47a1.31,1.31,0,0,0-1.31,1.36A37.31,37.31,0,0,0,42.22,81.82a1.3,1.3,0,0,0,1.57.27l.69.71,0,0a37.51,37.51,0,0,0,13.76,8.77Z"/>
      <path class="cls-3" d="M108.24,56.52A36.12,36.12,0,0,1,97.62,81.68h0A36.12,36.12,0,0,1,84.85,90l1.07,2.34A37.69,37.69,0,0,0,97.57,84.9a1.33,1.33,0,0,0,.27-1.57l.71-.69v0a37.4,37.4,0,0,0,11-26.38c-.44.11-.89.2-1.34.28"/>
      <path class="cls-5" d="M70.87,30.26h0a24.26,24.26,0,0,0,0,48.51h0a24.26,24.26,0,0,0,0-48.51m0,44a19.62,19.62,0,0,1,0-39.23h0a19.62,19.62,0,0,1,0,39.23h0"/>
      <path class="cls-4" d="M70.87,46.66h0a7.86,7.86,0,0,0,0,15.71h0a7.86,7.86,0,0,0,0-15.71m0,14.25a6.35,6.35,0,1,1,0-12.69h0a6.35,6.35,0,0,1,0,12.69h0"/>
    </g>
  </g>
</svg>
