<svg id="Layer_1" data-name="Layer 1" xmlns="http://www.w3.org/2000/svg" xmlns:xlink="http://www.w3.org/1999/xlink" viewBox="0 0 141.73 141.73">
  <defs>
    <style>
      .cls-1 {
        fill: none;
      }

      .cls-2 {
        clip-path: url(#clip-path);
      }

      .cls-3 {
        fill: #fff;
      }

      .cls-4 {
        fill: #91c1a2;
      }

      .cls-5 {
        fill: #141310;
      }
    </style>
    <clipPath id="clip-path">
      <rect class="cls-1" width="141.73" height="141.73"/>
    </clipPath>
  </defs>
  <title>icon</title>
  <g class="cls-2">
    <g class="cls-2">
      <path class="cls-3" d="M80.9,53.72A2,2,0,0,0,82,51.15,23.92,23.92,0,0,0,59.71,35.79a2,2,0,1,0,0,4A20.06,20.06,0,0,1,78.32,52.58a2,2,0,0,0,1.86,1.28,2,2,0,0,0,.72-.14m2.72,6a2,2,0,1,0-2,2,2,2,0,0,0,2-2M59.71,31.8A27.91,27.91,0,1,1,31.8,59.71,27.94,27.94,0,0,1,59.71,31.8"/>
      <path class="cls-3" d="M116.74,111.1a4,4,0,1,1-5.64,5.63L93.4,99A52.69,52.69,0,0,0,99,93.4Z"/>
      <path class="cls-4" d="M90.56,84.92l5.65,5.66a49.07,49.07,0,0,1-5.63,5.63l-5.66-5.65a40.63,40.63,0,0,0,5.64-5.64"/>
      <path class="cls-3" d="M91.59,59.71A31.89,31.89,0,1,0,59.71,91.59,31.93,31.93,0,0,0,91.59,59.71m4,0a35.56,35.56,0,0,1-6.83,21,36.23,36.23,0,0,1-8,8,35.86,35.86,0,1,1,14.84-29"/>
      <path class="cls-5" d="M88.75,80.74a35.91,35.91,0,1,0-8,8,36.23,36.23,0,0,0,8-8m7.46,9.84-5.65-5.66a40.63,40.63,0,0,1-5.64,5.64l5.66,5.65a49.89,49.89,0,0,0,5.63-5.63m21.69,23.34a4,4,0,0,0-1.16-2.82L99,93.4A52.69,52.69,0,0,1,93.4,99l17.7,17.69a4,4,0,0,0,6.8-2.81m1.65-5.64a8,8,0,1,1-11.27,11.27L89,100.31h0L81.68,93A39.9,39.9,0,1,1,93,81.68Z"/>
      <path class="cls-5" d="M81.63,57.71a2,2,0,1,1-2,2,2,2,0,0,1,2-2"/>
      <path class="cls-5" d="M87.61,59.71a27.91,27.91,0,1,0-27.9,27.9,27.94,27.94,0,0,0,27.9-27.9m-27.9-31.9a31.89,31.89,0,1,1-31.9,31.9,31.93,31.93,0,0,1,31.9-31.9"/>
      <path class="cls-5" d="M82,51.15a2,2,0,0,1-1.14,2.57,2,2,0,0,1-.72.14,2,2,0,0,1-1.86-1.28A20.06,20.06,0,0,0,59.71,39.77a2,2,0,1,1,0-4A23.92,23.92,0,0,1,82,51.15"/>
    </g>
  </g>
</svg>
