<svg id="Layer_1" data-name="Layer 1" xmlns="http://www.w3.org/2000/svg" xmlns:xlink="http://www.w3.org/1999/xlink" viewBox="0 0 141.73 141.73">
  <defs>
    <style>
      .cls-1 {
        fill: none;
      }

      .cls-2 {
        clip-path: url(#clip-path);
      }

      .cls-3 {
        fill: #70706f;
      }

      .cls-4 {
        fill: #53bcb5;
      }
    </style>
    <clipPath id="clip-path">
      <rect class="cls-1" width="141.73" height="141.73"/>
    </clipPath>
  </defs>
  <title>icon</title>
  <g class="cls-2">
    <g class="cls-2">
      <path class="cls-3" d="M81.88,60.56l-.44-.45L70.38,71,59.05,59.83l-.38.39h0l0,0,0,0h0a.63.63,0,0,0,.07.82l6.93,6.78a.62.62,0,0,0,.79.07l4,3.92Z"/>
    </g>
    <polygon class="cls-3" points="93.8 65.61 70.38 88.86 46.96 65.61 46.07 66.51 69.93 90.2 70.38 90.65 94.7 66.51 93.8 65.61"/>
    <g class="cls-2">
      <path class="cls-4" d="M72,31.23a1.25,1.25,0,0,0-1.15.81l-.8,0a25.76,25.76,0,0,0-21,10.81l.52.37a25.1,25.1,0,0,1,40.86-.05l.46-.33h0a1.25,1.25,0,0,0,.26-1.77,26,26,0,0,0-19.13-9.83H72"/>
      <path class="cls-3" d="M38.15,39A43.17,43.17,0,0,1,50.93,26.26a34.92,34.92,0,0,1,16.6-5.43,1.92,1.92,0,0,1,1.86,1.48l1.24,0A34.45,34.45,0,0,1,89,27.74a43.23,43.23,0,0,1,13.81,14.53l-.79.68c-7.23-12.2-19-19.49-31.42-19.49S46.5,30.71,39.27,42.85l-.72-.62v0A2.59,2.59,0,0,1,38.15,39"/>
    </g>
    <polygon class="cls-3" points="35.35 43.15 105.25 43.15 105.25 48.85 106.51 48.85 106.51 41.88 34.08 41.88 34.08 77.35 35.35 77.35 35.35 43.15"/>
    <polygon class="cls-3" points="102.85 45.47 37.75 45.47 37.75 51.74 38.89 51.74 38.89 46.61 101.71 46.61 101.71 77.35 102.85 77.35 102.85 45.47"/>
    <g class="cls-2">
      <path class="cls-4" d="M106.51,63.16h-1.26V93.85a44,44,0,0,1-9,6.81,51.89,51.89,0,0,1-51.92,0,43.6,43.6,0,0,1-8.91-6.73H34.08v.41l.17.18a41.88,41.88,0,0,0,9.41,7.2,53.08,53.08,0,0,0,53.28,0,41.88,41.88,0,0,0,9.41-7.2l.16-.18V88.77a1.2,1.2,0,0,0,1.14-1.2V68.67a1.19,1.19,0,0,0-1.14-1.19Z"/>
      <path class="cls-3" d="M37.83,63.19h1V90.82A39.34,39.34,0,0,0,46.87,97a46.71,46.71,0,0,0,46.75,0,39.37,39.37,0,0,0,8-6.06h1.22v.37l-.15.17a38.56,38.56,0,0,1-8.47,6.48,47.82,47.82,0,0,1-48,0,39.35,39.35,0,0,1-8.43-6.43Z"/>
    </g>
  </g>
</svg>
