<svg id="Layer_1" data-name="Layer 1" xmlns="http://www.w3.org/2000/svg" xmlns:xlink="http://www.w3.org/1999/xlink" viewBox="0 0 141.73 141.73">
  <defs>
    <style>
      .cls-1 {
        fill: none;
      }

      .cls-2 {
        clip-path: url(#clip-path);
      }

      .cls-3 {
        fill: #91c1a2;
      }

      .cls-4 {
        fill: #fff;
      }

      .cls-5 {
        fill: #141310;
      }
    </style>
    <clipPath id="clip-path">
      <rect class="cls-1" width="141.73" height="141.73"/>
    </clipPath>
  </defs>
  <title>icon</title>
  <g class="cls-2">
    <g class="cls-2">
      <path class="cls-3" d="M74.46,88.82V99.59a1.81,1.81,0,0,1-1.8,1.8H69.07a1.8,1.8,0,0,1-1.79-1.8V88.82A1.8,1.8,0,0,1,69.07,87h3.59a1.81,1.81,0,0,1,1.8,1.8"/>
      <path class="cls-4" d="M121.13,43.94v40a1.8,1.8,0,0,1-1.54,1.78l-.5.07-41,5.66V88.82a5.39,5.39,0,0,0-5.39-5.39H69.07a5.38,5.38,0,0,0-5.38,5.39v2.59L22.14,85.68A1.79,1.79,0,0,1,20.6,83.9v-40a1.79,1.79,0,0,1,1.79-1.8h97a1.79,1.79,0,0,1,1.79,1.8"/>
      <path class="cls-4" d="M117.54,89.58V114a1.8,1.8,0,0,1-1.79,1.8H26a1.8,1.8,0,0,1-1.79-1.8V89.58L63.69,95v4.56A5.39,5.39,0,0,0,69.07,105h3.59a5.4,5.4,0,0,0,5.39-5.39V95Z"/>
      <path class="cls-4" d="M92.41,31.37v7.18H88.82V31.37A1.8,1.8,0,0,0,87,29.58H54.71a1.8,1.8,0,0,0-1.8,1.79v7.18H49.32V31.37A5.39,5.39,0,0,1,54.71,26H87a5.39,5.39,0,0,1,5.39,5.39"/>
      <path class="cls-5" d="M74.46,99.59V88.82a1.81,1.81,0,0,0-1.8-1.8H69.07a1.8,1.8,0,0,0-1.79,1.8V99.59a1.79,1.79,0,0,0,1.79,1.79h3.59a1.8,1.8,0,0,0,1.8-1.79M85.23,33.17H56.5v5.38H85.23Zm7.18,5.38V31.37A5.39,5.39,0,0,0,87,26H54.71a5.39,5.39,0,0,0-5.39,5.39v7.18h3.59V31.37a1.8,1.8,0,0,1,1.8-1.79H87a1.8,1.8,0,0,1,1.8,1.79v7.18ZM117.54,114V89.58L78.05,95v4.56A5.4,5.4,0,0,1,72.66,105H69.07a5.38,5.38,0,0,1-5.38-5.39V95l-39.5-5.45V114a1.8,1.8,0,0,0,1.79,1.8h89.77a1.8,1.8,0,0,0,1.79-1.8m3.59-30v-40a1.79,1.79,0,0,0-1.79-1.8H22.39a1.79,1.79,0,0,0-1.79,1.8v40a1.79,1.79,0,0,0,1.54,1.78l41.55,5.73V88.82a5.38,5.38,0,0,1,5.38-5.39h3.59a5.39,5.39,0,0,1,5.39,5.39v2.59l41-5.66.5-.07a1.8,1.8,0,0,0,1.54-1.78m3.59-40v40A5.4,5.4,0,0,1,121.13,89v25a5.38,5.38,0,0,1-5.38,5.39H26A5.38,5.38,0,0,1,20.6,114V89A5.4,5.4,0,0,1,17,83.9v-40a5.38,5.38,0,0,1,5.38-5.39H45.73V31.37a9,9,0,0,1,9-9H87a9,9,0,0,1,9,9v7.18h23.34a5.38,5.38,0,0,1,5.38,5.39"/>
    </g>
  </g>
</svg>
