<svg id="Layer_1" data-name="Layer 1" xmlns="http://www.w3.org/2000/svg" xmlns:xlink="http://www.w3.org/1999/xlink" viewBox="0 0 141.73 141.73">
  <defs>
    <style>
      .cls-1, .cls-4 {
        fill: none;
      }

      .cls-2 {
        clip-path: url(#clip-path);
      }

      .cls-3 {
        fill: #fff;
      }

      .cls-4 {
        stroke: #000;
        stroke-linejoin: round;
        stroke-width: 5px;
      }

      .cls-5 {
        fill: #74c29f;
      }
    </style>
    <clipPath id="clip-path">
      <rect class="cls-1" width="141.73" height="141.73"/>
    </clipPath>
  </defs>
  <title>icon</title>
  <g class="cls-2">
    <g class="cls-2">
      <path class="cls-3" d="M70.57,35.07,83.65,48.14q9.12,9.12,18.27,18.23a2,2,0,0,1,.64,1.54c0,12.8,0,30.91,0,43.7v1H82V87.69H59.72v24.92H39.18v-1c0-13,0-31.35,0-44.37A1.9,1.9,0,0,1,39.64,66Q54.91,50.66,70.23,35.38l.34-.31"/>
      <path class="cls-4" d="M70.57,35.07,83.65,48.14q9.12,9.12,18.27,18.23a2,2,0,0,1,.64,1.54c0,12.8,0,30.91,0,43.7v1H82V87.69H59.72v24.92H39.18v-1c0-13,0-31.35,0-44.37A1.9,1.9,0,0,1,39.64,66Q54.91,50.66,70.23,35.38Z"/>
      <path class="cls-5" d="M70.76,28.26a3.41,3.41,0,0,1,2.67,1.2l9.66,9.67q15.06,15.07,30.12,30.13a3.39,3.39,0,0,1,1.23,3.07,3.07,3.07,0,0,1-2.1,2.53,3,3,0,0,1-3.27-.73c-1.78-1.73-3.51-3.49-5.26-5.24L73.58,38.63c-1.85-1.84-3.57-1.85-5.4,0Q50.59,56.22,33,73.82a3.29,3.29,0,0,1-3.41,1.09A3.14,3.14,0,0,1,27.88,70a6.3,6.3,0,0,1,.73-.82L68.14,29.6a3.54,3.54,0,0,1,2.62-1.34"/>
      <path class="cls-4" d="M70.76,28.26a3.41,3.41,0,0,1,2.67,1.2l9.66,9.67q15.06,15.07,30.12,30.13a3.39,3.39,0,0,1,1.23,3.07,3.07,3.07,0,0,1-2.1,2.53,3,3,0,0,1-3.27-.73c-1.78-1.73-3.51-3.49-5.26-5.24L73.58,38.63c-1.85-1.84-3.57-1.85-5.4,0Q50.59,56.22,33,73.82a3.29,3.29,0,0,1-3.41,1.09A3.14,3.14,0,0,1,27.88,70a6.3,6.3,0,0,1,.73-.82L68.14,29.6A3.54,3.54,0,0,1,70.76,28.26Z"/>
      <path class="cls-3" d="M40.47,42h6.69v.58c0,1.76,0,5.64,0,7.4a1,1,0,0,1-.22.64c-2.07,2.14-4.15,4.26-6.23,6.39-.05,0-.23-10.66-.23-15"/>
      <path class="cls-4" d="M40.47,42h6.69v.58c0,1.76,0,5.64,0,7.4a1,1,0,0,1-.22.64c-2.07,2.14-4.15,4.26-6.23,6.39C40.65,57,40.47,46.3,40.47,42Z"/>
    </g>
  </g>
</svg>
