<svg id="Layer_1" data-name="Layer 1" xmlns="http://www.w3.org/2000/svg" xmlns:xlink="http://www.w3.org/1999/xlink" viewBox="0 0 141.73 141.73">
  <defs>
    <style>
      .cls-1 {
        fill: none;
      }

      .cls-2 {
        clip-path: url(#clip-path);
      }

      .cls-3 {
        fill: #fff;
      }

      .cls-4 {
        fill: #4091c3;
      }

      .cls-5 {
        fill: #141310;
      }
    </style>
    <clipPath id="clip-path">
      <rect class="cls-1" width="141.73" height="141.73"/>
    </clipPath>
  </defs>
  <title>icon</title>
  <g class="cls-2">
    <g class="cls-2">
      <path class="cls-3" d="M47.33,37.58a3.25,3.25,0,1,1-3.25,3.25,3.25,3.25,0,0,1,3.25-3.25"/>
      <path class="cls-3" d="M105.77,29.47A6.5,6.5,0,1,1,99.28,36a6.5,6.5,0,0,1,6.49-6.49"/>
      <path class="cls-3" d="M99.28,89.53A3.25,3.25,0,1,1,96,92.78a3.26,3.26,0,0,1,3.25-3.25"/>
      <path class="cls-3" d="M73.3,99.28a6.5,6.5,0,1,1-6.49,6.49,6.5,6.5,0,0,1,6.49-6.49"/>
      <path class="cls-3" d="M36,96a6.5,6.5,0,1,1-6.49,6.49A6.5,6.5,0,0,1,36,96"/>
      <path class="cls-4" d="M73.3,57.07a9.74,9.74,0,1,1-9.74,9.74,9.75,9.75,0,0,1,9.74-9.74"/>
      <path class="cls-5" d="M42.46,102.52A6.5,6.5,0,1,0,36,109a6.5,6.5,0,0,0,6.5-6.5m8.11-61.69a3.25,3.25,0,1,0-3.25,3.25,3.25,3.25,0,0,0,3.25-3.25m29.22,64.94a6.49,6.49,0,1,0-6.49,6.5,6.5,6.5,0,0,0,6.49-6.5m3.25-39a9.74,9.74,0,1,0-9.74,9.74A9.75,9.75,0,0,0,83,66.81m19.48,26A3.25,3.25,0,1,0,99.28,96a3.24,3.24,0,0,0,3.24-3.25M112.27,36a6.5,6.5,0,1,0-6.5,6.5,6.5,6.5,0,0,0,6.5-6.5m-6.5-9.74a9.74,9.74,0,1,1,0,19.48,9.65,9.65,0,0,1-6.53-2.54L83.55,58.86a12.9,12.9,0,0,1,0,15.9L96,87.21a6.48,6.48,0,1,1,3.28,12.07,6.51,6.51,0,0,1-6.5-6.5,6.36,6.36,0,0,1,.93-3.28L81.25,77.05a12.79,12.79,0,0,1-6.32,2.63v16.5a9.75,9.75,0,1,1-3.25,0V79.68a12.82,12.82,0,0,1-6.33-2.63L44.52,97.88a9.58,9.58,0,0,1,1.18,4.64,9.79,9.79,0,1,1-3.21-7.2L63.05,74.76a12.9,12.9,0,0,1,0-15.9L50.6,46.41a6.39,6.39,0,0,1-3.28.92,6.58,6.58,0,1,1,5.58-3.22L65.35,56.56a12.9,12.9,0,0,1,15.9,0l16-16a9.74,9.74,0,0,1,8.56-14.39"/>
    </g>
  </g>
</svg>
