<svg id="Layer_1" data-name="Layer 1" xmlns="http://www.w3.org/2000/svg" xmlns:xlink="http://www.w3.org/1999/xlink" viewBox="0 0 141.73 141.73">
  <defs>
    <style>
      .cls-1 {
        fill: none;
      }

      .cls-2 {
        clip-path: url(#clip-path);
      }

      .cls-3 {
        fill: #70706f;
      }

      .cls-4 {
        fill: #26bade;
      }

      .cls-5 {
        fill: #9c9c9c;
      }
    </style>
    <clipPath id="clip-path">
      <rect class="cls-1" width="141.73" height="141.73"/>
    </clipPath>
  </defs>
  <title>icon</title>
  <g class="cls-2">
    <g class="cls-2">
      <path class="cls-3" d="M98.05,27.51a37.39,37.39,0,0,0-24.27-10,1.31,1.31,0,0,0-1.3.92h-1A37.41,37.41,0,0,0,45,29.25c.39.23.77.48,1.15.74A36.13,36.13,0,0,1,71.46,19.71h0A36.08,36.08,0,0,1,97.15,30.33l.94-.93h0a1.32,1.32,0,0,0,0-1.89"/>
      <path class="cls-3" d="M34.78,56.94H33.46a1.31,1.31,0,0,0-1.3,1.36A37.4,37.4,0,0,0,42.21,82.57a1.37,1.37,0,0,0,1,.42,1.21,1.21,0,0,0,.61-.16l.69.72h0a37.43,37.43,0,0,0,13.75,8.77l.46-1.25a36.32,36.32,0,0,1-13.27-8.46l0,0A36.1,36.1,0,0,1,34.78,56.94m-1,1a37,37,0,0,0,9.59,24l-.07,0-.14,0L43,81.88a36.51,36.51,0,0,1-9.79-23.61.29.29,0,0,1,.08-.23.3.3,0,0,1,.22-.1Z"/>
      <path class="cls-3" d="M109.58,57c-.44.11-.89.21-1.34.29A36.09,36.09,0,0,1,97.62,82.42l0,0a36.26,36.26,0,0,1-12.75,8.28l1.07,2.33a37.47,37.47,0,0,0,11.65-7.4,1.35,1.35,0,0,0,.27-1.58l.71-.69v0a37.4,37.4,0,0,0,11-26.38M96.92,84.47l0,.07a.32.32,0,0,1-.07.38,36.59,36.59,0,0,1-10.45,6.84l-.23-.5a37.16,37.16,0,0,0,10.72-6.79"/>
      <path class="cls-3" d="M94,78.76a29.93,29.93,0,0,0,8-19.43,1.07,1.07,0,0,0-.74-1c0-.26,0-.53,0-.79v0a30,30,0,0,0-8.71-21.18c-.18.31-.38.62-.59.92a29,29,0,0,1,8.23,20.26v0a28.91,28.91,0,0,1-8.51,20.56l.75.75h0a1,1,0,0,0,1.51,0"/>
      <path class="cls-3" d="M69.4,26h0a29.89,29.89,0,0,0-19.43,8.06,1.06,1.06,0,0,0-.22,1.26l-.57.55v0a29.88,29.88,0,0,0-7,11l1,.37a28.94,28.94,0,0,1,6.78-10.63h0a28.93,28.93,0,0,1,20.55-8.53V27h0a1,1,0,0,0-1-1.05m0,0v1l0,.05v.07A30,30,0,0,0,57,30.26,29.21,29.21,0,0,1,69.4,27Z"/>
      <path class="cls-3" d="M70.19,86.93A28.94,28.94,0,0,1,50,78.42h0A29,29,0,0,1,43.4,68.19l-1.87.86a30.18,30.18,0,0,0,5.93,9.33,1,1,0,0,0,1.26.21c.18.2.37.39.56.57v0A30,30,0,0,0,70.42,88c-.09-.36-.17-.71-.23-1.07"/>
    </g>
    <path class="cls-3" d="M84.55,101l-27.28,3.4v6.19l27.28-3.4Zm-1.5,1.69v3.17l-24.28,3v-3.17Z"/>
    <path class="cls-4" d="M84.55,109.51l-27.28,3.4v6.2l27.28-3.41Zm-.15.17v5.89l-27,3.37v-5.89Z"/>
    <path class="cls-3" d="M84.55,118.07l-27.28,3.4v2.79H84.55Zm-.6.68v4.91H57.87V122Z"/>
    <g class="cls-2">
      <path class="cls-4" d="M71.72,32.74h0a24.26,24.26,0,1,0,0,48.51h0a24.26,24.26,0,0,0,0-48.51m0,44a19.62,19.62,0,0,1,0-39.23h0a19.62,19.62,0,1,1,0,39.23h0"/>
      <path class="cls-3" d="M61.62,67.42l-.38.38a.53.53,0,0,0,0,.76,15,15,0,0,0,9.75,4h0a.54.54,0,0,0,.51-.37h.41a15,15,0,0,0,10.62-4.36,4.53,4.53,0,0,1-.46-.3,14.5,14.5,0,0,1-10.16,4.13h0a14.48,14.48,0,0,1-10.31-4.27"/>
      <path class="cls-3" d="M77.06,43a14.66,14.66,0,0,1,5.33,3.4h0a14.45,14.45,0,0,1,4.28,10.31h.53a.53.53,0,0,0,.52-.55,15,15,0,0,0-4-9.75.53.53,0,0,0-.63-.11c-.09-.09-.18-.19-.28-.28h0a15,15,0,0,0-5.53-3.52Z"/>
      <path class="cls-3" d="M66.13,42.23a15.3,15.3,0,0,0-4.68,3,.54.54,0,0,0-.11.64l-.28.27h0a15,15,0,0,0-4.42,10.6,4.52,4.52,0,0,1,.53-.11A14.54,14.54,0,0,1,61.43,46.5h0a14.49,14.49,0,0,1,5.12-3.32Z"/>
      <path class="cls-5" d="M71.72,49.61h0a7.85,7.85,0,1,0,0,15.7h0a7.85,7.85,0,0,0,0-15.7m0,14.25a6.35,6.35,0,0,1,0-12.7h0a6.35,6.35,0,0,1,0,12.7h0"/>
    </g>
  </g>
</svg>
