<svg id="Layer_1" data-name="Layer 1" xmlns="http://www.w3.org/2000/svg" xmlns:xlink="http://www.w3.org/1999/xlink" viewBox="0 0 141.73 141.73">
  <defs>
    <style>
      .cls-1 {
        fill: none;
      }

      .cls-2 {
        clip-path: url(#clip-path);
      }
    </style>
    <clipPath id="clip-path">
      <rect class="cls-1" width="141.73" height="141.73"/>
    </clipPath>
  </defs>
  <title>icon</title>
  <g class="cls-2">
    <g class="cls-2">
      <path d="M38.76,64H19.06V77.75h19.7ZM61,38.62h19.7V24.86H61ZM85.68,20.24v23H56.07V34.07l-.36,0h-17c-3.94,0-7.27,3.06-7.29,6.72,0,6.11,0,12.23,0,18.34a2.15,2.15,0,0,0,0,.23H43.68v23H14.1v-23H26.44V41.09a10.77,10.77,0,0,1,.8-4.22A12.35,12.35,0,0,1,39,29.44H56.06v-9.2Z"/>
      <path d="M103,77.74h19.7V64H103Zm24.67,4.63H98v-23h12.32V41.06c0-4-3.24-7-7.49-7C99,34,95,34,91.11,34h-.48v-4.6H91c4,0,7.89,0,11.84,0,5.74,0,10.51,3.39,12,8.51a10.9,10.9,0,0,1,.43,3.16c0,5.93,0,11.86,0,17.8v.44h12.34Z"/>
      <path d="M61,116.86h19.7V103.1H61Zm-5,4.63v-9.2H39a12.6,12.6,0,0,1-9.65-4.06,10.44,10.44,0,0,1-2.93-7.13c-.06-4.63,0-9.26,0-13.88,0-.07,0-.14,0-.23h4.92v.41c0,4.5,0,9,0,13.49a6.94,6.94,0,0,0,5.39,6.52,8.74,8.74,0,0,0,2,.27c5.65,0,11.29,0,16.93,0H56V98.51H85.68v23Z"/>
      <path d="M90.63,112.28v-4.59h12.3a7.28,7.28,0,0,0,7.21-5.33,6.8,6.8,0,0,0,.21-1.74c0-4.38,0-8.77,0-13.16V87h4.93v.37c0,4.43,0,8.85,0,13.27a11.54,11.54,0,0,1-8.07,10.93,11.71,11.71,0,0,1-4,.71H90.63"/>
      <path d="M82.87,65.43c-.26,1.82-.52,3.64-.76,5.47a17.77,17.77,0,0,1-1.79,5.61,38.21,38.21,0,0,1-2.24,3.72,18.1,18.1,0,0,1-6.31,5.41,1.52,1.52,0,0,1-1.53.09,18.77,18.77,0,0,1-7.42-6.52,22,22,0,0,1-3.44-9c-.23-1.29-.34-2.61-.52-3.92,0-.22-.13-.43-.15-.65a1.11,1.11,0,0,1,1-1.24,11.81,11.81,0,0,0,4.53-1.76C65.85,61.85,67.41,61,69,60.1a3.35,3.35,0,0,1,3.43,0c1.18.65,2.38,1.28,3.6,1.88,1.38.68,2.77,1.33,4.19,1.94a5.37,5.37,0,0,0,1.36.25,1.38,1.38,0,0,1,1.31,1.26"/>
    </g>
  </g>
</svg>
