<svg id="Layer_1" data-name="Layer 1" xmlns="http://www.w3.org/2000/svg" viewBox="0 0 512 512">
  <defs>
    <style>
      .cls-1 {
        fill: #fff;
      }

      .cls-2 {
        fill: #77c19f;
      }

      .cls-3 {
        fill: #26badd;
      }

      .cls-4 {
        fill: #6eb393;
      }

      .cls-5 {
        fill: #25adcf;
      }

      .cls-6 {
        fill: #56bcb5;
      }

      .cls-7 {
        fill: #d1e3ee;
      }
    </style>
  </defs>
  <title>marketing</title>
  <path class="cls-1" d="M8.54,230.4H51.2v51.2H8.54Z" transform="translate(0 0)"/>
  <path class="cls-2" d="M110.93,307.2H153.6v34.2a17,17,0,0,1-17,17H110.93Z" transform="translate(0 0)"/>
  <path class="cls-3" d="M281.6,102.4a51.2,51.2,0,1,1-51.2-51.2A51.2,51.2,0,0,1,281.6,102.4Z" transform="translate(0 0)"/>
  <path class="cls-1" d="M174.05,224.16,332.8,153.6V358.4L174.05,287.84Z" transform="translate(0 0)"/>
  <path class="cls-4" d="M68.27,307.2h51.2v93.87H68.27Z" transform="translate(0 0)"/>
  <path class="cls-2" d="M443.73,8.53,375.47,76.8v59.73H435.2l68.27-68.26Zm-29.86,102.4a12.8,12.8,0,1,1,12.8-12.8A12.8,12.8,0,0,1,413.87,110.93Z" transform="translate(0 0)"/>
  <path class="cls-2" d="M67.18,196.27h87.51a24.5,24.5,0,0,1,24.51,24.5v70.46a24.5,24.5,0,0,1-24.51,24.5H67.18a24.5,24.5,0,0,1-24.51-24.5V220.77A24.5,24.5,0,0,1,67.18,196.27Z" transform="translate(0 0)"/>
  <path class="cls-3" d="M332.8,153.6l-51.2,22.76V335.64l51.2,22.76Z" transform="translate(0 0)"/>
  <path class="cls-5" d="M358.65,401.93,419,341.59l84.47,84.47L443.12,486.4Z" transform="translate(0 0)"/>
  <path class="cls-2" d="M419,341.58,425,420l78.44,6Z" transform="translate(0 0)"/>
  <g>
    <path class="cls-6" d="M477.87,204.8a25.6,25.6,0,1,1-25.6-25.6A25.6,25.6,0,0,1,477.87,204.8Z" transform="translate(0 0)"/>
    <path class="cls-6" d="M443.9,238.93h16.75A25.77,25.77,0,0,1,486.4,264.7v42.5H418.13V264.7A25.77,25.77,0,0,1,443.9,238.93Z" transform="translate(0 0)"/>
    <path class="cls-6" d="M409.6,213.33a17.07,17.07,0,1,1-17.06-17.06A17.06,17.06,0,0,1,409.6,213.33Z" transform="translate(0 0)"/>
    <path class="cls-6" d="M392.54,238.93a25.6,25.6,0,0,1,25.6,25.6v25.6H366.93v-25.6A25.6,25.6,0,0,1,392.54,238.93Z" transform="translate(0 0)"/>
  </g>
  <path class="cls-7" d="M330.3,14.56,318.23,2.5,266.11,54.61A60,60,0,1,0,278.19,66.7ZM230.4,145.07a42.67,42.67,0,1,1,42.67-42.67A42.68,42.68,0,0,1,230.4,145.07Z" transform="translate(0 0)"/>
  <path class="cls-3" d="M238.93,358.4H204.8l-51.2,51.2,93.87,93.86,68.26-68.26Zm-40.16,62.23L232.9,386.5,245,398.57,210.83,432.7Zm37.66,37.67-12.06-12.07L258.5,412.1l12.07,12.06Z" transform="translate(0 0)"/>
  <path d="M413.87,85.33a12.8,12.8,0,1,0,12.8,12.8A12.8,12.8,0,0,0,413.87,85.33Z" transform="translate(0 0)"/>
  <path d="M449.77,2.5a8.54,8.54,0,0,0-12.07,0L369.43,70.77a8.57,8.57,0,0,0-2.5,6v59.73a8.54,8.54,0,0,0,8.54,8.54H435.2a8.56,8.56,0,0,0,6-2.5L509.5,74.3a8.54,8.54,0,0,0,0-12.07ZM431.67,128H384V80.33L443.73,20.6,491.4,68.27Z" transform="translate(0 0)"/>
  <path d="M8.54,290.13H34.13v1.09a33,33,0,0,0,25.6,32.12v77.73a8.53,8.53,0,0,0,8.54,8.53h51.2a8.53,8.53,0,0,0,8.53-8.53V366.93h8.6a25.59,25.59,0,0,0,25.53-25.53V323.34a33,33,0,0,0,23.54-21L329.34,366.2a8.55,8.55,0,0,0,12-7.8V153.6a8.54,8.54,0,0,0-12-7.8L185.67,209.66a33,33,0,0,0-31-21.93H67.18a33.08,33.08,0,0,0-33.05,33v1.1H8.54A8.53,8.53,0,0,0,0,230.4v51.2A8.53,8.53,0,0,0,8.54,290.13ZM290.13,181.89l34.14-15.16V345.27L290.13,330.1Zm-102.4,45.52,85.34-37.93V322.56l-85.34-38Zm-76.8,131v34.13H76.8V324.27h34.13Zm34.14-17a8.49,8.49,0,0,1-8.47,8.47H128v-25.6h17.07ZM51.2,281.6V220.77a16,16,0,0,1,16-16h87.51a16,16,0,0,1,16,16v70.46a16,16,0,0,1-16,16H67.18a16,16,0,0,1-16-16ZM17.07,238.93H34.13v34.14H17.07Z" transform="translate(0 0)"/>
  <path d="M425,335.55a8.52,8.52,0,0,0-12.07,0l-60.34,60.34a8.54,8.54,0,0,0,0,12.07l84.48,84.48a8.53,8.53,0,0,0,12.06,0L509.5,432.1a8.53,8.53,0,0,0,0-12.06Zm56.1,80.21L433,412.07l-3.7-48.16Zm-38,58.56-72.42-72.4,41.2-41.19,4.61,59.94a8.55,8.55,0,0,0,7.85,7.86l59.95,4.6Z" transform="translate(0 0)"/>
  <path d="M230.4,162.13A59.61,59.61,0,0,0,278.19,66.7l52.13-52.14L318.23,2.5,266.11,54.61A59.73,59.73,0,1,0,230.4,162.13Zm0-102.4a42.67,42.67,0,1,1-42.67,42.67A42.68,42.68,0,0,1,230.4,59.73Z" transform="translate(0 0)"/>
  <path d="M366.93,298.67H409.6v8.53a8.53,8.53,0,0,0,8.53,8.53H486.4a8.53,8.53,0,0,0,8.53-8.53V264.7a34.22,34.22,0,0,0-22.88-32.2,34.13,34.13,0,1,0-39.57,0,34.21,34.21,0,0,0-14.3,9.74A34.34,34.34,0,0,0,407.5,234a25.6,25.6,0,1,0-29.93,0,34.06,34.06,0,0,0-19.17,30.52v25.6A8.54,8.54,0,0,0,366.93,298.67Zm85.34-110.94A17.07,17.07,0,1,1,435.2,204.8,17.07,17.07,0,0,1,452.27,187.73Zm-25.6,102.4V264.7a17.26,17.26,0,0,1,17.23-17.24h16.74a17.26,17.26,0,0,1,17.23,17.24v34h-51.2ZM392.54,204.8a8.54,8.54,0,1,1-8.54,8.53A8.53,8.53,0,0,1,392.54,204.8Zm-17.07,59.73a17.07,17.07,0,1,1,34.13,0V281.6H375.47Z" transform="translate(0 0)"/>
  <path d="M238.93,349.87H204.8a8.53,8.53,0,0,0-6,2.5l-51.2,51.2a8.53,8.53,0,0,0,0,12.06l93.86,93.87a8.54,8.54,0,0,0,12.07,0l68.27-68.27a8.53,8.53,0,0,0,0-12.06L245,352.37A8.54,8.54,0,0,0,238.93,349.87Zm8.54,141.53-81.8-81.8,42.66-42.67H235.4l68.27,68.27Z" transform="translate(0 0)"/>
  <path d="M198.77,420.63,232.9,386.5,245,398.57,210.84,432.7Z" transform="translate(0 0)"/>
  <path d="M224.36,446.23,258.5,412.1l12.07,12.06L236.43,458.3Z" transform="translate(0 0)"/>
</svg>
